<?xml version="1.0" encoding="utf-8"?>
<!-- Generator: Adobe Illustrator 16.0.0, SVG Export Plug-In . SVG Version: 6.00 Build 0)  -->
<!DOCTYPE svg PUBLIC "-//W3C//DTD SVG 1.1//EN" "http://www.w3.org/Graphics/SVG/1.1/DTD/svg11.dtd">
<svg version="1.1" id="Layer_1" xmlns="http://www.w3.org/2000/svg" xmlns:xlink="http://www.w3.org/1999/xlink" x="0px" y="0px"
	 width="100px" height="100px" viewBox="0 0 100 100" enable-background="new 0 0 100 100" xml:space="preserve">
<g>
	<path fill="#FFFFFF" d="M46.441,7.723c-0.112,0-0.201,0.029-0.274,0.089c-0.388,0.319-0.545,0.84,1.48,3.979
		c1.251,1.939,2.411,3.39,3.268,4.084c0.456,0.369,0.553,1.026,0.223,1.512c-1.243,1.83-2.373,3.466-2.805,4.076
		c-3.843,5.421-7.682,10.299-12.127,15.947c-4.402,5.594-9.392,11.934-15.404,20.119C5.995,77.688,8.399,85.068,9.426,88.221
		c0.11,0.34,1.754,4.494,4.089,5.066c0.37-7.012,3.587-12.338,9.573-22.957c0.872-1.545,1.803-3.197,2.794-4.977
		c2.373-4.256,4.911-9.203,7.598-14.441c4.883-9.518,9.743-19.494,14.542-26.091c4.329-5.95,5.383-7.227,6.167-6.977
		c1.393,0.412,9.21-0.201,10.071-1.413c0.134-0.599-0.054-0.792-0.694-1.338c-0.519-0.443-1.165-0.994-1.357-1.932l0,0
		c-0.265-1.293,0.81-2.252,1.758-3.098c0.392-0.351,1.208-1.078,1.226-1.363c-0.014-0.037-0.025-0.055-0.025-0.055
		c-0.093-0.044-0.563-0.047-0.843-0.049c-0.864-0.006-2.047-0.014-2.947-0.96c-0.919-0.966-0.651-2.315-0.437-3.399
		c0.321-1.619,0.188-1.755-0.247-1.912c-0.619-0.224-1.117,0.177-2.208,1.417c-0.866,0.984-1.848,2.103-3.268,1.918
		c-1.151-0.146-1.729-1.07-2.151-1.744c-0.562-0.899-0.741-1.127-1.539-0.921c-0.475,0.124-0.629,0.319-0.499,2.026
		c0.086,1.122,0.204,2.66-1.089,3.353c-0.802,0.43-1.618,0.062-2.336-0.264C47.049,7.862,46.688,7.723,46.441,7.723z M64.272,16.413
		L64.272,16.413L64.272,16.413z"/>
	<path fill="#78BC68" d="M47.51,8.92c-0.112,0-0.201,0.029-0.274,0.089c-0.389,0.32-0.545,0.841,1.48,3.98
		c1.251,1.939,1.555,2.695,2.412,3.389c0.456,0.37,1.15,1.369,0.82,1.854c-1.242,1.83-24.065,32.309-30.077,40.494
		C7.063,78.885,9.468,86.266,10.495,89.418c0.11,0.34,1.754,4.496,4.089,5.066c0.37-7.012,3.587-12.338,9.573-22.955
		c0.872-1.547,1.803-3.199,2.794-4.977c2.373-4.258,4.911-9.203,7.598-14.441c4.883-9.52,9.743-19.496,14.542-26.092
		c4.329-5.951,5.384-7.227,6.167-6.977c1.392,0.411,9.21-0.201,10.07-1.413c0.134-0.6-0.054-0.792-0.694-1.339
		c-0.519-0.442-1.164-0.994-1.356-1.932l0,0c-0.266-1.293,0.81-2.252,1.758-3.098c0.392-0.35,1.208-1.077,1.226-1.363
		c-0.014-0.037-0.025-0.055-0.025-0.055c-0.093-0.043-0.563-0.047-0.842-0.049c-0.864-0.005-2.047-0.013-2.947-0.959
		c-0.919-0.966-0.652-2.315-0.438-3.4c0.321-1.618,0.188-1.755-0.247-1.911c-0.619-0.224-1.117,0.177-2.208,1.417
		c-0.866,0.984-1.848,2.102-3.267,1.918c-1.152-0.147-1.73-1.07-2.152-1.745c-0.562-0.899-0.741-1.127-1.539-0.92
		c-0.475,0.123-0.629,0.319-0.499,2.025c0.086,1.123,0.204,2.661-1.089,3.354c-0.802,0.43-1.618,0.062-2.336-0.264
		C48.118,9.06,47.757,8.92,47.51,8.92z M65.341,17.61L65.341,17.61L65.341,17.61z"/>
	<path fill="#78BC68" d="M27.511,71.129c0,0,13.66-14.73,17.994-19.834c2.648-3.119,9.621-12.115,9.779-13.123
		c0.158-1.01-4.85-7.186-3.781-8.611c1.069-1.425,3.84,0.891,4.415,0.534c0.574-0.356,0.514-5.938,2.652-6.057
		c2.138-0.119,2.375,2.731,3.385,2.731c1.01,0,5.109-4.566,4.371-2.821c-1.19,2.81-0.748,4.479,0.261,5.489
		c1.01,1.01,2.168-2.107,3.118-0.813c0.95,1.295-3.949,3.949-3.831,5.434s4.283-0.189,4.276,1.945
		c-0.007,2.133-11.966,3.014-12.56,2.953L43.426,61.002L29.82,82.68c0,0-8.705,10.199-12.405,10.17
		C17.416,92.85,17.186,82.512,27.511,71.129z"/>
	<path d="M14.586,96.696c-0.141,0-0.283-0.025-0.417-0.08c-0.225-0.09-4.859-1.741-6.892-7.694
		c-1.183-3.467-3.79-11.639,11.704-32.73c6.034-8.215,11.036-14.57,15.449-20.178c4.427-5.625,8.25-10.482,12.06-15.857
		c0.362-0.511,1.225-1.758,2.233-3.236c-1.093-1.122-2.186-2.682-2.975-3.904c-1.461-2.266-3.28-5.085-1.018-6.948
		c1.358-1.119,2.888-0.427,3.802-0.015c0.085,0.038,0.187,0.085,0.286,0.127c0.01-0.291-0.021-0.703-0.043-0.985
		c-0.1-1.308-0.287-3.743,2.185-4.385c2.434-0.632,3.466,1.021,4.021,1.909c0.152,0.242,0.406,0.648,0.527,0.703
		c0.215,0.026,0.965-0.813,1.28-1.171c0.993-1.129,2.494-2.837,4.671-2.05c2.412,0.869,1.947,3.216,1.697,4.476
		c-0.084,0.427-0.242,1.221-0.137,1.411c0.217,0.227,0.644,0.246,1.32,0.25c0.932,0.007,2.492,0.018,3.013,1.707
		c0.49,1.589-0.881,2.813-1.882,3.705c-0.334,0.298-0.874,0.78-1.021,1.035c0.085,0.166,0.328,0.373,0.583,0.59
		c0.708,0.605,1.893,1.617,1.415,3.62c-0.154,0.648-0.625,1.198-1.398,1.636c-2.417,1.365-8.422,1.747-10.804,1.499
		c-0.961,1.186-3.612,4.876-4.359,5.968c-4.53,6.611-9.545,16.391-14.396,25.846c-2.696,5.256-5.242,10.221-7.634,14.512
		c-0.993,1.781-1.926,3.436-2.8,4.984c-6.309,11.191-8.789,15.201-9.272,21.848c-0.028,0.377-0.917,2.074-0.555,3.208
		C15.3,96.718,14.813,96.696,14.586,96.696z M46.441,7.723c-0.112,0-0.201,0.029-0.274,0.089c-0.388,0.319-0.545,0.84,1.48,3.979
		c1.251,1.939,2.411,3.39,3.268,4.084c0.456,0.369,0.553,1.026,0.223,1.512c-1.243,1.83-2.373,3.466-2.805,4.076
		c-3.843,5.421-7.682,10.299-12.127,15.947c-4.402,5.594-9.392,11.934-15.404,20.119C5.995,77.688,8.399,85.068,9.426,88.221
		c0.11,0.34,1.754,4.494,4.089,5.066c0.37-7.012,3.587-12.338,9.573-22.957c0.872-1.545,1.803-3.197,2.794-4.977
		c2.373-4.256,4.911-9.203,7.598-14.441c4.883-9.518,9.743-19.494,14.542-26.091c4.329-5.95,5.383-7.227,6.167-6.977
		c1.393,0.412,9.21-0.201,10.071-1.413c0.134-0.599-0.054-0.792-0.694-1.338c-0.519-0.443-1.165-0.994-1.357-1.932l0,0
		c-0.265-1.293,0.81-2.252,1.758-3.098c0.392-0.351,1.208-1.078,1.226-1.363c-0.014-0.037-0.025-0.055-0.025-0.055
		c-0.093-0.044-0.563-0.047-0.843-0.049c-0.864-0.006-2.047-0.014-2.947-0.96c-0.919-0.966-0.651-2.315-0.437-3.399
		c0.321-1.619,0.188-1.755-0.247-1.912c-0.619-0.224-1.117,0.177-2.208,1.417c-0.866,0.984-1.848,2.103-3.268,1.918
		c-1.151-0.146-1.729-1.07-2.151-1.744c-0.562-0.899-0.741-1.127-1.539-0.921c-0.475,0.124-0.629,0.319-0.499,2.026
		c0.086,1.122,0.204,2.66-1.089,3.353c-0.802,0.43-1.618,0.062-2.336-0.264C47.049,7.862,46.688,7.723,46.441,7.723z M64.272,16.413
		L64.272,16.413L64.272,16.413z"/>
	<path d="M51.803,41.277c0.907-1.156,1.789-2.279,2.648-3.361c0.214-0.27,0.426-0.533,0.636-0.793
		c0.385-0.477,0.322-1.17-0.142-1.568c-0.885-0.76-2.11-2.023-2.925-3.73c-0.609-1.275-1.363-2.855-1.323-3.305
		c0.033-0.027,0.114-0.084,0.291-0.163c0.211-0.096,0.427,0.005,1.054,0.484c0.54,0.413,1.354,1.038,2.31,0.612
		c1.269-0.567,1.356-2.076,1.435-3.406c0.099-1.691,0.253-2.475,0.912-2.645c0.618-0.159,0.673-0.148,1.091,0.843
		c0.31,0.734,0.777,1.846,2.047,2.021c1.234,0.173,2.118-0.83,2.898-1.713c1.137-1.287,1.542-1.533,2.057-1.257
		c0.396,0.213,0.529,0.284-0.071,1.745c-0.415,1.01-0.984,2.393,0.048,3.477c1.015,1.067,2.307,0.813,3.079,0.66
		c0.089-0.018,0.199-0.039,0.302-0.057c-0.247,0.397-1.005,1.05-1.443,1.425c-1.134,0.974-2.306,1.979-2.038,3.288h0
		c0.26,1.268,1.558,1.643,2.601,1.943c0.412,0.119,1.178,0.34,1.3,0.484c0,0,0.003,0.023-0.007,0.078
		c-0.866,1.211-8.679,1.822-10.071,1.412c-0.202-0.064-0.413-0.146-0.627-0.244c-0.504-0.23-1.101-0.061-1.409,0.4
		c-1.72,2.58-3.211,4.947-4.199,6.514c-0.396,0.629-0.711,1.129-0.929,1.467c-0.978,1.508-4.955,7.836-9.559,15.162
		c-6.377,10.148-14.313,22.777-15.525,24.563c-0.607,0.895-1.135,1.775-1.609,2.619c1.803-1.355,3.641-2.855,5.466-4.432
		c2.973-4.666,8.529-13.51,13.581-21.547c4.6-7.32,8.573-13.643,9.542-15.137c0.222-0.342,0.543-0.852,0.945-1.49
		c0.884-1.404,2.175-3.453,3.668-5.713c1.527,0.451,8.796,0.162,11.517-1.377c0.773-0.438,1.244-0.986,1.398-1.635
		c0.552-2.313-1.75-2.977-2.855-3.295c-0.249-0.072-0.614-0.178-0.863-0.279c0.267-0.314,0.796-0.77,1.145-1.068
		c1.207-1.035,2.708-2.324,2.214-3.928c-0.57-1.847-2.261-1.513-2.982-1.371c-0.613,0.121-0.834,0.133-0.965,0.035
		c0.008-0.228,0.229-0.766,0.365-1.096c0.446-1.087,1.375-3.347-0.95-4.595c-2.219-1.192-3.846,0.65-4.819,1.751
		c-0.268,0.304-0.651,0.737-0.89,0.91c-0.09-0.147-0.201-0.41-0.28-0.599c-0.385-0.914-1.188-2.816-3.74-2.153
		c-2.362,0.613-2.505,3.072-2.601,4.7c-0.02,0.346-0.047,0.805-0.099,1.145c-0.006-0.004-0.011-0.008-0.016-0.012
		c-0.649-0.497-1.856-1.423-3.351-0.754c-0.285,0.128-1.152,0.516-1.487,1.427c-0.444,1.206,0.213,2.581,1.403,5.076
		c0.751,1.574,1.778,2.824,2.688,3.729c-0.857,1.082-1.738,2.203-2.644,3.355c-4.467,5.688-9.531,12.133-15.474,18.439
		c-2.434,2.582-5.605,6.043-8.811,9.6c-1.964,3.5-3.671,6.492-5.118,9.146c4.852-5.521,11.158-12.512,15.573-17.197
		C42.209,53.488,47.306,47.002,51.803,41.277z"/>
	<path fill="#78BC68" d="M15.229,96.495c2.361,2.082,6.284,3.258,9.936,2.502c8.138-1.688,14.419-9.288,18.617-14.61
		c5.883-7.457,18.179-24.479,18.974-25.564c5.345-7.305,12.945-19.637,14.787-22.27c0.176-0.25,1.123-1.287,1.425-1.336
		c0.302-0.047,2.554,0.715,2.851,0.787c4.743,1.143,6.58,1.252,7.839,0.459c1.604-1.01,2.778-1.406,2.138-1.705
		c-1.265-0.588-1-1.113-2.268-0.619c-1.012,0.396-1.867,0.008-1.894-1.287c-0.028-1.333,1.307-2.766,2.782-3.001
		c1.307-0.208,2.243-1.554,2.152-1.552c-0.788,0.011-3.072,0.575-3.877-0.657c-0.817-1.249,0.266-2.272,0.879-3.248
		c0.243-0.386,1.158-2.271,0.237-2.271c-0.863,0-1.752,0.609-3.073,1.45c-1.133,0.722-2.203,1.402-3.322,1.033
		c-1.419-0.468-1.387-1.929-1.369-2.713c0.005-0.217,0.013-0.56-0.02-0.731c-0.063-0.01-0.172-0.02-0.346-0.006
		c-1.429,0.104-2.334,3.14-2.549,4.594c-0.067,0.456-0.404,0.825-0.852,0.934c-0.448,0.107-0.916-0.064-1.184-0.438
		c-0.331-0.454-1.281-1.403-1.925-1.246c-0.188,0.046-0.278,0.088-0.315,0.108c-0.12,0.434,0.336,2.124,0.706,3.489
		c0.55,2.035,1.681,3.617,2.533,4.586c0.379,0.43,0.375-0.191-0.009,0.236c-2.257,2.504-18.435,22.703-28.195,34.025
		C43.972,74.301,26.155,92.236,15.229,96.495z M91.028,36.004L91.028,36.004L91.028,36.004z"/>
	<path d="M22.941,100.001c-5.846,0-10.27-4.511-10.455-4.702c-0.281-0.291-0.385-0.711-0.272-1.1
		c0.113-0.389,0.424-0.688,0.818-0.783C22.06,91.219,39.002,74.65,47.56,64.723c9.751-11.311,17.253-20.211,20.858-24.51
		c1.028-1.227,4.411-4.998,6.72-7.564c-0.882-1.148-1.846-2.746-2.376-4.708c-0.721-2.67-1.119-4.141-0.465-5.246
		c0.494-0.836,1.417-1.062,1.72-1.136c1.047-0.256,1.992,0.107,2.729,0.604c0.58-1.864,1.79-4.334,4.153-4.505
		c0.895-0.064,1.598,0.138,2.088,0.604c0.74,0.703,0.717,1.706,0.701,2.438c-0.003,0.128-0.006,0.29-0.003,0.432
		c0.335-0.145,0.851-0.473,1.221-0.708c1.442-0.919,3.417-2.177,5.41-1.017c0.675,0.394,1.097,0.917,1.254,1.556
		c0.278,1.132-0.372,2.166-0.945,3.078c-0.218,0.348-0.575,0.915-0.62,1.167c0.112,0.117,0.333,0.143,0.952,0.136
		c0.733-0.009,2.458-0.033,2.686,1.887l0,0c0.197,1.665-1.512,2.663-2.886,3.464c-0.396,0.231-1,0.583-1.319,0.845
		c0.226,0.145,0.567,0.314,0.799,0.43c1.03,0.513,3.173,1.581,2.214,3.755c-0.269,0.609-0.831,1.066-1.67,1.357
		c-2.973,1.029-10.248-0.016-11.603-0.736c-0.028-0.016-0.057-0.031-0.086-0.047c-1.851,2.682-4.562,6.744-7.193,10.686
		c-3.617,5.416-7.032,10.533-8.494,12.512c-0.798,1.08-1.683,2.283-2.637,3.582c-4.445,6.045-10.534,14.326-16.44,21.813
		c-4.451,5.643-13.147,15.11-21.381,15.112C22.944,100.001,22.942,100.001,22.941,100.001z M15.572,94.967
		c1.578,1.181,4.283,2.774,7.369,2.774c0.001,0,0.002,0,0.004,0c7.281-0.002,15.411-8.931,19.609-14.251
		c5.882-7.457,11.957-15.719,16.393-21.754c0.956-1.299,1.841-2.504,2.64-3.586c1.43-1.934,4.99-7.266,8.432-12.424
		c2.95-4.418,6-8.988,7.842-11.621c0.176-0.25,0.445-0.418,0.748-0.467c0.302-0.047,0.611,0.027,0.855,0.211
		c0.264,0.197,0.525,0.365,0.775,0.5c1.295,0.654,9.09,1.461,10.159,0.426c0.02-0.051,0.021-0.074,0.021-0.074
		c-0.094-0.166-0.808-0.521-1.191-0.711c-0.972-0.484-2.181-1.088-2.208-2.383c-0.029-1.334,1.306-2.112,2.597-2.865
		c0.498-0.291,1.362-0.795,1.676-1.142c-0.104-0.001-0.216,0-0.307,0.001c-0.788,0.012-2.104,0.028-2.91-1.204
		c-0.817-1.25,0.021-2.585,0.634-3.56c0.243-0.386,0.695-1.105,0.664-1.34c-0.002-0.003-0.056-0.058-0.196-0.139
		c-0.746-0.435-1.737,0.128-3.059,0.969c-1.132,0.721-2.202,1.402-3.321,1.033c-1.42-0.468-1.387-1.929-1.369-2.713
		c0.005-0.218,0.013-0.56-0.02-0.732c-0.063-0.01-0.173-0.019-0.346-0.006c-1.429,0.104-2.335,3.141-2.55,4.595
		c-0.067,0.455-0.404,0.825-0.851,0.934c-0.448,0.107-0.916-0.065-1.184-0.438c-0.332-0.454-1.281-1.404-1.926-1.246
		c-0.187,0.045-0.277,0.087-0.314,0.108c-0.12,0.434,0.336,2.124,0.705,3.488c0.55,2.035,1.681,3.618,2.533,4.587
		c0.378,0.43,0.375,1.076-0.009,1.502c-2.257,2.506-6.209,6.904-7.317,8.227c-3.608,4.303-11.118,13.211-20.877,24.531
		C43.358,73.057,26.498,90.709,15.572,94.967z M90.415,34.758L90.415,34.758L90.415,34.758z"/>
	<path d="M59.449,11.725c-0.215-0.043-0.42-0.147-0.585-0.313c-0.658-0.658-0.699-1.482-0.648-2.111
		c-0.546,0.242-1.289,0.471-2.188,0.31c-0.627-0.114-1.023-0.696-0.913-1.311c0.109-0.614,0.696-1.023,1.31-0.913
		c0.413,0.073,0.74-0.074,1.23-0.326c0.515-0.266,1.294-0.667,2.105-0.161c0.952,0.592,0.816,1.68,0.743,2.264
		c-0.026,0.212-0.071,0.566-0.028,0.671c0.441,0.441,0.435,1.146-0.007,1.588C60.192,11.697,59.807,11.797,59.449,11.725z"/>
	<path d="M62.495,32.031c-0.229,0-0.459-0.069-0.659-0.213c-0.864-0.622-0.792-1.653-0.706-2.388
		c-0.544,0.301-1.298,0.639-2.16,0.307c-0.582-0.226-0.871-0.88-0.646-1.462c0.216-0.56,0.829-0.848,1.394-0.67
		c0.114-0.034,0.343-0.165,0.484-0.246c0.528-0.302,1.41-0.807,2.35-0.3c1.069,0.575,0.923,1.791,0.835,2.517
		c-0.02,0.165-0.05,0.421-0.05,0.572c0.347,0.387,0.391,0.975,0.075,1.413C63.192,31.868,62.846,32.031,62.495,32.031z"/>
	<path d="M85.605,29.851c-0.251,0-0.505-0.083-0.714-0.255c-0.824-0.674-0.688-1.699-0.558-2.427
		c-0.561,0.267-1.333,0.56-2.174,0.173c-0.567-0.26-0.815-0.932-0.555-1.498c0.25-0.545,0.88-0.797,1.432-0.583
		c0.116-0.027,0.352-0.144,0.499-0.216c0.545-0.269,1.458-0.717,2.363-0.156c1.032,0.642,0.812,1.845,0.68,2.564
		c-0.03,0.163-0.077,0.416-0.085,0.567c0.322,0.407,0.33,0.997-0.012,1.415C86.257,29.709,85.932,29.851,85.605,29.851z"/>
	<path d="M11.431,82.68c-0.116,0-0.234-0.018-0.351-0.055c-0.593-0.193-0.917-0.832-0.724-1.424
		c0.151-0.465,3.756-11.436,8.443-17.9c0.366-0.506,1.073-0.617,1.577-0.252c0.505,0.365,0.618,1.072,0.251,1.578
		c-4.476,6.174-8.088,17.164-8.124,17.273C12.35,82.377,11.907,82.68,11.431,82.68z"/>
	<path d="M24.467,94.484c-0.365,0-0.723-0.176-0.941-0.504c-0.346-0.518-0.206-1.219,0.313-1.566
		c0.096-0.063,9.642-6.459,14.463-12.326c0.396-0.482,1.108-0.553,1.59-0.156c0.481,0.395,0.552,1.107,0.156,1.59
		c-5.036,6.129-14.553,12.504-14.956,12.773C24.9,94.424,24.683,94.484,24.467,94.484z"/>
	<path d="M25.023,77.293c-0.27,0-0.541-0.096-0.757-0.291c-0.463-0.418-0.5-1.131-0.082-1.594l9.593-10.633
		c0.417-0.463,1.132-0.5,1.596-0.082c0.463,0.418,0.5,1.131,0.082,1.596L25.862,76.92C25.639,77.168,25.332,77.293,25.023,77.293z"
		/>
</g>
</svg>
