<?xml version="1.0" encoding="utf-8"?>
<!-- Generator: Adobe Illustrator 27.6.1, SVG Export Plug-In . SVG Version: 6.00 Build 0)  -->
<svg version="1.1" id="Ebene_1" xmlns="http://www.w3.org/2000/svg" xmlns:xlink="http://www.w3.org/1999/xlink" x="0px" y="0px"
	 viewBox="0 0 128 128" style="enable-background:new 0 0 128 128;" xml:space="preserve">
<style type="text/css">
	.st0{fill:#FFFFFF;}
	.st1{fill:#78BC68;}
</style>
<g>
	<path d="M56.43,116.45l0.93,0.24c-0.2,0.77-0.55,1.35-1.06,1.76c-0.51,0.4-1.13,0.6-1.87,0.6c-0.76,0-1.38-0.15-1.86-0.47
		c-0.48-0.31-0.84-0.76-1.09-1.35c-0.25-0.59-0.37-1.22-0.37-1.89c0-0.74,0.14-1.38,0.42-1.92c0.28-0.55,0.68-0.96,1.2-1.25
		c0.52-0.28,1.09-0.43,1.71-0.43c0.71,0,1.3,0.18,1.78,0.54c0.48,0.36,0.82,0.87,1.01,1.52l-0.92,0.22
		c-0.16-0.51-0.4-0.89-0.71-1.12c-0.31-0.23-0.7-0.35-1.18-0.35c-0.54,0-1,0.13-1.36,0.39c-0.36,0.26-0.62,0.61-0.77,1.05
		c-0.15,0.44-0.22,0.89-0.22,1.36c0,0.6,0.09,1.12,0.26,1.57c0.17,0.45,0.45,0.78,0.82,1c0.37,0.22,0.77,0.33,1.2,0.33
		c0.52,0,0.97-0.15,1.33-0.45C56.05,117.49,56.3,117.04,56.43,116.45z"/>
	<path d="M61.9,117.28l0.9,0.11c-0.14,0.52-0.4,0.93-0.79,1.22c-0.38,0.29-0.87,0.43-1.46,0.43c-0.75,0-1.34-0.23-1.78-0.69
		c-0.44-0.46-0.66-1.11-0.66-1.94c0-0.86,0.22-1.53,0.66-2c0.44-0.48,1.02-0.71,1.72-0.71c0.68,0,1.24,0.23,1.68,0.7
		c0.43,0.47,0.65,1.12,0.65,1.97c0,0.05,0,0.13,0,0.23h-3.82c0.03,0.56,0.19,0.99,0.48,1.29c0.29,0.3,0.64,0.45,1.07,0.45
		c0.32,0,0.59-0.08,0.81-0.25C61.59,117.91,61.77,117.64,61.9,117.28z M59.06,115.87h2.86c-0.04-0.43-0.15-0.75-0.33-0.97
		c-0.28-0.33-0.63-0.5-1.07-0.5c-0.4,0-0.73,0.13-1,0.4C59.24,115.07,59.09,115.43,59.06,115.87z"/>
	<path d="M63.87,118.92v-7.06h0.87v7.06H63.87z"/>
	<path d="M69.58,117.28l0.9,0.11c-0.14,0.52-0.4,0.93-0.79,1.22c-0.38,0.29-0.87,0.43-1.46,0.43c-0.75,0-1.34-0.23-1.78-0.69
		c-0.44-0.46-0.66-1.11-0.66-1.94c0-0.86,0.22-1.53,0.66-2c0.44-0.48,1.02-0.71,1.72-0.71c0.68,0,1.24,0.23,1.68,0.7
		c0.43,0.47,0.65,1.12,0.65,1.97c0,0.05,0,0.13,0,0.23h-3.82c0.03,0.56,0.19,0.99,0.48,1.29c0.29,0.3,0.64,0.45,1.07,0.45
		c0.32,0,0.59-0.08,0.81-0.25C69.27,117.91,69.45,117.64,69.58,117.28z M66.74,115.87h2.86c-0.04-0.43-0.15-0.75-0.33-0.97
		c-0.28-0.33-0.63-0.5-1.07-0.5c-0.4,0-0.73,0.13-1,0.4C66.91,115.07,66.76,115.43,66.74,115.87z"/>
	<path d="M71.56,118.92v-5.12h0.78v0.78c0.2-0.36,0.38-0.6,0.55-0.72c0.17-0.12,0.35-0.17,0.56-0.17c0.29,0,0.59,0.09,0.89,0.28
		l-0.3,0.8c-0.21-0.13-0.42-0.19-0.64-0.19c-0.19,0-0.36,0.06-0.51,0.17c-0.15,0.11-0.26,0.27-0.32,0.47
		c-0.1,0.31-0.14,0.65-0.14,1.01v2.68H71.56z"/>
	<path d="M74.81,120.89l-0.1-0.81c0.19,0.05,0.35,0.08,0.5,0.08c0.19,0,0.35-0.03,0.46-0.1c0.12-0.06,0.21-0.15,0.28-0.27
		c0.05-0.09,0.14-0.3,0.26-0.65c0.02-0.05,0.04-0.12,0.08-0.21l-1.94-5.13h0.93l1.06,2.96c0.14,0.38,0.26,0.77,0.37,1.18
		c0.1-0.4,0.22-0.79,0.36-1.17l1.09-2.98h0.87l-1.95,5.2c-0.21,0.56-0.37,0.95-0.49,1.16c-0.15,0.29-0.33,0.5-0.53,0.63
		c-0.2,0.13-0.44,0.2-0.71,0.2C75.21,121,75.02,120.96,74.81,120.89z"/>
</g>
<g>
	<path class="st0" d="M61.85,14.34c-0.1,0-0.17,0.02-0.23,0.08c-0.33,0.27-0.46,0.71,1.26,3.37c1.06,1.64,2.04,2.87,2.77,3.46
		c0.39,0.31,0.47,0.87,0.19,1.28c-1.05,1.55-2.01,2.94-2.38,3.46c-3.26,4.6-6.51,8.73-10.28,13.52
		c-3.73,4.74-7.96,10.12-13.06,17.06C27.56,73.66,29.6,79.92,30.47,82.59c0.09,0.29,1.49,3.81,3.47,4.29
		c0.31-5.94,3.04-10.46,8.12-19.46c0.74-1.31,1.53-2.71,2.37-4.22c2.01-3.61,4.16-7.8,6.44-12.24c4.14-8.07,8.26-16.53,12.33-22.12
		c3.67-5.05,4.56-6.13,5.23-5.92c1.18,0.35,7.81-0.17,8.54-1.2c0.11-0.51-0.05-0.67-0.59-1.13c-0.44-0.38-0.99-0.84-1.15-1.64l0,0
		c-0.22-1.1,0.69-1.91,1.49-2.63c0.33-0.3,1.02-0.91,1.04-1.16c-0.01-0.03-0.02-0.05-0.02-0.05c-0.08-0.04-0.48-0.04-0.71-0.04
		c-0.73,0-1.74-0.01-2.5-0.81c-0.78-0.82-0.55-1.96-0.37-2.88c0.27-1.37,0.16-1.49-0.21-1.62c-0.52-0.19-0.95,0.15-1.87,1.2
		c-0.73,0.83-1.57,1.78-2.77,1.63c-0.98-0.12-1.47-0.91-1.82-1.48c-0.48-0.76-0.63-0.96-1.3-0.78c-0.4,0.1-0.53,0.27-0.42,1.72
		c0.07,0.95,0.17,2.26-0.92,2.84c-0.68,0.36-1.37,0.05-1.98-0.22C62.37,14.45,62.06,14.34,61.85,14.34z M76.97,21.7L76.97,21.7
		L76.97,21.7z"/>
	<path class="st1" d="M62.76,15.35c-0.1,0-0.17,0.02-0.23,0.08c-0.33,0.27-0.46,0.71,1.26,3.37c1.06,1.64,1.32,2.29,2.04,2.87
		c0.39,0.31,0.98,1.16,0.7,1.57c-1.05,1.55-20.4,27.39-25.5,34.33C28.46,74.67,30.5,80.93,31.37,83.6c0.09,0.29,1.49,3.81,3.47,4.29
		c0.31-5.94,3.04-10.46,8.12-19.46c0.74-1.31,1.53-2.71,2.37-4.22c2.01-3.61,4.16-7.8,6.44-12.24c4.14-8.07,8.26-16.53,12.33-22.12
		c3.67-5.05,4.56-6.13,5.23-5.92c1.18,0.35,7.81-0.17,8.54-1.2c0.11-0.51-0.05-0.67-0.59-1.13c-0.44-0.38-0.99-0.84-1.15-1.64l0,0
		c-0.22-1.1,0.69-1.91,1.49-2.63c0.33-0.3,1.02-0.91,1.04-1.16c-0.01-0.03-0.02-0.05-0.02-0.05c-0.08-0.04-0.48-0.04-0.71-0.04
		c-0.73,0-1.74-0.01-2.5-0.81c-0.78-0.82-0.55-1.96-0.37-2.88c0.27-1.37,0.16-1.49-0.21-1.62c-0.52-0.19-0.95,0.15-1.87,1.2
		c-0.73,0.83-1.57,1.78-2.77,1.63c-0.98-0.12-1.47-0.91-1.82-1.48c-0.48-0.76-0.63-0.96-1.3-0.78c-0.4,0.1-0.53,0.27-0.42,1.72
		c0.07,0.95,0.17,2.26-0.92,2.84c-0.68,0.36-1.37,0.05-1.98-0.22C63.27,15.47,62.97,15.35,62.76,15.35z M77.88,22.72L77.88,22.72
		L77.88,22.72z"/>
	<path class="st1" d="M45.8,68.1c0,0,11.58-12.49,15.26-16.82c2.25-2.64,8.16-10.27,8.29-11.13c0.13-0.86-4.11-6.09-3.21-7.3
		c0.91-1.21,3.26,0.76,3.74,0.45c0.49-0.3,0.44-5.04,2.25-5.14c1.81-0.1,2.01,2.32,2.87,2.32c0.86,0,4.33-3.87,3.71-2.39
		c-1.01,2.38-0.63,3.8,0.22,4.65c0.86,0.86,1.84-1.79,2.64-0.69c0.81,1.1-3.35,3.35-3.25,4.61c0.1,1.26,3.63-0.16,3.63,1.65
		c-0.01,1.81-10.15,2.56-10.65,2.51L59.29,59.51L47.76,77.89c0,0-7.38,8.65-10.52,8.62C37.24,86.51,37.05,77.75,45.8,68.1z"/>
	<path class="st1" d="M127.35,43.58L127.35,43.58L127.35,43.58z M127.47,40.44L127.47,40.44C127.47,40.44,127.47,40.44,127.47,40.44
		C127.47,40.44,127.47,40.44,127.47,40.44z"/>
	<path d="M34.84,89.77c-0.12,0-0.24-0.02-0.35-0.07c-0.19-0.08-4.12-1.48-5.84-6.52c-1-2.94-3.21-9.87,9.92-27.75
		c5.12-6.97,9.36-12.35,13.1-17.11c3.75-4.77,6.99-8.89,10.23-13.45c0.31-0.43,1.04-1.49,1.89-2.74c-0.93-0.95-1.85-2.27-2.52-3.31
		c-1.24-1.92-2.78-4.31-0.86-5.89c1.15-0.95,2.45-0.36,3.22-0.01c0.07,0.03,0.16,0.07,0.24,0.11c0.01-0.25-0.02-0.6-0.04-0.84
		c-0.08-1.11-0.24-3.17,1.85-3.72c2.06-0.54,2.94,0.87,3.41,1.62c0.13,0.21,0.34,0.55,0.45,0.6c0.18,0.02,0.82-0.69,1.09-0.99
		c0.84-0.96,2.11-2.4,3.96-1.74c2.04,0.74,1.65,2.73,1.44,3.79c-0.07,0.36-0.21,1.04-0.12,1.2c0.18,0.19,0.55,0.21,1.12,0.21
		c0.79,0.01,2.11,0.01,2.55,1.45c0.42,1.35-0.75,2.38-1.6,3.14c-0.28,0.25-0.74,0.66-0.87,0.88c0.07,0.14,0.28,0.32,0.49,0.5
		c0.6,0.51,1.61,1.37,1.2,3.07c-0.13,0.55-0.53,1.02-1.19,1.39c-2.05,1.16-7.14,1.48-9.16,1.27c-0.82,1-3.06,4.13-3.7,5.06
		c-3.84,5.61-8.09,13.9-12.21,21.91c-2.29,4.46-4.44,8.67-6.47,12.3c-0.84,1.51-1.63,2.91-2.37,4.23
		c-5.35,9.49-7.45,12.89-7.86,18.52c-0.02,0.32-0.78,1.76-0.47,2.72C35.45,89.79,35.03,89.77,34.84,89.77z M61.85,14.34
		c-0.1,0-0.17,0.02-0.23,0.08c-0.33,0.27-0.46,0.71,1.26,3.37c1.06,1.64,2.04,2.87,2.77,3.46c0.39,0.31,0.47,0.87,0.19,1.28
		c-1.05,1.55-2.01,2.94-2.38,3.46c-3.26,4.6-6.51,8.73-10.28,13.52c-3.73,4.74-7.96,10.12-13.06,17.06
		C27.56,73.66,29.6,79.92,30.47,82.59c0.09,0.29,1.49,3.81,3.47,4.29c0.31-5.94,3.04-10.46,8.12-19.46
		c0.74-1.31,1.53-2.71,2.37-4.22c2.01-3.61,4.16-7.8,6.44-12.24c4.14-8.07,8.26-16.53,12.33-22.12c3.67-5.05,4.56-6.13,5.23-5.92
		c1.18,0.35,7.81-0.17,8.54-1.2c0.11-0.51-0.05-0.67-0.59-1.13c-0.44-0.38-0.99-0.84-1.15-1.64l0,0c-0.22-1.1,0.69-1.91,1.49-2.63
		c0.33-0.3,1.02-0.91,1.04-1.16c-0.01-0.03-0.02-0.05-0.02-0.05c-0.08-0.04-0.48-0.04-0.71-0.04c-0.73,0-1.74-0.01-2.5-0.81
		c-0.78-0.82-0.55-1.96-0.37-2.88c0.27-1.37,0.16-1.49-0.21-1.62c-0.52-0.19-0.95,0.15-1.87,1.2c-0.73,0.83-1.57,1.78-2.77,1.63
		c-0.98-0.12-1.47-0.91-1.82-1.48c-0.48-0.76-0.63-0.96-1.3-0.78c-0.4,0.1-0.53,0.27-0.42,1.72c0.07,0.95,0.17,2.26-0.92,2.84
		c-0.68,0.36-1.37,0.05-1.98-0.22C62.37,14.45,62.06,14.34,61.85,14.34z M76.97,21.7L76.97,21.7L76.97,21.7z"/>
	<path d="M66.4,42.79c0.77-0.98,1.52-1.93,2.25-2.85c0.18-0.23,0.36-0.45,0.54-0.67c0.33-0.4,0.27-0.99-0.12-1.33
		c-0.75-0.64-1.79-1.71-2.48-3.16c-0.52-1.08-1.16-2.42-1.12-2.8c0.03-0.02,0.1-0.07,0.25-0.14c0.18-0.08,0.36,0,0.89,0.41
		c0.46,0.35,1.15,0.88,1.96,0.52c1.08-0.48,1.15-1.76,1.22-2.89c0.08-1.43,0.22-2.1,0.77-2.24c0.52-0.13,0.57-0.13,0.92,0.71
		c0.26,0.62,0.66,1.56,1.74,1.71c1.05,0.15,1.8-0.7,2.46-1.45c0.96-1.09,1.31-1.3,1.74-1.07c0.34,0.18,0.45,0.24-0.06,1.48
		c-0.35,0.86-0.83,2.03,0.04,2.95c0.86,0.91,1.96,0.69,2.61,0.56c0.08-0.01,0.17-0.03,0.26-0.05c-0.21,0.34-0.85,0.89-1.22,1.21
		c-0.96,0.83-1.96,1.68-1.73,2.79h0c0.22,1.08,1.32,1.39,2.21,1.65c0.35,0.1,1,0.29,1.1,0.41c0,0,0,0.02-0.01,0.07
		c-0.73,1.03-7.36,1.54-8.54,1.2c-0.17-0.05-0.35-0.12-0.53-0.21c-0.43-0.2-0.93-0.05-1.19,0.34c-1.46,2.19-2.72,4.19-3.56,5.52
		c-0.34,0.53-0.6,0.96-0.79,1.24c-0.83,1.28-4.2,6.64-8.1,12.86c-5.41,8.6-12.14,19.31-13.16,20.83c-0.51,0.76-0.96,1.5-1.36,2.22
		c1.53-1.15,3.09-2.42,4.63-3.76c2.52-3.96,7.23-11.46,11.51-18.27c3.9-6.21,7.27-11.57,8.09-12.83c0.19-0.29,0.46-0.72,0.8-1.26
		c0.75-1.19,1.84-2.93,3.11-4.84c1.29,0.38,7.46,0.14,9.76-1.17c0.66-0.37,1.05-0.84,1.19-1.39c0.47-1.96-1.48-2.52-2.42-2.79
		c-0.21-0.06-0.52-0.15-0.73-0.24c0.23-0.27,0.68-0.65,0.97-0.91c1.02-0.88,2.3-1.97,1.88-3.33c-0.48-1.57-1.92-1.28-2.53-1.16
		c-0.52,0.1-0.71,0.11-0.82,0.03c0.01-0.19,0.19-0.65,0.31-0.93c0.38-0.92,1.17-2.84-0.8-3.9c-1.88-1.01-3.26,0.55-4.09,1.48
		c-0.23,0.26-0.55,0.63-0.75,0.77c-0.08-0.13-0.17-0.35-0.24-0.51c-0.33-0.77-1.01-2.39-3.17-1.83c-2,0.52-2.12,2.6-2.2,3.98
		c-0.02,0.29-0.04,0.68-0.08,0.97c0,0-0.01-0.01-0.01-0.01c-0.55-0.42-1.57-1.21-2.84-0.64c-0.24,0.11-0.98,0.44-1.26,1.21
		c-0.38,1.02,0.18,2.19,1.19,4.3c0.64,1.33,1.51,2.4,2.28,3.16c-0.73,0.92-1.47,1.87-2.24,2.84c-3.79,4.82-8.08,10.29-13.12,15.63
		c-2.06,2.19-4.75,5.12-7.47,8.14c-1.67,2.97-3.11,5.51-4.34,7.76c4.11-4.68,9.46-10.61,13.2-14.58
		C58.26,53.14,62.58,47.64,66.4,42.79z"/>
	<path class="st1" d="M35.39,89.6c2,1.76,5.33,2.76,8.42,2.12c6.9-1.43,12.23-7.87,15.78-12.39c4.99-6.32,15.41-20.76,16.09-21.68
		c4.53-6.19,10.98-16.65,12.54-18.88c0.15-0.21,0.95-1.09,1.21-1.13c0.26-0.04,2.17,0.61,2.42,0.67c4.02,0.97,5.58,1.06,6.65,0.39
		c1.36-0.86,2.36-1.19,1.81-1.45c-1.07-0.5-0.85-0.94-1.92-0.52c-0.86,0.33-1.58,0.01-1.61-1.09c-0.02-1.13,1.11-2.35,2.36-2.55
		c1.11-0.18,1.9-1.32,1.82-1.32c-0.67,0.01-2.6,0.49-3.29-0.56c-0.69-1.06,0.23-1.93,0.75-2.75c0.21-0.33,0.98-1.93,0.2-1.93
		c-0.73,0-1.49,0.52-2.61,1.23c-0.96,0.61-1.87,1.19-2.82,0.88c-1.2-0.4-1.18-1.63-1.16-2.3c0-0.18,0.01-0.47-0.02-0.62
		c-0.05-0.01-0.15-0.02-0.29-0.01c-1.21,0.09-1.98,2.66-2.16,3.9c-0.06,0.39-0.34,0.7-0.72,0.79c-0.38,0.09-0.78-0.05-1-0.37
		c-0.28-0.38-1.09-1.19-1.63-1.06c-0.16,0.04-0.24,0.07-0.27,0.09c-0.1,0.37,0.29,1.8,0.6,2.96c0.47,1.73,1.43,3.07,2.15,3.89
		c0.32,0.37,0.32-0.16-0.01,0.2c-1.91,2.12-15.63,19.25-23.91,28.85C59.76,70.79,44.65,85.99,35.39,89.6z M99.66,38.31L99.66,38.31
		L99.66,38.31z"/>
	<path d="M41.93,92.58c-4.96,0-8.71-3.82-8.86-3.99c-0.24-0.25-0.33-0.6-0.23-0.93c0.1-0.33,0.36-0.58,0.69-0.66
		c7.66-1.86,22.02-15.91,29.28-24.33c8.27-9.59,14.63-17.14,17.68-20.78c0.87-1.04,3.74-4.24,5.7-6.41
		c-0.75-0.97-1.57-2.33-2.01-3.99c-0.61-2.26-0.95-3.51-0.39-4.45c0.42-0.71,1.2-0.9,1.46-0.96c0.89-0.22,1.69,0.09,2.31,0.51
		c0.49-1.58,1.52-3.67,3.52-3.82c0.76-0.05,1.35,0.12,1.77,0.51c0.63,0.6,0.61,1.45,0.59,2.07c0,0.11-0.01,0.25,0,0.37
		c0.28-0.12,0.72-0.4,1.04-0.6c1.22-0.78,2.9-1.85,4.59-0.86c0.57,0.33,0.93,0.78,1.06,1.32c0.24,0.96-0.32,1.84-0.8,2.61
		c-0.19,0.29-0.49,0.78-0.53,0.99c0.1,0.1,0.28,0.12,0.81,0.12c0.62-0.01,2.08-0.03,2.28,1.6l0,0c0.17,1.41-1.28,2.26-2.45,2.94
		c-0.34,0.2-0.85,0.49-1.12,0.72c0.19,0.12,0.48,0.27,0.68,0.36c0.87,0.44,2.69,1.34,1.88,3.18c-0.23,0.52-0.7,0.9-1.42,1.15
		c-2.52,0.87-8.69-0.01-9.84-0.62c-0.02-0.01-0.05-0.03-0.07-0.04c-1.57,2.28-3.87,5.72-6.1,9.06c-3.07,4.59-5.96,8.93-7.2,10.61
		c-0.68,0.92-1.43,1.94-2.24,3.04c-3.77,5.13-8.93,12.15-13.94,18.5C56.28,84.55,48.91,92.57,41.93,92.58
		C41.93,92.58,41.93,92.58,41.93,92.58z M35.68,88.31c1.34,1,3.63,2.35,6.25,2.35c0,0,0,0,0,0c6.17,0,13.07-7.57,16.63-12.08
		c4.99-6.32,10.14-13.33,13.9-18.44c0.81-1.1,1.56-2.12,2.24-3.04c1.21-1.64,4.23-6.16,7.15-10.53c2.5-3.75,5.09-7.62,6.65-9.85
		c0.15-0.21,0.38-0.36,0.63-0.4c0.26-0.04,0.52,0.02,0.73,0.18c0.22,0.17,0.45,0.31,0.66,0.42c1.1,0.56,7.71,1.24,8.61,0.36
		c0.02-0.04,0.02-0.06,0.02-0.06c-0.08-0.14-0.68-0.44-1.01-0.6c-0.82-0.41-1.85-0.92-1.87-2.02c-0.02-1.13,1.11-1.79,2.2-2.43
		c0.42-0.25,1.15-0.67,1.42-0.97c-0.09,0-0.18,0-0.26,0c-0.67,0.01-1.78,0.02-2.47-1.02c-0.69-1.06,0.02-2.19,0.54-3.02
		c0.21-0.33,0.59-0.94,0.56-1.14c0,0-0.05-0.05-0.17-0.12c-0.63-0.37-1.47,0.11-2.59,0.82c-0.96,0.61-1.87,1.19-2.82,0.88
		c-1.2-0.4-1.18-1.63-1.16-2.3c0-0.18,0.01-0.47-0.02-0.62c-0.05-0.01-0.15-0.02-0.29-0.01c-1.21,0.09-1.98,2.66-2.16,3.9
		c-0.06,0.39-0.34,0.7-0.72,0.79c-0.38,0.09-0.78-0.05-1-0.37c-0.28-0.38-1.09-1.19-1.63-1.06c-0.16,0.04-0.24,0.07-0.27,0.09
		c-0.1,0.37,0.29,1.8,0.6,2.96c0.47,1.73,1.43,3.07,2.15,3.89c0.32,0.37,0.32,0.91-0.01,1.27c-1.91,2.12-5.27,5.85-6.2,6.97
		c-3.06,3.65-9.43,11.2-17.7,20.8C59.24,69.73,44.94,84.7,35.68,88.31z M99.14,37.26L99.14,37.26L99.14,37.26z"/>
	<path d="M72.88,17.73c-0.18-0.04-0.36-0.13-0.5-0.27c-0.56-0.56-0.59-1.26-0.55-1.79c-0.46,0.21-1.09,0.4-1.85,0.26
		c-0.53-0.1-0.87-0.59-0.77-1.11c0.09-0.52,0.59-0.87,1.11-0.77c0.35,0.06,0.63-0.06,1.04-0.28c0.44-0.22,1.1-0.57,1.78-0.14
		c0.81,0.5,0.69,1.42,0.63,1.92c-0.02,0.18-0.06,0.48-0.02,0.57c0.37,0.37,0.37,0.97-0.01,1.35C73.51,17.71,73.18,17.79,72.88,17.73
		z"/>
	<path d="M75.46,34.95c-0.19,0-0.39-0.06-0.56-0.18c-0.73-0.53-0.67-1.4-0.6-2.02C73.84,33,73.2,33.28,72.47,33
		c-0.49-0.19-0.74-0.75-0.55-1.24c0.18-0.47,0.7-0.72,1.18-0.57c0.1-0.03,0.29-0.14,0.41-0.21c0.45-0.26,1.2-0.68,1.99-0.25
		c0.91,0.49,0.78,1.52,0.71,2.13c-0.02,0.14-0.04,0.36-0.04,0.49c0.29,0.33,0.33,0.83,0.06,1.2C76.05,34.81,75.76,34.95,75.46,34.95
		z"/>
	<path d="M95.06,33.1c-0.21,0-0.43-0.07-0.61-0.22c-0.7-0.57-0.58-1.44-0.47-2.06c-0.48,0.23-1.13,0.47-1.84,0.15
		c-0.48-0.22-0.69-0.79-0.47-1.27c0.21-0.46,0.75-0.68,1.21-0.49c0.1-0.02,0.3-0.12,0.42-0.18c0.46-0.23,1.24-0.61,2-0.13
		c0.88,0.54,0.69,1.56,0.58,2.17c-0.03,0.14-0.06,0.35-0.07,0.48c0.27,0.34,0.28,0.85-0.01,1.2C95.61,32.98,95.33,33.1,95.06,33.1z"
		/>
	<path d="M32.17,77.89c-0.1,0-0.2-0.02-0.3-0.05c-0.5-0.16-0.78-0.7-0.61-1.21c0.13-0.39,3.18-9.7,7.16-15.18
		c0.31-0.43,0.91-0.52,1.34-0.21c0.43,0.31,0.52,0.91,0.21,1.34c-3.8,5.24-6.86,14.55-6.89,14.65
		C32.94,77.63,32.57,77.89,32.17,77.89z"/>
	<path d="M43.22,87.9c-0.31,0-0.61-0.15-0.8-0.43c-0.29-0.44-0.17-1.03,0.27-1.33c0.08-0.05,8.18-5.48,12.26-10.45
		c0.34-0.41,0.94-0.47,1.35-0.13c0.41,0.34,0.47,0.94,0.13,1.35c-4.27,5.2-12.34,10.6-12.68,10.83C43.59,87.85,43.4,87.9,43.22,87.9
		z"/>
	<path d="M43.69,73.32c-0.23,0-0.46-0.08-0.64-0.25c-0.39-0.35-0.42-0.96-0.07-1.35l8.13-9.01c0.35-0.39,0.96-0.42,1.35-0.07
		c0.39,0.35,0.42,0.96,0.07,1.35l-8.13,9.01C44.21,73.22,43.95,73.32,43.69,73.32z"/>
</g>
</svg>
