<?xml version="1.0" encoding="utf-8"?>
<!-- Generator: Adobe Illustrator 16.0.0, SVG Export Plug-In . SVG Version: 6.00 Build 0)  -->
<!DOCTYPE svg PUBLIC "-//W3C//DTD SVG 1.1//EN" "http://www.w3.org/Graphics/SVG/1.1/DTD/svg11.dtd">
<svg version="1.1" id="Layer_1" xmlns="http://www.w3.org/2000/svg" xmlns:xlink="http://www.w3.org/1999/xlink" x="0px" y="0px"
	 width="100px" height="100px" viewBox="0 0 100 100" enable-background="new 0 0 100 100" xml:space="preserve">
<g id="Milch">
	<path fill="#70BBF4" d="M15.62,94.694l42.476,4.045l0.413-71.277l-43.435-0.568L15.62,94.694z"/>
	<polygon fill="#DCF3FF" points="58.868,75.021 15.443,72.718 16.501,48.517 59.477,50.173 	"/>
	<polygon fill="#FFFFFF" points="58.554,26.313 15.073,26.11 14.497,93.837 18.504,94.745 18.504,29.401 58.461,30.319 	"/>
	<path d="M59.063,100.001c-0.035,0-0.071-0.002-0.106-0.006l-43.783-3.826c-0.63-0.055-1.113-0.582-1.113-1.215V26.103
		c0-0.328,0.133-0.642,0.367-0.872c0.235-0.229,0.543-0.352,0.88-0.346l43.783,1.005c0.662,0.016,1.191,0.557,1.191,1.219V98.78
		c0,0.342-0.144,0.668-0.396,0.898C59.662,99.886,59.367,100.001,59.063,100.001z M16.501,93.837l41.343,3.613V28.302l-41.343-0.951
		V93.837z"/>
	<path d="M59.064,51.585c-0.014,0-0.029,0-0.043,0l-43.783-1.523c-0.673-0.023-1.2-0.59-1.176-1.262
		c0.023-0.674,0.58-1.197,1.261-1.178l43.782,1.525c0.673,0.023,1.2,0.588,1.176,1.26C60.26,51.067,59.718,51.585,59.064,51.585z"/>
	<path d="M59.064,76.157c-0.019,0-0.038,0-0.058-0.002l-43.783-2.041c-0.672-0.031-1.192-0.602-1.161-1.275
		c0.031-0.672,0.595-1.197,1.275-1.16l43.783,2.041c0.672,0.031,1.192,0.602,1.161,1.275C60.251,75.649,59.712,76.157,59.064,76.157
		z"/>
	<path fill="#70BBF4" d="M59.477,27.351v71.893L85.324,94.3V26.11L59.477,27.351z"/>
	<polygon fill="#FFFFFF" points="62.287,98.315 58.279,98.315 58.279,26.37 84.602,24.818 84.837,28.819 62.287,30.147 	"/>
	<path fill="#83CFFC" d="M16.165,26.366l42.915,0.984L70.769,9.434l-42.563,0.725L16.165,26.366z"/>
	<polygon fill="#83CFFC" points="71.03,9.051 59.477,26.894 85.324,25.692 	"/>
	<polygon fill="#FFFFFF" points="62.102,27.351 60.186,24.953 69.809,10.201 72.74,11.041 	"/>
	<polygon fill="#FFFFFF" points="70.08,8.418 27.916,8.418 15.309,24.885 18.733,26.819 29.235,12.162 68.666,12.162 	"/>
	<path d="M59.063,100.001c-0.281,0-0.557-0.098-0.777-0.281c-0.28-0.23-0.442-0.576-0.442-0.939V27.108
		c0-0.645,0.503-1.18,1.148-1.217l25.655-1.509c0.338-0.023,0.664,0.1,0.908,0.33s0.383,0.551,0.383,0.887v68.272
		c0,0.586-0.416,1.088-0.99,1.197l-25.655,4.908C59.216,99.993,59.14,100.001,59.063,100.001z M60.283,28.259v69.047L83.5,92.864
		V26.894L60.283,28.259z"/>
	<path d="M59.063,28.329c-0.009,0-0.019,0-0.028,0l-43.783-1.006c-0.452-0.012-0.861-0.271-1.063-0.676
		c-0.202-0.404-0.163-0.887,0.1-1.255L26.588,8.229c0.229-0.32,0.598-0.51,0.991-0.51h43.338c0.447,0,0.859,0.244,1.072,0.639
		c0.213,0.393,0.193,0.873-0.051,1.246L60.085,27.774C59.859,28.12,59.475,28.329,59.063,28.329z M17.617,24.938l40.796,0.937
		l10.252-15.716L29.274,8.666L17.617,24.938z"/>
	<path d="M84.72,26.819c-0.351,0-0.698-0.15-0.94-0.441L69.978,9.717c-0.43-0.52-0.357-1.289,0.161-1.719
		c0.519-0.43,1.288-0.357,1.717,0.162l13.802,16.662c0.43,0.52,0.358,1.288-0.161,1.718C85.27,26.728,84.994,26.819,84.72,26.819z"
		/>
	<path fill="#83CFFC" d="M27.916,8.666L71.03,9.051l-0.489-7.668H28.206L27.916,8.666z"/>
	<polygon fill="#FFFFFF" points="30.803,8.674 27.916,8.666 27.916,0.734 70.608,0.436 70.608,4.443 30.803,4.443 	"/>
	<path d="M70.917,10.158H27.58c-0.673,0-1.219-0.547-1.219-1.221V1.219C26.36,0.545,26.906,0,27.58,0h43.338
		c0.673,0,1.219,0.545,1.219,1.219v7.719C72.137,9.611,71.591,10.158,70.917,10.158z M28.799,7.719h40.898V2.439H28.799V7.719z"/>
	<path d="M21.452,44.511c-0.673,0-1.219-0.547-1.219-1.221V32.315c0-0.674,0.546-1.219,1.219-1.219c0.674,0,1.22,0.545,1.22,1.219
		V43.29C22.671,43.964,22.125,44.511,21.452,44.511z"/>
	<path d="M21.452,91.149c-0.673,0-1.219-0.547-1.219-1.219V78.954c0-0.674,0.546-1.219,1.219-1.219c0.674,0,1.22,0.545,1.22,1.219
		v10.977C22.671,90.603,22.125,91.149,21.452,91.149z"/>
</g>
</svg>
