<?xml version="1.0" encoding="utf-8"?>
<!-- Generator: Adobe Illustrator 27.6.1, SVG Export Plug-In . SVG Version: 6.00 Build 0)  -->
<svg version="1.1" id="Ebene_1" xmlns="http://www.w3.org/2000/svg" xmlns:xlink="http://www.w3.org/1999/xlink" x="0px" y="0px"
	 viewBox="0 0 128 128" style="enable-background:new 0 0 128 128;" xml:space="preserve">
<style type="text/css">
	.st0{fill:#70BBF4;}
	.st1{fill:#DCF3FF;}
	.st2{fill:#FFFFFF;}
	.st3{fill:#83CFFC;}
</style>
<g>
	<path d="M51.58,115.74v-7.6h2.62c0.59,0,1.04,0.04,1.35,0.11c0.44,0.1,0.81,0.28,1.11,0.54c0.4,0.34,0.7,0.77,0.9,1.3
		c0.2,0.53,0.3,1.13,0.3,1.81c0,0.58-0.07,1.09-0.2,1.53c-0.13,0.45-0.31,0.81-0.52,1.11s-0.44,0.52-0.69,0.69
		c-0.25,0.17-0.55,0.29-0.91,0.38c-0.35,0.09-0.76,0.13-1.22,0.13H51.58z M52.58,114.84h1.62c0.5,0,0.89-0.05,1.18-0.14
		c0.29-0.09,0.51-0.22,0.68-0.39c0.24-0.24,0.42-0.56,0.56-0.96c0.13-0.4,0.2-0.89,0.2-1.46c0-0.79-0.13-1.41-0.39-1.83
		c-0.26-0.43-0.58-0.71-0.95-0.86c-0.27-0.1-0.7-0.16-1.3-0.16h-1.6V114.84z"/>
	<path d="M62.72,115.06c-0.35,0.29-0.68,0.5-1,0.62c-0.32,0.12-0.66,0.18-1.03,0.18c-0.6,0-1.07-0.15-1.39-0.44
		c-0.32-0.3-0.49-0.67-0.49-1.13c0-0.27,0.06-0.52,0.18-0.74c0.12-0.22,0.28-0.4,0.48-0.54c0.2-0.13,0.42-0.24,0.67-0.31
		c0.18-0.05,0.46-0.1,0.83-0.14c0.75-0.09,1.31-0.2,1.66-0.32c0-0.13,0.01-0.21,0.01-0.24c0-0.38-0.09-0.65-0.26-0.8
		c-0.24-0.21-0.59-0.32-1.06-0.32c-0.44,0-0.76,0.08-0.97,0.23c-0.21,0.15-0.36,0.43-0.46,0.82l-0.91-0.12
		c0.08-0.39,0.22-0.71,0.41-0.95c0.19-0.24,0.46-0.43,0.82-0.55c0.36-0.13,0.78-0.19,1.25-0.19c0.47,0,0.85,0.06,1.15,0.17
		c0.29,0.11,0.51,0.25,0.65,0.42c0.14,0.17,0.23,0.38,0.29,0.64c0.03,0.16,0.05,0.45,0.05,0.86v1.24c0,0.87,0.02,1.42,0.06,1.65
		c0.04,0.23,0.12,0.45,0.24,0.66h-0.97C62.81,115.55,62.75,115.32,62.72,115.06z M62.64,112.98c-0.34,0.14-0.85,0.26-1.52,0.35
		c-0.38,0.06-0.65,0.12-0.81,0.19c-0.16,0.07-0.28,0.17-0.37,0.3c-0.09,0.13-0.13,0.28-0.13,0.44c0,0.25,0.09,0.46,0.28,0.62
		c0.19,0.17,0.46,0.25,0.83,0.25c0.36,0,0.68-0.08,0.96-0.24c0.28-0.16,0.49-0.37,0.62-0.65c0.1-0.21,0.15-0.52,0.15-0.93V112.98z"
		/>
	<path d="M65.04,109.21v-1.07h0.93v1.07H65.04z M65.04,115.74v-5.51h0.93v5.51H65.04z"/>
	<path d="M67.38,115.74v-5.51h0.84v0.83c0.21-0.39,0.41-0.65,0.59-0.77c0.18-0.12,0.38-0.19,0.6-0.19c0.31,0,0.63,0.1,0.96,0.3
		l-0.32,0.87c-0.23-0.13-0.46-0.2-0.68-0.2c-0.2,0-0.39,0.06-0.55,0.18c-0.16,0.12-0.28,0.29-0.35,0.51
		c-0.1,0.33-0.16,0.69-0.16,1.09v2.88H67.38z"/>
	<path d="M70.88,117.86l-0.1-0.88c0.2,0.06,0.38,0.08,0.53,0.08c0.21,0,0.37-0.03,0.5-0.1c0.12-0.07,0.23-0.17,0.31-0.29
		c0.06-0.09,0.15-0.32,0.29-0.69c0.02-0.05,0.04-0.13,0.08-0.23l-2.09-5.52h1.01l1.15,3.19c0.15,0.4,0.28,0.83,0.4,1.28
		c0.11-0.43,0.23-0.85,0.38-1.25l1.18-3.21h0.93l-2.09,5.6c-0.22,0.6-0.4,1.02-0.52,1.25c-0.17,0.31-0.36,0.53-0.57,0.68
		c-0.21,0.14-0.47,0.22-0.77,0.22C71.31,117.98,71.11,117.94,70.88,117.86z"/>
</g>
<g>
	<path class="st0" d="M36.24,85.01l33.7,3.21l0.33-56.54L35.8,31.22L36.24,85.01z"/>
	<polygon class="st1" points="70.54,69.4 36.1,67.57 36.93,48.37 71.03,49.69 	"/>
	<polygon class="st2" points="70.3,30.76 35.8,30.6 35.35,84.33 38.52,85.05 38.52,33.21 70.22,33.94 	"/>
	<path d="M70.7,89.22c-0.03,0-0.06,0-0.08,0l-34.73-3.04c-0.5-0.04-0.88-0.46-0.88-0.96V30.59c0-0.26,0.11-0.51,0.29-0.69
		c0.19-0.18,0.43-0.28,0.7-0.28l34.73,0.8c0.53,0.01,0.95,0.44,0.95,0.97v56.86c0,0.27-0.11,0.53-0.31,0.71
		C71.17,89.13,70.94,89.22,70.7,89.22z M36.93,84.33l32.8,2.87V32.34l-32.8-0.75V84.33z"/>
	<path d="M70.7,50.81c-0.01,0-0.02,0-0.03,0L35.93,49.6c-0.53-0.02-0.95-0.47-0.93-1c0.02-0.53,0.46-0.95,1-0.93l34.73,1.21
		c0.53,0.02,0.95,0.47,0.93,1C71.65,50.4,71.22,50.81,70.7,50.81z"/>
	<path d="M70.7,70.3c-0.02,0-0.03,0-0.05,0l-34.73-1.62c-0.53-0.02-0.95-0.48-0.92-1.01c0.02-0.53,0.47-0.95,1.01-0.92l34.73,1.62
		c0.53,0.02,0.95,0.48,0.92,1.01C71.64,69.9,71.21,70.3,70.7,70.3z"/>
	<path class="st0" d="M71.03,31.58v57.03l20.5-3.92V30.6L71.03,31.58z"/>
	<polygon class="st2" points="73.26,87.88 70.08,87.88 70.08,30.81 90.96,29.58 91.15,32.75 73.26,33.8 	"/>
	<path class="st3" d="M36.67,30.8l34.04,0.78l9.27-14.21l-33.76,0.57L36.67,30.8z"/>
	<polygon class="st3" points="80.19,17.07 71.03,31.22 91.53,30.27 	"/>
	<polygon class="st2" points="73.11,31.58 71.59,29.68 79.22,17.98 81.55,18.65 	"/>
	<polygon class="st2" points="79.44,16.56 45.99,16.56 35.99,29.63 38.71,31.16 47.04,19.53 78.32,19.53 	"/>
	<path d="M70.7,89.22c-0.22,0-0.44-0.08-0.62-0.22c-0.22-0.18-0.35-0.46-0.35-0.75V31.39c0-0.51,0.4-0.94,0.91-0.97L91,29.23
		c0.27-0.02,0.53,0.08,0.72,0.26c0.19,0.18,0.3,0.44,0.3,0.7v54.16c0,0.46-0.33,0.86-0.79,0.95L70.88,89.2
		C70.82,89.21,70.76,89.22,70.7,89.22z M71.67,32.3v54.77l18.42-3.52V31.22L71.67,32.3z"/>
	<path d="M70.7,32.36c-0.01,0-0.01,0-0.02,0l-34.73-0.8c-0.36-0.01-0.68-0.21-0.84-0.54c-0.16-0.32-0.13-0.7,0.08-1l9.76-13.62
		c0.18-0.25,0.47-0.4,0.79-0.4H80.1c0.36,0,0.68,0.19,0.85,0.51c0.17,0.31,0.15,0.69-0.04,0.99l-9.4,14.42
		C71.33,32.19,71.03,32.36,70.7,32.36z M37.82,29.67l32.36,0.74l8.13-12.47l-31.25-1.18L37.82,29.67z"/>
	<path d="M91.05,31.16c-0.28,0-0.55-0.12-0.75-0.35L79.36,17.59c-0.34-0.41-0.28-1.02,0.13-1.36c0.41-0.34,1.02-0.28,1.36,0.13
		L91.8,29.58c0.34,0.41,0.28,1.02-0.13,1.36C91.49,31.09,91.27,31.16,91.05,31.16z"/>
	<path class="st3" d="M45.99,16.76l34.2,0.3l-0.39-6.08H46.22L45.99,16.76z"/>
	<polygon class="st2" points="48.28,16.77 45.99,16.76 45.99,10.47 79.86,10.23 79.86,13.41 48.28,13.41 	"/>
	<path d="M80.1,17.94H45.72c-0.53,0-0.97-0.43-0.97-0.97v-6.12c0-0.53,0.43-0.97,0.97-0.97H80.1c0.53,0,0.97,0.43,0.97,0.97v6.12
		C81.07,17.51,80.64,17.94,80.1,17.94z M46.69,16.01h32.44v-4.19H46.69V16.01z"/>
	<path d="M40.86,45.2c-0.53,0-0.97-0.43-0.97-0.97v-8.71c0-0.53,0.43-0.97,0.97-0.97s0.97,0.43,0.97,0.97v8.71
		C41.83,44.76,41.4,45.2,40.86,45.2z"/>
	<path d="M40.86,82.19c-0.53,0-0.97-0.43-0.97-0.97v-8.71c0-0.53,0.43-0.97,0.97-0.97s0.97,0.43,0.97,0.97v8.71
		C41.83,81.76,41.4,82.19,40.86,82.19z"/>
</g>
</svg>
