<?xml version="1.0" encoding="utf-8"?>
<!-- Generator: Adobe Illustrator 16.0.0, SVG Export Plug-In . SVG Version: 6.00 Build 0)  -->
<!DOCTYPE svg PUBLIC "-//W3C//DTD SVG 1.1//EN" "http://www.w3.org/Graphics/SVG/1.1/DTD/svg11.dtd">
<svg version="1.1" id="Layer_1" xmlns="http://www.w3.org/2000/svg" xmlns:xlink="http://www.w3.org/1999/xlink" x="0px" y="0px"
	 width="100px" height="100px" viewBox="0 0 100 100" enable-background="new 0 0 100 100" xml:space="preserve">
<g>
	<path fill="#E7A575" d="M50.529,27.142c0,0-11.684-17.633-24.075-16.454S2.276,29.938,0.967,49.841
		c-1.309,19.904,9.035,39.415,30.118,40.855c0,0,11.769-0.313,18.912-6.709c0,0-8.835-8.76-9.614-21.575
		C39.695,51.121,42.458,38.743,50.529,27.142z"/>
	<g>
		<g>
			<path fill="#FFFFFF" d="M37.035,14.479c-2.023-1.123-4.238-1.894-6.473-2.213c-1.113-0.164-2.238-0.205-3.354-0.12
				c-1.116,0.089-2.222,0.308-3.302,0.633c-2.137,0.668-4.057,1.864-5.76,3.341c-1.703,1.479-3.199,3.224-4.5,5.114
				c-2.623,3.779-4.532,8.076-5.995,12.496c-0.731,2.215-1.306,4.481-1.805,6.763c-0.492,2.283-0.858,4.595-1.103,6.917
				c-0.121,1.154-0.211,2.34-0.271,3.473c-0.055,1.143-0.059,2.288-0.012,3.433c0.094,2.289,0.392,4.572,0.882,6.816
				c0.487,2.244,1.144,4.457,1.995,6.597c0.846,2.141,1.883,4.206,3.063,6.184c1.188,1.975,2.549,3.846,4.076,5.568
				c1.516,1.732,3.201,3.318,5.039,4.698c3.658,2.782,7.982,4.711,12.588,5.32l-0.138,1.723c-1.245-0.046-2.491-0.186-3.724-0.416
				c-1.229-0.239-2.444-0.562-3.629-0.975c-2.37-0.829-4.625-1.98-6.713-3.374c-2.08-1.405-3.999-3.04-5.741-4.841
				c-1.733-1.81-3.282-3.792-4.649-5.889C6.137,73.631,4.976,71.4,4,69.093c-0.971-2.309-1.76-4.699-2.318-7.147
				c-0.555-2.448-0.9-4.947-1.023-7.46c-0.063-1.257-0.067-2.517-0.016-3.776c0.051-1.268,0.17-2.478,0.303-3.713
				c0.551-4.913,1.607-9.769,3.262-14.438c0.821-2.335,1.775-4.631,2.921-6.84c1.144-2.208,2.44-4.353,3.968-6.35
				c1.534-1.986,3.275-3.851,5.308-5.404c1.018-0.772,2.103-1.468,3.257-2.045c1.144-0.589,2.388-1.02,3.625-1.338
				c1.23-0.331,2.504-0.544,3.787-0.608c1.283-0.063,2.574,0.028,3.831,0.262c2.524,0.457,4.864,1.504,6.989,2.786L37.035,14.479z"
				/>
		</g>
	</g>
	<path d="M9.377,54.554c-0.671,0-1.225-0.533-1.244-1.208c-0.885-29.433,15.85-37.331,16.563-37.652
		c0.626-0.283,1.364-0.003,1.647,0.623c0.282,0.626,0.005,1.362-0.62,1.646c-0.07,0.033-4.041,1.908-7.854,7.127
		c-3.547,4.855-7.683,13.685-7.246,28.181c0.02,0.688-0.521,1.262-1.208,1.283C9.402,54.554,9.39,54.554,9.377,54.554z"/>
	<path d="M49.109,82.493c-3.83,3.343-8.473,5.422-13.709,6.096c-7.658,0.986-14.844-1.249-20.785-6.463
		C7.05,75.488,2.518,64.875,2.49,53.736C2.441,33.071,13.383,12.837,25.446,11.284c0.52-0.067,1.046-0.1,1.578-0.1
		c7.534,0,16.195,6.594,22.772,16.33c0.486-0.724,0.989-1.433,1.51-2.122c-1.5-2.149-3.112-4.175-4.818-6.03
		C39.438,11.694,31.854,7.948,25.129,8.813c-6.725,0.866-13.113,6.411-17.992,15.615c-4.56,8.6-7.16,19.285-7.137,29.313
		c0.027,11.843,4.878,23.154,12.973,30.257c5.494,4.82,11.969,7.311,18.907,7.311c1.265,0,2.546-0.083,3.838-0.249
		c5.87-0.755,11.054-3.123,15.298-6.927C50.342,83.613,49.707,83.066,49.109,82.493z"/>
	<path fill="#FFFFFF" d="M71.576,14.755c-15.862,0-27.36,20.69-29.412,36.009c-0.905,6.755-1.383,19.423,5.576,28.363
		c4.123,5.296,10.283,8.45,18.31,9.374c7.941,0.914,15.169-1.901,20.896-8.145c8.428-9.186,12.412-24.942,9.689-38.315
		c-4.241-20.837-11.219-25.608-22.611-27.123l0,0C73.196,14.809,72.381,14.755,71.576,14.755z"/>
	<path fill="#FFF7EB" d="M73.049,16.094c-15.861,0-27.359,20.69-29.412,36.009c-0.904,6.755-1.383,19.424,5.577,28.364
		c4.123,5.296,10.283,8.45,18.31,9.375c7.941,0.913,15.168-1.902,20.896-8.146c8.427-9.186,12.411-24.942,9.688-38.315
		c-4.24-20.837-11.219-25.608-22.611-27.124l0,0C74.67,16.147,73.854,16.094,73.049,16.094z"/>
	<path fill="#FFFFFF" d="M66.814,35.069c-12.462,0-16.961,9.146-18.503,17.224c-1.298,6.79-0.425,12.355,2.593,16.542
		c4.441,6.163,12.25,7.642,14.537,7.948c3.199,0.429,19.316,1.755,22.336-14.276c1.574-8.353,0.56-15.265-2.932-19.989
		c-2.99-4.044-7.643-6.446-13.832-7.14c-0.117-0.013-0.266-0.032-0.441-0.055C69.246,35.151,67.994,35.069,66.814,35.069z"/>
	<path fill="#FFB052" d="M68.677,36.209c-12.462,0-16.961,9.146-18.504,17.225c-1.297,6.79-0.425,12.355,2.593,16.542
		c4.442,6.163,12.25,7.641,14.538,7.947c3.198,0.429,19.316,1.755,22.336-14.276c1.573-8.353,0.56-15.265-2.933-19.988
		c-2.989-4.044-7.643-6.446-13.831-7.14c-0.118-0.013-0.267-0.032-0.442-0.055C71.107,36.292,69.856,36.209,68.677,36.209z"/>
	<path d="M68.981,91.164c-1.06,0-2.132-0.062-3.216-0.187c-8.715-1.003-15.441-4.475-19.99-10.318
		c-7.52-9.658-7.037-23.083-6.08-30.225c1.188-8.869,5.307-18.819,10.747-25.967c4.792-6.296,12.833-13.491,23.909-12.018
		c12.238,1.628,20.209,6.91,24.725,29.095c2.916,14.331-1.221,30.604-10.295,40.497C83.271,88.047,76.478,91.164,68.981,91.164z
		 M71.576,14.755c-15.862,0-27.36,20.69-29.412,36.009c-0.905,6.755-1.383,19.423,5.576,28.363c4.123,5.296,10.283,8.45,18.31,9.374
		c7.941,0.914,15.169-1.901,20.896-8.145c8.428-9.186,12.412-24.942,9.689-38.315c-4.241-20.837-11.219-25.608-22.611-27.123l0,0
		C73.196,14.809,72.381,14.755,71.576,14.755z"/>
	<path d="M68.634,79.462c-1.759,0-3.045-0.146-3.522-0.21c-2.537-0.339-11.204-1.99-16.228-8.96
		c-3.434-4.765-4.449-10.978-3.02-18.465c2.671-13.987,11.559-20.724,25.028-18.973c0.159,0.021,0.293,0.038,0.398,0.05l0,0
		c6.809,0.763,12.188,3.576,15.558,8.135c3.914,5.295,5.082,12.879,3.378,21.93C87.479,77.554,74.982,79.462,68.634,79.462z
		 M66.814,35.069c-12.462,0-16.961,9.146-18.503,17.224c-1.298,6.79-0.425,12.355,2.593,16.542
		c4.441,6.163,12.25,7.642,14.537,7.948c3.199,0.429,19.316,1.755,22.336-14.276c1.574-8.353,0.56-15.265-2.932-19.989
		c-2.99-4.044-7.643-6.446-13.832-7.14c-0.117-0.013-0.266-0.032-0.441-0.055C69.246,35.151,67.994,35.069,66.814,35.069z"/>
	<path d="M52.582,57.602c-0.643,0-1.188-0.493-1.24-1.145c-0.311-3.823,1.359-11.446,7.159-15.625
		c7.583-5.462,14.759-3.233,16.777-2.42c0.638,0.256,0.946,0.982,0.69,1.62c-0.258,0.638-0.982,0.948-1.621,0.69
		c-1.721-0.693-7.842-2.587-14.391,2.131c-4.971,3.58-6.398,10.12-6.133,13.402c0.056,0.686-0.455,1.286-1.141,1.342
		C52.65,57.6,52.615,57.602,52.582,57.602z"/>
</g>
</svg>
