<?xml version="1.0" encoding="utf-8"?>
<!-- Generator: Adobe Illustrator 27.6.1, SVG Export Plug-In . SVG Version: 6.00 Build 0)  -->
<svg version="1.1" id="Ebene_1" xmlns="http://www.w3.org/2000/svg" xmlns:xlink="http://www.w3.org/1999/xlink" x="0px" y="0px"
	 viewBox="0 0 128 128" style="enable-background:new 0 0 128 128;" xml:space="preserve">
<style type="text/css">
	.st0{fill:#E7A575;}
	.st1{fill:#FFFFFF;}
	.st2{fill:#FFF7EB;}
	.st3{fill:#FFB052;}
</style>
<g>
	<path class="st0" d="M66.03,23.89c0,0-11.8-17.81-24.32-16.62C29.2,8.46,17.3,26.71,15.98,46.81S25.1,86.62,46.4,88.08
		c0,0,11.89-0.32,19.1-6.78c0,0-8.92-8.85-9.71-21.79C55.09,48.1,57.88,35.6,66.03,23.89z"/>
	<g>
		<g>
			<path class="st1" d="M52.41,11.1c-2.04-1.13-4.28-1.91-6.54-2.24c-1.13-0.17-2.26-0.21-3.39-0.12c-1.13,0.09-2.24,0.31-3.34,0.64
				c-2.16,0.67-4.1,1.88-5.82,3.37c-1.72,1.49-3.23,3.26-4.55,5.16c-2.65,3.82-4.58,8.16-6.05,12.62c-0.74,2.24-1.32,4.53-1.82,6.83
				c-0.5,2.31-0.87,4.64-1.11,6.99c-0.12,1.17-0.21,2.36-0.27,3.51c-0.06,1.15-0.06,2.31-0.01,3.47c0.1,2.31,0.4,4.62,0.89,6.88
				c0.49,2.27,1.16,4.5,2.01,6.66c0.85,2.16,1.9,4.25,3.09,6.25c1.2,1.99,2.57,3.88,4.12,5.62c1.53,1.75,3.23,3.35,5.09,4.74
				c3.69,2.81,8.06,4.76,12.71,5.37l-0.14,1.74c-1.26-0.05-2.52-0.19-3.76-0.42c-1.24-0.24-2.47-0.57-3.67-0.98
				c-2.39-0.84-4.67-2-6.78-3.41c-2.1-1.42-4.04-3.07-5.8-4.89c-1.75-1.83-3.31-3.83-4.7-5.95c-1.39-2.12-2.56-4.37-3.54-6.7
				c-0.98-2.33-1.78-4.75-2.34-7.22c-0.56-2.47-0.91-5-1.03-7.53c-0.06-1.27-0.07-2.54-0.02-3.81c0.05-1.28,0.17-2.5,0.31-3.75
				c0.56-4.96,1.62-9.87,3.29-14.58c0.83-2.36,1.79-4.68,2.95-6.91c1.16-2.23,2.46-4.4,4.01-6.41c1.55-2.01,3.31-3.89,5.36-5.46
				c1.03-0.78,2.12-1.48,3.29-2.07c1.15-0.6,2.41-1.03,3.66-1.35c1.24-0.33,2.53-0.55,3.83-0.61c1.3-0.06,2.6,0.03,3.87,0.26
				c2.55,0.46,4.91,1.52,7.06,2.81L52.41,11.1z"/>
		</g>
	</g>
	<path d="M24.47,51.57c-0.68,0-1.24-0.54-1.26-1.22c-0.89-29.73,16.01-37.7,16.73-38.03c0.63-0.29,1.38,0,1.66,0.63
		c0.29,0.63,0.01,1.38-0.63,1.66c-0.07,0.03-4.08,1.93-7.93,7.2c-3.58,4.9-7.76,13.82-7.32,28.46c0.02,0.69-0.53,1.27-1.22,1.3
		C24.5,51.57,24.48,51.57,24.47,51.57z"/>
	<path d="M64.6,79.79c-3.87,3.38-8.56,5.48-13.85,6.16c-7.73,1-14.99-1.26-20.99-6.53C22.12,72.72,17.54,62,17.52,50.75
		c-0.05-20.87,11-41.31,23.19-42.88c0.52-0.07,1.06-0.1,1.59-0.1c7.61,0,16.36,6.66,23,16.49c0.49-0.73,1-1.45,1.52-2.14
		c-1.51-2.17-3.14-4.22-4.87-6.09C54.83,8.28,47.17,4.5,40.38,5.37c-6.79,0.87-13.24,6.48-18.17,15.77
		c-4.6,8.69-7.23,19.48-7.21,29.61c0.03,11.96,4.93,23.39,13.1,30.56c5.55,4.87,12.09,7.38,19.1,7.38c1.28,0,2.57-0.08,3.88-0.25
		c5.93-0.76,11.16-3.15,15.45-7C65.85,80.92,65.2,80.37,64.6,79.79z"/>
	<path class="st1" d="M87.29,11.38c-16.02,0-27.63,20.9-29.71,36.37c-0.91,6.82-1.4,19.62,5.63,28.65
		c4.16,5.35,10.39,8.53,18.49,9.47c8.02,0.92,15.32-1.92,21.11-8.23c8.51-9.28,12.53-25.19,9.79-38.7
		c-4.28-21.05-11.33-25.86-22.84-27.39l0,0C88.93,11.43,88.1,11.38,87.29,11.38z"/>
	<path class="st2" d="M88.78,12.73c-16.02,0-27.63,20.9-29.71,36.37c-0.91,6.82-1.4,19.62,5.63,28.65
		c4.16,5.35,10.39,8.53,18.49,9.47c8.02,0.92,15.32-1.92,21.11-8.23c8.51-9.28,12.53-25.19,9.79-38.7
		c-4.28-21.05-11.33-25.86-22.84-27.39l0,0C90.42,12.78,89.59,12.73,88.78,12.73z"/>
	<path class="st1" d="M82.48,31.89c-12.59,0-17.13,9.24-18.69,17.4c-1.31,6.86-0.43,12.48,2.62,16.71
		c4.49,6.22,12.37,7.72,14.68,8.03c3.23,0.43,19.51,1.77,22.56-14.42c1.59-8.44,0.56-15.42-2.96-20.19
		c-3.02-4.08-7.72-6.51-13.97-7.21c-0.12-0.01-0.27-0.03-0.45-0.06C84.94,31.97,83.67,31.89,82.48,31.89z"/>
	<path class="st3" d="M84.36,33.04c-12.59,0-17.13,9.24-18.69,17.4c-1.31,6.86-0.43,12.48,2.62,16.71
		c4.49,6.22,12.37,7.72,14.68,8.03c3.23,0.43,19.51,1.77,22.56-14.42c1.59-8.44,0.56-15.42-2.96-20.19
		c-3.02-4.08-7.72-6.51-13.97-7.21c-0.12-0.01-0.27-0.03-0.45-0.06C86.82,33.13,85.55,33.04,84.36,33.04z"/>
	<path d="M84.67,88.55c-1.07,0-2.15-0.06-3.25-0.19c-8.8-1.01-15.59-4.52-20.19-10.42c-7.59-9.75-7.11-23.31-6.14-30.53
		c1.2-8.96,5.36-19.01,10.85-26.23c4.84-6.36,12.96-13.63,24.15-12.14c12.36,1.64,20.41,6.98,24.97,29.39
		c2.95,14.47-1.23,30.91-10.4,40.9C99.1,85.4,92.24,88.55,84.67,88.55z M87.29,11.38c-16.02,0-27.63,20.9-29.71,36.37
		c-0.91,6.82-1.4,19.62,5.63,28.65c4.16,5.35,10.39,8.53,18.49,9.47c8.02,0.92,15.32-1.92,21.11-8.23
		c8.51-9.28,12.53-25.19,9.79-38.7c-4.28-21.05-11.33-25.86-22.84-27.39l0,0C88.93,11.43,88.1,11.38,87.29,11.38z"/>
	<path d="M84.32,76.73c-1.78,0-3.08-0.15-3.56-0.21c-2.56-0.34-11.32-2.01-16.39-9.05c-3.47-4.81-4.49-11.09-3.05-18.65
		C64.02,34.69,73,27.89,86.6,29.65c0.16,0.02,0.29,0.04,0.4,0.05l0,0c6.88,0.77,12.31,3.61,15.71,8.22
		c3.95,5.35,5.13,13.01,3.41,22.15C103.35,74.8,90.73,76.73,84.32,76.73z M82.48,31.89c-12.59,0-17.13,9.24-18.69,17.4
		c-1.31,6.86-0.43,12.48,2.62,16.71c4.49,6.22,12.37,7.72,14.68,8.03c3.23,0.43,19.51,1.77,22.56-14.42
		c1.59-8.44,0.56-15.42-2.96-20.19c-3.02-4.08-7.72-6.51-13.97-7.21c-0.12-0.01-0.27-0.03-0.45-0.06
		C84.94,31.97,83.67,31.89,82.48,31.89z"/>
	<path d="M68.11,54.65c-0.65,0-1.2-0.5-1.25-1.16c-0.31-3.86,1.37-11.56,7.23-15.78c7.66-5.52,14.91-3.27,16.95-2.44
		c0.64,0.26,0.96,0.99,0.7,1.64c-0.26,0.64-0.99,0.96-1.64,0.7c-1.74-0.7-7.92-2.61-14.53,2.15c-5.02,3.62-6.46,10.22-6.19,13.54
		c0.06,0.69-0.46,1.3-1.15,1.36C68.18,54.65,68.14,54.65,68.11,54.65z"/>
</g>
<g>
	<path d="M54.92,120.13v-9.27h6.71v1.09h-5.48v2.84h5.13v1.09h-5.13v3.16h5.69v1.09H54.92z"/>
	<path d="M63.18,120.68l1.11,0.16c0.05,0.34,0.17,0.59,0.39,0.75c0.28,0.21,0.67,0.32,1.16,0.32c0.53,0,0.93-0.11,1.22-0.32
		c0.29-0.21,0.48-0.51,0.58-0.89c0.06-0.23,0.09-0.72,0.08-1.46c-0.5,0.59-1.12,0.88-1.86,0.88c-0.92,0-1.64-0.33-2.14-1
		c-0.51-0.67-0.76-1.47-0.76-2.4c0-0.64,0.12-1.23,0.35-1.77c0.23-0.54,0.57-0.96,1.01-1.26c0.44-0.3,0.96-0.44,1.55-0.44
		c0.79,0,1.45,0.32,1.96,0.96v-0.81h1.05v5.81c0,1.05-0.11,1.79-0.32,2.22c-0.21,0.44-0.55,0.78-1.01,1.03
		c-0.46,0.25-1.03,0.38-1.71,0.38c-0.8,0-1.45-0.18-1.94-0.54C63.4,121.95,63.16,121.41,63.18,120.68z M64.12,116.65
		c0,0.88,0.17,1.52,0.52,1.93c0.35,0.4,0.79,0.61,1.32,0.61c0.52,0,0.96-0.2,1.32-0.6c0.35-0.4,0.53-1.03,0.53-1.89
		c0-0.82-0.18-1.44-0.55-1.86c-0.36-0.42-0.8-0.63-1.32-0.63c-0.51,0-0.94,0.21-1.29,0.62C64.3,115.23,64.12,115.84,64.12,116.65z"
		/>
	<path d="M70.39,120.68l1.11,0.16c0.05,0.34,0.17,0.59,0.39,0.75c0.28,0.21,0.67,0.32,1.16,0.32c0.53,0,0.93-0.11,1.22-0.32
		c0.29-0.21,0.48-0.51,0.58-0.89c0.06-0.23,0.09-0.72,0.08-1.46c-0.5,0.59-1.12,0.88-1.86,0.88c-0.92,0-1.64-0.33-2.14-1
		c-0.51-0.67-0.76-1.47-0.76-2.4c0-0.64,0.12-1.23,0.35-1.77c0.23-0.54,0.57-0.96,1.01-1.26c0.44-0.3,0.96-0.44,1.55-0.44
		c0.79,0,1.45,0.32,1.96,0.96v-0.81h1.05v5.81c0,1.05-0.11,1.79-0.32,2.22c-0.21,0.44-0.55,0.78-1.01,1.03
		c-0.46,0.25-1.03,0.38-1.71,0.38c-0.8,0-1.45-0.18-1.94-0.54C70.61,121.95,70.37,121.41,70.39,120.68z M71.33,116.65
		c0,0.88,0.17,1.52,0.52,1.93c0.35,0.4,0.79,0.61,1.32,0.61c0.52,0,0.96-0.2,1.32-0.6c0.35-0.4,0.53-1.03,0.53-1.89
		c0-0.82-0.18-1.44-0.55-1.86c-0.36-0.42-0.8-0.63-1.32-0.63c-0.51,0-0.94,0.21-1.29,0.62C71.51,115.23,71.33,115.84,71.33,116.65z"
		/>
</g>
</svg>
