<?xml version="1.0" encoding="utf-8"?>
<!-- Generator: Adobe Illustrator 27.6.1, SVG Export Plug-In . SVG Version: 6.00 Build 0)  -->
<svg version="1.1" id="Ebene_1" xmlns="http://www.w3.org/2000/svg" xmlns:xlink="http://www.w3.org/1999/xlink" x="0px" y="0px"
	 viewBox="0 0 128 128" style="enable-background:new 0 0 128 128;" xml:space="preserve">
<style type="text/css">
	.st0{fill:#FFFFFF;}
	.st1{fill:#9FB4CF;}
	.st2{fill:#58627A;}
</style>
<g>
	<path d="M56.39,112.86v-8.68h5.85v1.02h-4.71v2.69h4.07v1.02h-4.07v3.94H56.39z"/>
	<path d="M63.61,105.41v-1.23h1.07v1.23H63.61z M63.61,112.86v-6.29h1.07v6.29H63.61z"/>
	<path d="M65.87,110.98l1.05-0.17c0.06,0.42,0.22,0.75,0.49,0.97c0.27,0.23,0.65,0.34,1.13,0.34c0.49,0,0.85-0.1,1.09-0.3
		c0.24-0.2,0.36-0.43,0.36-0.7c0-0.24-0.1-0.43-0.31-0.57c-0.15-0.09-0.51-0.21-1.09-0.36c-0.78-0.2-1.32-0.37-1.62-0.51
		c-0.3-0.14-0.53-0.34-0.69-0.6c-0.16-0.25-0.23-0.54-0.23-0.84c0-0.28,0.06-0.54,0.19-0.78c0.13-0.24,0.3-0.44,0.52-0.59
		c0.17-0.12,0.39-0.23,0.68-0.31c0.29-0.08,0.59-0.13,0.92-0.13c0.49,0,0.93,0.07,1.3,0.21c0.37,0.14,0.65,0.33,0.83,0.58
		c0.18,0.24,0.3,0.57,0.37,0.97l-1.04,0.14c-0.05-0.32-0.18-0.58-0.41-0.76c-0.23-0.18-0.55-0.27-0.96-0.27
		c-0.49,0-0.84,0.08-1.05,0.24c-0.21,0.16-0.31,0.35-0.31,0.57c0,0.14,0.04,0.26,0.13,0.37c0.09,0.11,0.22,0.21,0.41,0.28
		c0.11,0.04,0.42,0.13,0.94,0.27c0.75,0.2,1.28,0.37,1.58,0.49c0.3,0.13,0.53,0.31,0.7,0.56c0.17,0.24,0.25,0.55,0.25,0.91
		c0,0.36-0.1,0.69-0.31,1c-0.21,0.31-0.51,0.56-0.9,0.73c-0.39,0.17-0.83,0.26-1.33,0.26c-0.82,0-1.44-0.17-1.87-0.51
		C66.26,112.15,65.99,111.65,65.87,110.98z"/>
	<path d="M72.36,112.86v-8.68h1.07v3.11c0.5-0.58,1.12-0.86,1.88-0.86c0.47,0,0.87,0.09,1.21,0.28c0.34,0.18,0.59,0.44,0.74,0.76
		c0.15,0.32,0.22,0.79,0.22,1.41v3.98h-1.07v-3.98c0-0.53-0.12-0.92-0.35-1.16c-0.23-0.24-0.56-0.36-0.98-0.36
		c-0.32,0-0.61,0.08-0.89,0.25c-0.28,0.16-0.48,0.39-0.59,0.67c-0.12,0.28-0.18,0.67-0.18,1.16v3.44H72.36z"/>
</g>
<g>
	<path class="st0" d="M48.4,31.98c-17.39,0-30.46,10.39-35.3,14.89c-0.48,0.45-0.74,1.05-0.74,1.7s0.26,1.26,0.74,1.7
		c4.89,4.54,18.15,15.08,35.78,14.89c17.39-0.19,31.97-5.54,40.68-8.74c3.01-1.11,5.4-1.98,7.1-2.36c2.16-0.48,3.19,0.55,4.4,1.75
		c0.72,0.71,1.61,1.6,3.05,2.62c6.76,4.76,13.94,5.21,17.38,4.36c0.62-4.02-6.35-10.38-8.97-12.38c-0.29-0.22-0.46-0.57-0.46-0.94
		s0.17-0.71,0.46-0.94c2.62-2,9.6-8.36,8.97-12.38c-3.47-0.87-10.69-0.43-17.37,4.35c-1.41,1.01-2.3,1.89-3.01,2.59
		c-1.27,1.25-2.27,2.24-4.43,1.78c-1.92-0.4-4.65-1.56-8.11-3.02c-9.13-3.86-22.92-9.69-39.69-9.87
		C48.72,31.98,48.56,31.98,48.4,31.98z M122.45,63.73L122.45,63.73L122.45,63.73z"/>
	<path class="st1" d="M48.4,33.84c-17.39,0-30.46,10.39-35.3,14.89c-0.48,0.45-0.74,1.05-0.74,1.7s0.26,1.26,0.74,1.7
		c4.89,4.54,18.15,15.08,35.78,14.89c17.39-0.19,31.97-5.54,40.68-8.74c3.01-1.11,5.4-1.98,7.1-2.36c2.16-0.48,3.19,0.55,4.4,1.75
		c0.72,0.71,1.61,1.6,3.05,2.62c6.76,4.76,13.94,5.21,17.38,4.36c0.62-4.02-6.35-10.38-8.97-12.38c-0.29-0.22-0.46-0.57-0.46-0.94
		s0.17-0.71,0.46-0.94c2.62-2,9.6-8.36,8.97-12.38c-3.47-0.87-10.69-0.43-17.37,4.35c-1.41,1.01-2.3,1.89-3.01,2.59
		c-1.27,1.25-2.27,2.24-4.43,1.78c-1.92-0.4-4.65-1.56-8.11-3.02c-9.13-3.86-22.92-9.69-39.69-9.87
		C48.72,33.84,48.56,33.84,48.4,33.84z M122.45,65.58L122.45,65.58L122.45,65.58z"/>
	<path class="st0" d="M60.81,69.97l5.59-4.28c-5.38,1.04-11.25,1.75-17.5,1.82c-0.17,0-0.34,0-0.51,0c-0.63,0-1.25-0.02-1.86-0.04
		c5.27,6.24,11.4,12.24,14.28,13.33l-0.46-9.85C60.33,70.57,60.5,70.21,60.81,69.97z"/>
	<path class="st0" d="M98.69,54.09c0.93,0.29,1.61,0.97,2.36,1.72c0.72,0.71,1.61,1.6,3.05,2.62c6.76,4.76,13.94,5.21,17.38,4.36
		c0.62-4.02-6.35-10.38-8.97-12.38c-0.29-0.22-0.46-0.57-0.46-0.94s0.17-0.71,0.46-0.94c2.62-2,9.6-8.36,8.97-12.38
		c-3.47-0.87-10.69-0.43-17.37,4.35c-1.41,1.01-2.3,1.89-3.01,2.59c-0.75,0.75-1.42,1.4-2.29,1.71c0.62,1.2,1.51,3.46,0.92,5.63
		C99.3,52.03,98.94,53.26,98.69,54.09z"/>
	<path class="st0" d="M60.81,27.47c-0.31-0.23-0.48-0.61-0.46-0.99l0.46-9.85c-3,1.14-9.53,7.61-14.94,14.12
		c7.37-0.79,18.58,1.84,23.28,3.07L60.81,27.47z"/>
	<path class="st2" d="M62.25,70.73l7.82-6.68c-5.38,1.04-11.53,2.3-17.77,2.37c-0.17,0-1.92,0.2-2.09,0.2c-0.63,0-1.29,0.42-1.9,0.4
		c5.27,6.24,11.06,12.7,13.94,13.79l-0.34-7.92C61.89,72.51,61.94,70.97,62.25,70.73z"/>
	<path class="st2" d="M63.11,28.04c-0.31-0.23-1.47-1.75-1.45-2.14l0.39-8.36c-3,1.14-8.64,6.54-14.04,13.06
		c7.46,0.21,18.67,2.42,23.36,3.65L63.11,28.04z"/>
	<path class="st2" d="M98.69,55.94c0.93,0.29,1.61,0.97,2.36,1.72c0.72,0.71,1.61,1.6,3.05,2.62c6.76,4.76,13.94,5.21,17.38,4.36
		c0.62-4.02-6.35-10.38-8.97-12.38c-0.29-0.22-0.46-0.57-0.46-0.94s0.17-0.71,0.46-0.94c2.62-2,9.6-8.36,8.97-12.38
		c-3.47-0.87-10.69-0.43-17.37,4.35c-1.41,1.01-2.3,1.89-3.01,2.59c-0.75,0.75-1.42,1.4-2.29,1.71c0.62,1.2,1.51,3.46,0.92,5.63
		C99.3,53.88,98.94,55.12,98.69,55.94z"/>
	<path d="M48.4,67.52c-18.22,0-31.86-10.83-36.9-15.52C10.54,51.12,10,49.87,10,48.57c0-1.29,0.54-2.54,1.49-3.43
		c5.04-4.69,18.68-15.52,36.9-15.52c0.17,0,0.34,0,0.51,0c17.23,0.19,31.28,6.13,40.58,10.06c3.34,1.41,5.98,2.53,7.68,2.88
		c0.9,0.19,1.08,0.04,2.29-1.15c0.73-0.72,1.73-1.71,3.29-2.83c7.85-5.63,16.32-5.78,20.09-4.5c0.34,0.12,0.61,0.38,0.73,0.72
		c1.91,5.32-5.4,12.12-8.46,14.66c3.05,2.54,10.36,9.33,8.46,14.66c-0.12,0.34-0.39,0.6-0.73,0.72c-3.72,1.26-12.14,1.1-20.08-4.49
		c-1.61-1.13-2.62-2.14-3.36-2.87c-1.18-1.17-1.36-1.31-2.22-1.12c-1.56,0.35-3.87,1.2-6.81,2.28c-8.85,3.25-23.67,8.68-41.46,8.88
		C48.73,67.52,48.56,67.52,48.4,67.52z M48.4,31.98c-17.39,0-30.46,10.39-35.3,14.89c-0.48,0.45-0.74,1.05-0.74,1.7
		s0.26,1.26,0.74,1.7c4.89,4.54,18.15,15.08,35.78,14.89c17.39-0.19,31.97-5.54,40.68-8.74c3.01-1.11,5.4-1.98,7.1-2.36
		c2.16-0.48,3.19,0.55,4.4,1.75c0.72,0.71,1.61,1.6,3.05,2.62c6.76,4.76,13.94,5.21,17.38,4.36c0.62-4.02-6.35-10.38-8.97-12.38
		c-0.29-0.22-0.46-0.57-0.46-0.94s0.17-0.71,0.46-0.94c2.62-2,9.6-8.36,8.97-12.38c-3.47-0.87-10.69-0.43-17.37,4.35
		c-1.41,1.01-2.3,1.89-3.01,2.59c-1.27,1.25-2.27,2.24-4.43,1.78c-1.92-0.4-4.65-1.56-8.11-3.02c-9.13-3.86-22.92-9.69-39.69-9.87
		C48.72,31.98,48.56,31.98,48.4,31.98z M122.45,63.73L122.45,63.73L122.45,63.73z"/>
	<path d="M32.72,64.79c-0.17,0-0.35-0.04-0.51-0.12c-0.58-0.28-0.83-0.99-0.54-1.57c8.31-17.06,0.44-28.41,0.1-28.88
		c-0.38-0.53-0.26-1.26,0.27-1.64c0.53-0.38,1.26-0.26,1.64,0.27c0.37,0.52,9.05,12.91,0.1,31.29
		C33.57,64.55,33.15,64.79,32.72,64.79z"/>
	<circle cx="29.08" cy="43.92" r="2.63"/>
	<path d="M71.75,35.49c-0.25,0-0.5-0.08-0.71-0.24l-10.22-7.78c-0.31-0.23-0.48-0.61-0.46-0.99l0.46-9.85
		c-3.16,1.2-10.23,8.3-15.78,15.15c-0.41,0.51-1.15,0.58-1.66,0.17c-0.51-0.41-0.58-1.15-0.17-1.66
		c3.26-4.03,14.28-17.08,19.08-16.13c0.57,0.11,0.97,0.63,0.94,1.21l-0.5,10.6l9.73,7.41c0.52,0.39,0.62,1.13,0.22,1.65
		C72.45,35.33,72.1,35.49,71.75,35.49z"/>
	<path d="M71.75,35.49c-0.25,0-0.5-0.08-0.71-0.24l-10.22-7.78c-0.31-0.23-0.48-0.61-0.46-0.99l0.46-9.85
		c-3.16,1.2-10.23,8.3-15.78,15.15c-0.41,0.51-1.15,0.58-1.66,0.17c-0.51-0.41-0.58-1.15-0.17-1.66
		c3.26-4.03,14.28-17.08,19.08-16.13c0.57,0.11,0.97,0.63,0.94,1.21l-0.5,10.6l9.73,7.41c0.52,0.39,0.62,1.13,0.22,1.65
		C72.45,35.33,72.1,35.49,71.75,35.49z"/>
	<path d="M61.75,83.33c-5.03,0-15.4-12.29-18.55-16.18c-0.41-0.5-0.33-1.25,0.17-1.66c0.5-0.41,1.25-0.33,1.66,0.17
		c5.55,6.84,12.62,13.94,15.78,15.15l-0.46-9.85c-0.02-0.39,0.15-0.76,0.46-0.99l9.51-7.27c0.52-0.39,1.26-0.3,1.65,0.22
		c0.39,0.52,0.3,1.25-0.22,1.65l-9.02,6.9l0.5,10.6c0.03,0.58-0.37,1.1-0.94,1.21C62.11,83.31,61.94,83.33,61.75,83.33z"/>
	<path d="M98.07,56.28c-0.25,0-0.51-0.08-0.72-0.25c-0.51-0.4-0.6-1.14-0.2-1.65c1.69-2.17,2.26-7.53-0.29-9.54
		c-0.51-0.4-0.6-1.14-0.2-1.65c0.4-0.51,1.14-0.6,1.65-0.2c3.78,2.98,3.03,9.84,0.69,12.84C98.77,56.13,98.42,56.28,98.07,56.28z"/>
	<path d="M60.77,58.94c-0.43,0-0.84-0.23-1.05-0.64c-0.3-0.58-0.06-1.29,0.51-1.58c1.2-0.61,2.01-2.2,2.01-3.94
		c0-1.38-0.51-2.67-1.35-3.47c-0.24-0.22-0.37-0.53-0.37-0.86c0-0.33,0.13-0.64,0.37-0.86c0.85-0.79,1.35-2.09,1.35-3.47
		c0-1.89-0.93-3.55-2.26-4.05c-0.61-0.23-0.92-0.91-0.69-1.52c0.23-0.61,0.91-0.92,1.52-0.69c2.27,0.85,3.79,3.36,3.79,6.26
		c0,1.62-0.48,3.14-1.34,4.32c0.86,1.18,1.34,2.7,1.34,4.32c0,2.65-1.29,5.02-3.3,6.04C61.13,58.9,60.95,58.94,60.77,58.94z"/>
	<path d="M47.79,58.94c-0.43,0-0.84-0.23-1.05-0.64c-0.3-0.58-0.06-1.29,0.51-1.58c1.2-0.61,2.01-2.2,2.01-3.94
		c0-1.38-0.51-2.67-1.35-3.47c-0.24-0.22-0.37-0.53-0.37-0.86c0-0.33,0.13-0.64,0.37-0.86c0.85-0.79,1.35-2.09,1.35-3.47
		c0-1.89-0.93-3.55-2.26-4.05c-0.61-0.23-0.92-0.91-0.69-1.52c0.23-0.61,0.91-0.92,1.52-0.69c2.27,0.85,3.79,3.36,3.79,6.26
		c0,1.62-0.48,3.14-1.34,4.32c0.86,1.18,1.34,2.7,1.34,4.32c0,2.65-1.29,5.02-3.3,6.04C48.15,58.9,47.97,58.94,47.79,58.94z"/>
	<path d="M53.35,27.26c-0.3,0-0.59-0.11-0.82-0.33c-0.47-0.45-0.47-1.2-0.02-1.66l4.23-4.33c0.45-0.47,1.2-0.47,1.66-0.02
		c0.47,0.45,0.47,1.2,0.02,1.66l-4.23,4.33C53.96,27.14,53.66,27.26,53.35,27.26z"/>
	<path d="M105.35,44.71c-0.35,0-0.69-0.15-0.92-0.45c-0.4-0.51-0.32-1.25,0.19-1.65c0.19-0.15,4.76-3.71,10.98-4.8
		c0.64-0.11,1.25,0.32,1.36,0.96c0.11,0.64-0.32,1.25-0.96,1.36c-5.64,0.98-9.89,4.29-9.93,4.33
		C105.87,44.63,105.61,44.71,105.35,44.71z"/>
</g>
</svg>
