<?xml version="1.0" encoding="utf-8"?>
<!-- Generator: Adobe Illustrator 16.0.0, SVG Export Plug-In . SVG Version: 6.00 Build 0)  -->
<!DOCTYPE svg PUBLIC "-//W3C//DTD SVG 1.1//EN" "http://www.w3.org/Graphics/SVG/1.1/DTD/svg11.dtd">
<svg version="1.1" id="Layer_1" xmlns="http://www.w3.org/2000/svg" xmlns:xlink="http://www.w3.org/1999/xlink" x="0px" y="0px"
	 width="100px" height="100px" viewBox="0 0 100 100" enable-background="new 0 0 100 100" xml:space="preserve">
<g>
	<path fill="#FFFFFF" d="M33.719,35.3c-15.272,0-26.747,9.125-30.998,13.076c-0.421,0.392-0.653,0.922-0.653,1.495
		s0.232,1.104,0.653,1.496c4.29,3.988,15.937,13.246,31.422,13.073c15.271-0.169,28.072-4.866,35.722-7.673
		c2.647-0.971,4.738-1.738,6.236-2.076c1.894-0.425,2.805,0.482,3.861,1.534c0.63,0.627,1.413,1.407,2.679,2.299
		c5.936,4.181,12.243,4.576,15.26,3.828c0.547-3.531-5.578-9.117-7.88-10.874c-0.256-0.196-0.406-0.5-0.406-0.822
		s0.15-0.626,0.406-0.822c2.303-1.757,8.428-7.344,7.88-10.875c-3.052-0.764-9.39-0.381-15.252,3.824
		c-1.238,0.888-2.017,1.657-2.641,2.274c-1.111,1.099-1.989,1.968-3.893,1.567c-1.682-0.354-4.082-1.368-7.12-2.652
		c-8.017-3.388-20.131-8.507-34.853-8.67C34.001,35.301,33.858,35.3,33.719,35.3z M98.753,63.18h0.004H98.753z"/>
	<path fill="#9FB4CF" d="M33.719,36.93c-15.272,0-26.747,9.125-30.998,13.076c-0.421,0.392-0.653,0.922-0.653,1.495
		s0.232,1.104,0.653,1.496c4.29,3.988,15.937,13.246,31.422,13.073c15.271-0.169,28.072-4.866,35.722-7.673
		c2.647-0.972,4.738-1.739,6.236-2.076c1.894-0.425,2.805,0.482,3.861,1.534c0.63,0.627,1.413,1.407,2.679,2.299
		c5.936,4.181,12.243,4.577,15.26,3.828c0.547-3.531-5.578-9.117-7.88-10.874c-0.256-0.196-0.406-0.5-0.406-0.822
		s0.15-0.626,0.406-0.822c2.303-1.757,8.428-7.344,7.88-10.875c-3.052-0.764-9.39-0.381-15.252,3.824
		c-1.238,0.888-2.017,1.657-2.641,2.274c-1.111,1.099-1.989,1.968-3.893,1.567c-1.682-0.354-4.082-1.368-7.12-2.652
		c-8.017-3.388-20.131-8.507-34.853-8.67C34.001,36.931,33.858,36.93,33.719,36.93z M98.753,64.81h0.004H98.753z"/>
	<path fill="#FFFFFF" d="M44.621,68.663l4.91-3.756c-4.726,0.912-9.884,1.54-15.366,1.6c-0.148,0.001-0.299,0.002-0.446,0.002
		c-0.55,0-1.094-0.014-1.634-0.035c4.624,5.479,10.011,10.749,12.538,11.71l-0.407-8.652C44.2,69.194,44.352,68.869,44.621,68.663z"
		/>
	<path fill="#FFFFFF" d="M77.887,54.716c0.816,0.256,1.418,0.854,2.075,1.509c0.63,0.627,1.413,1.407,2.679,2.299
		c5.936,4.181,12.243,4.576,15.26,3.828c0.547-3.531-5.578-9.117-7.88-10.874c-0.256-0.196-0.406-0.5-0.406-0.822
		s0.15-0.626,0.406-0.822c2.303-1.757,8.428-7.344,7.88-10.875c-3.052-0.764-9.39-0.381-15.252,3.824
		c-1.238,0.888-2.017,1.657-2.641,2.274c-0.663,0.656-1.244,1.227-2.009,1.498c0.544,1.057,1.328,3.038,0.807,4.945
		C78.422,52.906,78.105,53.988,77.887,54.716z"/>
	<path fill="#FFFFFF" d="M44.622,31.337c-0.271-0.206-0.422-0.532-0.406-0.871l0.407-8.652c-2.634,1.001-8.37,6.68-13.116,12.4
		c6.473-0.693,16.319,1.619,20.44,2.7L44.622,31.337z"/>
	<path fill="#58627A" d="M45.884,69.333l6.871-5.868c-4.726,0.912-10.125,2.018-15.606,2.078c-0.149,0.002-1.687,0.179-1.834,0.179
		c-0.55,0-1.131,0.373-1.671,0.351c4.625,5.479,9.713,11.15,12.24,12.112l-0.299-6.956C45.568,70.891,45.614,69.539,45.884,69.333z"
		/>
	<path fill="#58627A" d="M46.643,31.844c-0.271-0.206-1.293-1.538-1.277-1.877l0.346-7.338c-2.634,1.001-7.587,5.747-12.333,11.467
		c6.548,0.188,16.396,2.128,20.518,3.209L46.643,31.844z"/>
	<path fill="#58627A" d="M77.887,56.346c0.816,0.256,1.418,0.854,2.075,1.509c0.63,0.627,1.413,1.407,2.679,2.299
		c5.936,4.181,12.243,4.577,15.26,3.828c0.547-3.531-5.578-9.117-7.88-10.874c-0.256-0.196-0.406-0.5-0.406-0.822
		s0.15-0.626,0.406-0.822c2.303-1.757,8.428-7.344,7.88-10.875c-3.052-0.764-9.39-0.381-15.252,3.824
		c-1.238,0.888-2.017,1.657-2.641,2.274c-0.663,0.656-1.244,1.227-2.009,1.498c0.544,1.057,1.328,3.038,0.807,4.945
		C78.422,54.536,78.105,55.618,77.887,56.346z"/>
	<path d="M33.719,66.51C17.714,66.511,5.744,57,1.313,52.881c-0.834-0.775-1.313-1.872-1.313-3.009c0-1.137,0.479-2.233,1.313-3.009
		c4.431-4.119,16.401-13.629,32.405-13.629c0.148,0,0.297,0.001,0.446,0.002c15.129,0.167,27.469,5.383,35.634,8.833
		c2.937,1.241,5.255,2.221,6.741,2.534c0.786,0.165,0.952,0.037,2.015-1.014c0.641-0.633,1.518-1.501,2.889-2.484
		c6.896-4.947,14.329-5.072,17.642-3.95c0.299,0.101,0.534,0.333,0.641,0.63c1.675,4.676-4.744,10.639-7.426,12.872
		c2.682,2.233,9.101,8.196,7.426,12.872c-0.106,0.297-0.342,0.529-0.641,0.63c-3.267,1.106-10.658,0.969-17.635-3.945
		c-1.409-0.993-2.298-1.878-2.946-2.524c-1.032-1.028-1.193-1.153-1.949-0.983c-1.366,0.308-3.402,1.055-5.979,2
		c-7.774,2.852-20.784,7.626-36.411,7.799C34.017,66.509,33.866,66.51,33.719,66.51z M33.719,35.3
		c-15.272,0-26.747,9.125-30.998,13.076c-0.421,0.392-0.653,0.922-0.653,1.495s0.232,1.104,0.653,1.496
		c4.29,3.988,15.937,13.246,31.422,13.073c15.271-0.169,28.072-4.866,35.722-7.673c2.647-0.971,4.738-1.738,6.236-2.076
		c1.894-0.425,2.805,0.482,3.861,1.534c0.63,0.627,1.413,1.407,2.679,2.299c5.936,4.181,12.243,4.576,15.26,3.828
		c0.547-3.531-5.578-9.117-7.88-10.874c-0.256-0.196-0.406-0.5-0.406-0.822s0.15-0.626,0.406-0.822
		c2.303-1.757,8.428-7.344,7.88-10.875c-3.052-0.764-9.39-0.381-15.252,3.824c-1.238,0.888-2.017,1.657-2.641,2.274
		c-1.111,1.099-1.989,1.968-3.893,1.567c-1.682-0.354-4.082-1.368-7.12-2.652c-8.017-3.388-20.131-8.507-34.853-8.67
		C34.001,35.301,33.858,35.3,33.719,35.3z M98.753,63.18h0.004H98.753z"/>
	<path d="M19.949,64.114c-0.152,0-0.307-0.034-0.452-0.104c-0.513-0.25-0.727-0.868-0.477-1.382
		c7.293-14.983,0.387-24.946,0.089-25.363c-0.33-0.464-0.225-1.109,0.238-1.441c0.463-0.333,1.106-0.229,1.44,0.234
		c0.328,0.456,7.947,11.333,0.091,27.475C20.7,63.9,20.332,64.114,19.949,64.114z"/>
	<circle cx="16.759" cy="45.782" r="2.312"/>
	<path d="M54.227,38.384c-0.218,0-0.438-0.069-0.625-0.211l-8.979-6.836c-0.271-0.206-0.422-0.532-0.406-0.871l0.407-8.652
		c-2.771,1.053-8.981,7.289-13.855,13.3c-0.359,0.444-1.011,0.512-1.453,0.152c-0.443-0.359-0.512-1.01-0.152-1.454
		c2.866-3.535,12.544-14.999,16.753-14.164c0.501,0.1,0.854,0.552,0.829,1.062l-0.438,9.311l8.547,6.507
		c0.454,0.346,0.542,0.995,0.196,1.448C54.847,38.244,54.539,38.384,54.227,38.384z"/>
	<path d="M54.227,38.384c-0.218,0-0.438-0.069-0.625-0.211l-8.979-6.836c-0.271-0.206-0.422-0.532-0.406-0.871l0.407-8.652
		c-2.771,1.053-8.981,7.289-13.855,13.3c-0.359,0.444-1.011,0.512-1.453,0.152c-0.443-0.359-0.512-1.01-0.152-1.454
		c2.866-3.535,12.544-14.999,16.753-14.164c0.501,0.1,0.854,0.552,0.829,1.062l-0.438,9.311l8.547,6.507
		c0.454,0.346,0.542,0.995,0.196,1.448C54.847,38.244,54.539,38.384,54.227,38.384z"/>
	<path d="M45.45,80.395c-4.416,0-13.522-10.797-16.288-14.208c-0.359-0.443-0.291-1.094,0.152-1.454
		c0.443-0.359,1.095-0.291,1.453,0.152c4.874,6.011,11.084,12.246,13.855,13.301l-0.407-8.652c-0.016-0.339,0.136-0.664,0.405-0.87
		l8.348-6.386c0.455-0.346,1.103-0.26,1.449,0.193c0.347,0.454,0.261,1.102-0.193,1.449l-7.919,6.057l0.438,9.313
		c0.024,0.511-0.328,0.961-0.829,1.062C45.767,80.38,45.611,80.395,45.45,80.395z"/>
	<path d="M77.343,56.643c-0.223,0-0.446-0.071-0.636-0.219c-0.45-0.351-0.53-1-0.179-1.45c1.487-1.908,1.982-6.613-0.258-8.38
		c-0.448-0.354-0.525-1.003-0.172-1.451c0.354-0.449,1.003-0.525,1.451-0.172c3.322,2.619,2.659,8.645,0.608,11.274
		C77.954,56.506,77.649,56.643,77.343,56.643z"/>
	<path d="M44.584,58.978c-0.376,0-0.738-0.206-0.922-0.564c-0.259-0.508-0.057-1.131,0.452-1.39c1.057-0.538,1.767-1.929,1.767-3.46
		c0-1.209-0.444-2.347-1.188-3.043c-0.209-0.195-0.327-0.468-0.327-0.754c0-0.286,0.118-0.559,0.327-0.754
		c0.744-0.696,1.188-1.834,1.188-3.043c0-1.656-0.818-3.12-1.989-3.559c-0.534-0.2-0.805-0.796-0.604-1.331
		c0.2-0.534,0.796-0.806,1.331-0.604c1.991,0.747,3.329,2.955,3.329,5.494c0,1.422-0.421,2.758-1.177,3.797
		c0.756,1.039,1.177,2.375,1.177,3.798c0,2.325-1.136,4.405-2.895,5.302C44.902,58.942,44.742,58.978,44.584,58.978z"/>
	<path d="M33.183,58.978c-0.376,0-0.738-0.206-0.922-0.564c-0.259-0.508-0.057-1.131,0.452-1.39c1.057-0.539,1.767-1.929,1.767-3.46
		c0-1.209-0.444-2.347-1.188-3.043c-0.209-0.195-0.327-0.468-0.327-0.754s0.118-0.559,0.327-0.754
		c0.744-0.696,1.188-1.834,1.188-3.043c0-1.656-0.817-3.12-1.988-3.559c-0.535-0.2-0.806-0.796-0.605-1.331
		c0.2-0.534,0.796-0.806,1.331-0.604c1.991,0.747,3.33,2.954,3.33,5.494c0,1.422-0.422,2.758-1.178,3.797
		c0.756,1.039,1.178,2.375,1.178,3.798c0,2.324-1.137,4.405-2.896,5.302C33.501,58.942,33.341,58.978,33.183,58.978z"/>
	<path d="M38.07,31.154c-0.261,0-0.521-0.097-0.722-0.293c-0.409-0.398-0.417-1.053-0.019-1.461l3.711-3.806
		c0.398-0.408,1.053-0.417,1.462-0.019c0.408,0.398,0.417,1.053,0.019,1.462l-3.712,3.806C38.607,31.05,38.339,31.154,38.07,31.154z
		"/>
	<path d="M83.737,46.483c-0.305,0-0.607-0.135-0.812-0.393c-0.354-0.448-0.277-1.098,0.171-1.452
		c0.168-0.133,4.178-3.261,9.645-4.214c0.563-0.097,1.098,0.278,1.195,0.841c0.098,0.562-0.278,1.098-0.841,1.195
		c-4.956,0.864-8.681,3.771-8.718,3.8C84.188,46.41,83.962,46.483,83.737,46.483z"/>
</g>
</svg>
