<?xml version="1.0" encoding="utf-8"?>
<!-- Generator: Adobe Illustrator 27.6.1, SVG Export Plug-In . SVG Version: 6.00 Build 0)  -->
<svg version="1.1" id="Ebene_1" xmlns="http://www.w3.org/2000/svg" xmlns:xlink="http://www.w3.org/1999/xlink" x="0px" y="0px"
	 viewBox="0 0 128 128" style="enable-background:new 0 0 128 128;" xml:space="preserve">
<style type="text/css">
	.st0{fill:#FFFFFF;}
	.st1{fill:#E08663;}
	.st2{fill:#ED9A73;}
</style>
<g>
	<path d="M32.85,111.99l1.15,0.29c-0.24,0.94-0.67,1.66-1.3,2.16c-0.63,0.5-1.39,0.74-2.29,0.74c-0.94,0-1.7-0.19-2.28-0.57
		c-0.59-0.38-1.03-0.93-1.34-1.65c-0.31-0.72-0.46-1.5-0.46-2.33c0-0.9,0.17-1.69,0.52-2.36c0.35-0.67,0.84-1.18,1.47-1.53
		c0.64-0.35,1.34-0.52,2.1-0.52c0.87,0,1.6,0.22,2.19,0.66c0.59,0.44,1,1.06,1.24,1.86L32.72,109c-0.2-0.63-0.49-1.09-0.88-1.38
		c-0.38-0.29-0.86-0.43-1.44-0.43c-0.67,0-1.22,0.16-1.67,0.48c-0.45,0.32-0.76,0.75-0.94,1.29c-0.18,0.54-0.27,1.09-0.27,1.67
		c0,0.74,0.11,1.38,0.32,1.93c0.22,0.55,0.55,0.96,1,1.23c0.45,0.27,0.95,0.41,1.47,0.41c0.64,0,1.19-0.19,1.63-0.56
		C32.39,113.27,32.69,112.72,32.85,111.99z"/>
	<path d="M35.27,115.03v-6.29h0.96v0.95c0.24-0.45,0.47-0.74,0.68-0.88c0.21-0.14,0.44-0.21,0.68-0.21c0.36,0,0.72,0.11,1.1,0.34
		l-0.37,0.99c-0.26-0.15-0.52-0.23-0.78-0.23c-0.23,0-0.44,0.07-0.63,0.21c-0.19,0.14-0.32,0.33-0.4,0.58
		c-0.12,0.38-0.18,0.79-0.18,1.24v3.29H35.27z"/>
	<path d="M43.44,115.03v-0.92c-0.49,0.71-1.15,1.07-1.99,1.07c-0.37,0-0.72-0.07-1.04-0.21c-0.32-0.14-0.56-0.32-0.72-0.54
		c-0.16-0.22-0.27-0.48-0.33-0.79c-0.04-0.21-0.06-0.54-0.06-0.99v-3.89h1.07v3.49c0,0.56,0.02,0.93,0.07,1.12
		c0.07,0.28,0.21,0.5,0.43,0.66c0.22,0.16,0.48,0.24,0.8,0.24c0.32,0,0.62-0.08,0.9-0.25c0.28-0.16,0.48-0.39,0.59-0.67
		c0.12-0.28,0.17-0.69,0.17-1.23v-3.37h1.07v6.29H43.44z"/>
	<path d="M45.63,113.15l1.05-0.17c0.06,0.42,0.22,0.75,0.49,0.97c0.27,0.23,0.65,0.34,1.13,0.34c0.49,0,0.85-0.1,1.09-0.3
		c0.24-0.2,0.36-0.43,0.36-0.7c0-0.24-0.1-0.43-0.31-0.57c-0.15-0.09-0.51-0.21-1.09-0.36c-0.78-0.2-1.32-0.37-1.63-0.51
		c-0.3-0.14-0.53-0.34-0.69-0.6c-0.16-0.25-0.23-0.54-0.23-0.84c0-0.28,0.06-0.54,0.19-0.78c0.13-0.24,0.3-0.44,0.52-0.59
		c0.17-0.12,0.39-0.23,0.68-0.31c0.29-0.08,0.59-0.13,0.92-0.13c0.49,0,0.93,0.07,1.3,0.21c0.37,0.14,0.65,0.33,0.83,0.58
		c0.18,0.24,0.3,0.57,0.37,0.97l-1.04,0.14c-0.05-0.32-0.18-0.58-0.41-0.76c-0.23-0.18-0.55-0.27-0.96-0.27
		c-0.49,0-0.84,0.08-1.05,0.24c-0.21,0.16-0.31,0.35-0.31,0.57c0,0.14,0.04,0.26,0.13,0.37c0.09,0.11,0.22,0.21,0.41,0.28
		c0.11,0.04,0.42,0.13,0.94,0.27c0.75,0.2,1.28,0.37,1.58,0.49c0.3,0.13,0.53,0.31,0.7,0.56c0.17,0.24,0.25,0.55,0.25,0.91
		c0,0.36-0.1,0.69-0.31,1c-0.21,0.31-0.51,0.56-0.9,0.73c-0.39,0.17-0.83,0.26-1.33,0.26c-0.82,0-1.44-0.17-1.87-0.51
		C46.02,114.32,45.75,113.82,45.63,113.15z"/>
	<path d="M54.44,114.08l0.15,0.94c-0.3,0.06-0.57,0.09-0.8,0.09c-0.39,0-0.69-0.06-0.9-0.18c-0.21-0.12-0.36-0.28-0.45-0.48
		c-0.09-0.2-0.13-0.62-0.13-1.26v-3.62h-0.78v-0.83h0.78v-1.56l1.06-0.64v2.2h1.07v0.83h-1.07v3.68c0,0.3,0.02,0.5,0.06,0.59
		c0.04,0.09,0.1,0.16,0.18,0.21c0.09,0.05,0.21,0.08,0.36,0.08C54.1,114.12,54.25,114.11,54.44,114.08z"/>
	<path d="M59.59,114.26c-0.39,0.34-0.77,0.57-1.14,0.71c-0.37,0.14-0.76,0.21-1.18,0.21c-0.69,0-1.22-0.17-1.59-0.51
		c-0.37-0.34-0.56-0.77-0.56-1.29c0-0.31,0.07-0.59,0.21-0.84c0.14-0.25,0.32-0.46,0.55-0.61c0.23-0.15,0.48-0.27,0.77-0.35
		c0.21-0.06,0.52-0.11,0.95-0.16c0.86-0.1,1.49-0.23,1.9-0.37c0-0.15,0.01-0.24,0.01-0.28c0-0.43-0.1-0.74-0.3-0.92
		c-0.27-0.24-0.68-0.36-1.21-0.36c-0.5,0-0.87,0.09-1.11,0.26c-0.24,0.18-0.42,0.49-0.53,0.93l-1.04-0.14
		c0.09-0.45,0.25-0.81,0.47-1.08c0.22-0.27,0.53-0.49,0.94-0.63c0.41-0.15,0.89-0.22,1.43-0.22c0.54,0,0.97,0.06,1.31,0.19
		c0.34,0.13,0.58,0.29,0.74,0.48c0.16,0.19,0.27,0.43,0.33,0.73c0.04,0.18,0.05,0.51,0.05,0.98v1.42c0,0.99,0.02,1.62,0.07,1.88
		c0.05,0.26,0.14,0.51,0.27,0.75H59.8C59.69,114.81,59.62,114.55,59.59,114.26z M59.5,111.88c-0.39,0.16-0.97,0.29-1.74,0.4
		c-0.44,0.06-0.75,0.13-0.93,0.21c-0.18,0.08-0.32,0.19-0.42,0.35c-0.1,0.15-0.15,0.32-0.15,0.51c0,0.28,0.11,0.52,0.32,0.71
		c0.22,0.19,0.53,0.28,0.94,0.28c0.41,0,0.78-0.09,1.1-0.27c0.32-0.18,0.55-0.43,0.7-0.74c0.11-0.24,0.17-0.6,0.17-1.07V111.88z"/>
	<path d="M66.33,112.73l1.05,0.14c-0.11,0.72-0.41,1.29-0.88,1.7c-0.47,0.41-1.05,0.61-1.74,0.61c-0.86,0-1.55-0.28-2.07-0.84
		c-0.52-0.56-0.78-1.37-0.78-2.42c0-0.68,0.11-1.27,0.34-1.78c0.22-0.51,0.57-0.89,1.03-1.15c0.46-0.25,0.96-0.38,1.5-0.38
		c0.68,0,1.24,0.17,1.67,0.52c0.43,0.35,0.71,0.84,0.83,1.47l-1.04,0.16c-0.1-0.42-0.27-0.74-0.52-0.95
		c-0.25-0.21-0.55-0.32-0.91-0.32c-0.54,0-0.97,0.19-1.31,0.58c-0.34,0.38-0.5,0.99-0.5,1.83c0,0.84,0.16,1.46,0.49,1.84
		c0.32,0.38,0.75,0.57,1.27,0.57c0.42,0,0.77-0.13,1.05-0.38C66.08,113.66,66.25,113.26,66.33,112.73z"/>
	<path d="M72.59,113.01l1.1,0.14c-0.17,0.64-0.5,1.14-0.97,1.5c-0.47,0.36-1.07,0.53-1.8,0.53c-0.92,0-1.65-0.28-2.19-0.85
		c-0.54-0.57-0.81-1.36-0.81-2.38c0-1.06,0.27-1.88,0.82-2.46c0.54-0.58,1.25-0.88,2.12-0.88c0.84,0,1.53,0.29,2.06,0.86
		c0.53,0.57,0.8,1.38,0.8,2.41c0,0.06,0,0.16-0.01,0.28h-4.69c0.04,0.69,0.23,1.22,0.59,1.59c0.35,0.37,0.79,0.55,1.31,0.55
		c0.39,0,0.72-0.1,1-0.31C72.21,113.78,72.43,113.46,72.59,113.01z M69.09,111.28h3.51c-0.05-0.53-0.18-0.93-0.4-1.19
		c-0.34-0.41-0.78-0.62-1.32-0.62c-0.49,0-0.9,0.16-1.23,0.49C69.31,110.3,69.13,110.74,69.09,111.28z"/>
	<path d="M79.13,114.26c-0.39,0.34-0.77,0.57-1.14,0.71c-0.37,0.14-0.76,0.21-1.18,0.21c-0.69,0-1.22-0.17-1.59-0.51
		c-0.37-0.34-0.56-0.77-0.56-1.29c0-0.31,0.07-0.59,0.21-0.84c0.14-0.25,0.32-0.46,0.55-0.61c0.23-0.15,0.48-0.27,0.77-0.35
		c0.21-0.06,0.52-0.11,0.95-0.16c0.86-0.1,1.49-0.23,1.9-0.37c0-0.15,0.01-0.24,0.01-0.28c0-0.43-0.1-0.74-0.3-0.92
		c-0.27-0.24-0.68-0.36-1.21-0.36c-0.5,0-0.87,0.09-1.11,0.26c-0.24,0.18-0.42,0.49-0.53,0.93l-1.04-0.14
		c0.09-0.45,0.25-0.81,0.47-1.08c0.22-0.27,0.53-0.49,0.94-0.63c0.41-0.15,0.89-0.22,1.43-0.22c0.54,0,0.97,0.06,1.31,0.19
		c0.34,0.13,0.58,0.29,0.74,0.48c0.16,0.19,0.27,0.43,0.33,0.73c0.04,0.18,0.05,0.51,0.05,0.98v1.42c0,0.99,0.02,1.62,0.07,1.88
		c0.05,0.26,0.14,0.51,0.27,0.75h-1.11C79.24,114.81,79.16,114.55,79.13,114.26z M79.04,111.88c-0.39,0.16-0.97,0.29-1.74,0.4
		c-0.44,0.06-0.75,0.13-0.93,0.21c-0.18,0.08-0.32,0.19-0.42,0.35c-0.1,0.15-0.15,0.32-0.15,0.51c0,0.28,0.11,0.52,0.32,0.71
		c0.22,0.19,0.53,0.28,0.94,0.28c0.41,0,0.78-0.09,1.1-0.27c0.32-0.18,0.55-0.43,0.7-0.74c0.11-0.24,0.17-0.6,0.17-1.07V111.88z"/>
	<path d="M81.77,115.03v-6.29h0.96v0.89c0.46-0.69,1.13-1.04,2-1.04c0.38,0,0.73,0.07,1.04,0.2c0.32,0.14,0.56,0.31,0.71,0.54
		c0.16,0.22,0.27,0.48,0.33,0.79c0.04,0.2,0.06,0.54,0.06,1.04v3.87h-1.07v-3.82c0-0.43-0.04-0.76-0.12-0.97
		c-0.08-0.22-0.23-0.39-0.44-0.52c-0.21-0.13-0.46-0.19-0.74-0.19c-0.45,0-0.85,0.14-1.17,0.43c-0.33,0.29-0.49,0.83-0.49,1.64v3.43
		H81.77z"/>
	<path d="M88.09,113.15l1.05-0.17c0.06,0.42,0.22,0.75,0.49,0.97c0.27,0.23,0.65,0.34,1.13,0.34c0.49,0,0.85-0.1,1.09-0.3
		c0.24-0.2,0.36-0.43,0.36-0.7c0-0.24-0.1-0.43-0.31-0.57c-0.15-0.09-0.51-0.21-1.09-0.36c-0.78-0.2-1.32-0.37-1.63-0.51
		c-0.3-0.14-0.53-0.34-0.69-0.6c-0.16-0.25-0.23-0.54-0.23-0.84c0-0.28,0.06-0.54,0.19-0.78c0.13-0.24,0.3-0.44,0.52-0.59
		c0.17-0.12,0.39-0.23,0.68-0.31c0.29-0.08,0.59-0.13,0.92-0.13c0.49,0,0.93,0.07,1.3,0.21c0.37,0.14,0.65,0.33,0.83,0.58
		c0.18,0.24,0.3,0.57,0.37,0.97l-1.04,0.14c-0.05-0.32-0.18-0.58-0.41-0.76c-0.23-0.18-0.55-0.27-0.96-0.27
		c-0.49,0-0.84,0.08-1.05,0.24c-0.21,0.16-0.31,0.35-0.31,0.57c0,0.14,0.04,0.26,0.13,0.37c0.09,0.11,0.22,0.21,0.41,0.28
		c0.11,0.04,0.42,0.13,0.94,0.27c0.75,0.2,1.28,0.37,1.58,0.49c0.3,0.13,0.53,0.31,0.7,0.56c0.17,0.24,0.25,0.55,0.25,0.91
		c0,0.36-0.1,0.69-0.31,1c-0.21,0.31-0.51,0.56-0.9,0.73c-0.39,0.17-0.83,0.26-1.33,0.26c-0.82,0-1.44-0.17-1.87-0.51
		C88.48,114.32,88.21,113.82,88.09,113.15z"/>
</g>
<g>
	<path class="st0" d="M72.9,66.92c-0.25,1.45,2.12,6.97,3.3,7.67c6.66-0.26,19.98-8.56,24.04-18.47c2.68-6.53,2.72-13.22,0.12-18.36
		c-2.59-5.11-7.64-8.63-15.01-10.47c-14.83-3.7-26.21-2.18-33.74-1.17c-1.16,0.15-2.23,0.3-3.23,0.41
		c-6.76,0.78-14.18,3.05-20.34,6.25l0,0c-3.29,1.71-4.95,3.08-4.93,4.07c0.01,0.63,0.91,1.41,2.46,2.14
		c12.45,5.81,31.2,6.96,43.47,6.18c8.29-0.53,12.47,0.06,14.46,2.04c1.41,1.41,1.47,3.28,1.38,4.56
		C84.6,56.7,75.99,64.84,72.9,66.92z"/>
	<path class="st0" d="M71.75,67.43l-0.13-0.14c-8.68,0.91-18.09,2.28-20.01,3.14c-0.18,3.02,2.93,11.25,6.05,13.47
		c1,0.71,1.49,0.43,1.7,0.31c3.21-1.83,11.35-6.62,15.64-9.14C75.41,75.51,71.69,66.75,71.75,67.43z"/>
	<path class="st1" d="M72.69,70.18l0.23-1.14c-8.68,0.91-18.04,2.03-19.96,2.88c-0.18,3.02,2.93,11.25,6.05,13.47
		c1,0.71,1.99-0.4,2.2-0.52c3.21-1.83,10.85-5.79,15.14-8.31C76.76,77.01,72.64,69.5,72.69,70.18z"/>
	<path d="M76.11,75.78c-0.33,0.01-0.71-0.26-1.11-0.71c-4.29,2.52-12.43,7.31-15.64,9.14c-0.21,0.12-0.7,0.4-1.7-0.31
		c-3.12-2.23-6.23-10.45-6.05-13.47c1.92-0.86,11.33-2.22,20.01-3.14l0.13,0.14c-0.06-0.68,0.04-1.18,0.34-1.37
		c0.28-0.18,0.6-0.41,0.97-0.69l-0.1-0.11c-0.25-0.27-0.62-0.41-0.99-0.37c-0.05,0.01-5.41,0.56-10.73,1.3
		c-11.56,1.61-11.72,2.45-11.9,3.43c-0.65,3.44,2.81,13.24,6.96,16.2c0.84,0.6,1.7,0.9,2.53,0.9c0.59,0,1.17-0.15,1.71-0.46
		c4.44-2.54,18.27-10.69,18.41-10.77c0.09-0.05,0.17-0.12,0.24-0.19C78.05,75.58,77.02,75.75,76.11,75.78z"/>
	<path class="st2" d="M72.54,69.19c-0.25,1.45,2.49,6.96,5.17,6.56c6.66-0.26,19.98-8.56,24.04-18.47
		c2.68-6.53,2.72-13.22,0.12-18.36c-2.59-5.11-7.64-8.63-15.01-10.47c-14.83-3.7-26.21-2.18-33.74-1.17
		c-1.16,0.15-2.23,0.3-3.23,0.41c-6.76,0.78-14.18,3.05-20.34,6.25l0,0c-3.29,1.71-4.95,3.08-4.93,4.07
		c0.01,0.63,0.91,1.41,2.46,2.14c12.45,5.81,31.2,6.96,43.47,6.18c8.29-0.53,12.47,0.06,14.46,2.04c1.41,1.41,1.47,3.28,1.38,4.56
		C86.11,57.86,75.63,67.11,72.54,69.19z"/>
	<path d="M76.1,76.95c-2.79,0-5.02-7.06-5.05-7.13c-0.79-2.57-0.66-4.09,0.39-4.76c3.01-1.93,10.88-9.76,11.11-13.44
		c0.08-1.35-0.12-2.18-0.7-2.75c-1.39-1.39-5.41-1.82-12.64-1.36c-4.54,0.29-28.05,1.34-44.62-6.4c-2.54-1.18-3.79-2.57-3.82-4.22
		c-0.06-2.96,4.01-5.07,6.2-6.21l0,0c6.4-3.32,14.12-5.69,21.15-6.5c0.98-0.11,2.04-0.25,3.19-0.41c7.7-1.03,19.35-2.59,34.62,1.22
		c8.07,2.01,13.63,5.95,16.54,11.69c2.91,5.75,2.89,13.15-0.04,20.32c-4.56,11.11-19.09,19.75-26.28,19.93
		C76.13,76.95,76.12,76.95,76.1,76.95z M72.9,66.92c-0.25,1.45,2.12,6.97,3.3,7.67c6.66-0.26,19.98-8.56,24.04-18.47
		c2.68-6.53,2.72-13.22,0.12-18.36c-2.59-5.11-7.64-8.63-15.01-10.47c-14.83-3.7-26.21-2.18-33.74-1.17
		c-1.16,0.15-2.23,0.3-3.23,0.41c-6.76,0.78-14.18,3.05-20.34,6.25l0,0c-3.29,1.71-4.95,3.08-4.93,4.07
		c0.01,0.63,0.91,1.41,2.46,2.14c12.45,5.81,31.2,6.96,43.47,6.18c8.29-0.53,12.47,0.06,14.46,2.04c1.41,1.41,1.47,3.28,1.38,4.56
		C84.6,56.7,75.99,64.84,72.9,66.92z"/>
	<path d="M50.48,47.33c-0.18,0-0.37-0.04-0.54-0.13c-0.58-0.3-0.8-1.01-0.5-1.59c5.6-10.74,0.28-19.49,0.05-19.86
		c-0.34-0.55-0.18-1.28,0.37-1.62c0.55-0.35,1.27-0.18,1.62,0.37c0.26,0.41,6.29,10.23,0.05,22.2
		C51.32,47.1,50.91,47.33,50.48,47.33z"/>
	<path d="M28.8,32.27c-0.14,0-0.29-0.03-0.43-0.08c-0.45-0.17-10.95-4.33-13.01-10.45c-0.66-1.96-0.42-3.9,0.72-5.76
		c2.71-4.42,9.11-4.43,15.9-4.45c8.61-0.02,17.51-0.05,21.53-7.86c0.3-0.58,1.01-0.81,1.59-0.51c0.58,0.3,0.81,1.01,0.51,1.58
		c-4.67,9.09-14.74,9.11-23.62,9.14c-6.37,0.02-11.88,0.03-13.9,3.33c-0.77,1.25-0.93,2.49-0.5,3.78c1.42,4.22,8.88,7.93,11.64,9.01
		c0.61,0.24,0.91,0.92,0.67,1.52C29.72,31.98,29.28,32.27,28.8,32.27z"/>
	<path d="M46.62,31.74c0,1.02-0.83,1.85-1.85,1.85c-1.02,0-1.85-0.83-1.85-1.85s0.83-1.85,1.85-1.85
		C45.79,29.88,46.62,30.71,46.62,31.74z"/>
	<path d="M77.06,47.18c-0.25,0-0.5-0.08-0.71-0.24c-0.52-0.39-0.62-1.13-0.22-1.65c8.23-10.82,1.38-19.33,1.31-19.42
		c-0.41-0.5-0.34-1.24,0.16-1.66c0.5-0.41,1.24-0.35,1.66,0.16c0.08,0.1,8.1,10.06-1.25,22.34C77.76,47.03,77.41,47.18,77.06,47.18z
		"/>
	<path d="M89.92,57.04c-4.33,0-7.56-1.42-7.62-1.44c-0.59-0.27-0.86-0.96-0.59-1.56c0.27-0.59,0.96-0.85,1.56-0.59
		c0.45,0.2,10.98,4.76,18.71-4.53c0.42-0.5,1.16-0.57,1.66-0.15c0.5,0.42,0.57,1.16,0.15,1.66C99.39,55.7,94.13,57.04,89.92,57.04z"
		/>
	<path d="M62.01,57.07c-0.13,0-0.27-0.02-0.4-0.07c-0.61-0.22-0.93-0.9-0.71-1.51c1.72-4.78,0.14-7.88,0.07-8.01
		c-0.3-0.57-0.09-1.28,0.48-1.59c0.57-0.31,1.28-0.1,1.59,0.47c0.09,0.16,2.18,4.1,0.07,9.93C62.95,56.77,62.49,57.07,62.01,57.07z"
		/>
	<path d="M70.15,56.54c-0.13,0-0.27-0.02-0.4-0.07c-0.61-0.22-0.93-0.9-0.71-1.51c1.63-4.51,0.06-7.94,0.04-7.97
		c-0.28-0.59-0.02-1.29,0.56-1.57c0.59-0.28,1.29-0.02,1.57,0.56c0.08,0.18,2,4.36,0.04,9.78C71.09,56.24,70.63,56.54,70.15,56.54z"
		/>
	<path d="M73.62,31.06c-0.06,0-0.13-0.01-0.19-0.02c-6.64-1.08-13.36-0.01-13.43,0c-0.65,0.1-1.25-0.33-1.35-0.97
		c-0.1-0.64,0.33-1.25,0.97-1.35c0.29-0.05,7.17-1.14,14.18,0c0.64,0.1,1.08,0.71,0.97,1.35C74.69,30.65,74.19,31.06,73.62,31.06z"
		/>
	<path d="M97.7,47.37c-0.01,0-0.01,0-0.02,0c-0.65-0.01-1.17-0.55-1.16-1.2c0.15-9.02-8.13-11.43-8.21-11.45
		c-0.63-0.17-0.99-0.82-0.82-1.45c0.17-0.63,0.82-0.99,1.45-0.82c0.1,0.03,10.11,2.94,9.93,13.76
		C98.86,46.85,98.34,47.37,97.7,47.37z"/>
</g>
</svg>
