<?xml version="1.0" encoding="utf-8"?>
<!-- Generator: Adobe Illustrator 16.0.0, SVG Export Plug-In . SVG Version: 6.00 Build 0)  -->
<!DOCTYPE svg PUBLIC "-//W3C//DTD SVG 1.1//EN" "http://www.w3.org/Graphics/SVG/1.1/DTD/svg11.dtd">
<svg version="1.1" id="Layer_1" xmlns="http://www.w3.org/2000/svg" xmlns:xlink="http://www.w3.org/1999/xlink" x="0px" y="0px"
	 width="100px" height="100px" viewBox="0 0 100 100" enable-background="new 0 0 100 100" xml:space="preserve">
<g>
	<path fill="#FFFFFF" d="M64.596,74.605c-0.273,1.622,2.362,7.781,3.684,8.56c7.428-0.29,22.288-9.55,26.821-20.604
		c2.987-7.285,3.036-14.75,0.135-20.482c-2.885-5.701-8.52-9.632-16.746-11.685c-16.549-4.129-29.238-2.432-37.636-1.31
		c-1.289,0.173-2.49,0.333-3.602,0.46c-7.547,0.865-15.816,3.406-22.688,6.97l0,0c-3.672,1.905-5.521,3.432-5.499,4.539
		c0.015,0.706,1.017,1.575,2.75,2.384c13.889,6.484,34.809,7.768,48.499,6.894c9.243-0.587,13.915,0.072,16.126,2.28
		c1.572,1.57,1.635,3.658,1.545,5.091C77.641,63.2,68.043,72.283,64.596,74.605z"/>
	<path fill="#FFFFFF" d="M63.307,75.168l-0.146-0.158c-9.682,1.018-20.18,2.542-22.326,3.499c-0.198,3.369,3.268,12.546,6.754,15.03
		c1.114,0.794,1.664,0.48,1.899,0.346c3.582-2.046,12.667-7.383,17.452-10.197C67.389,84.189,63.245,74.411,63.307,75.168z"/>
	<path fill="#E08663" d="M64.364,78.241l0.255-1.275c-9.682,1.019-20.123,2.261-22.271,3.217c-0.198,3.369,3.269,12.546,6.754,15.03
		c1.114,0.794,2.223-0.446,2.458-0.58c3.582-2.047,12.109-6.458,16.895-9.272C68.902,85.863,64.303,77.483,64.364,78.241z"/>
	<path d="M68.179,84.481c-0.362,0.009-0.79-0.292-1.238-0.794c-4.785,2.814-13.87,8.151-17.452,10.197
		c-0.235,0.134-0.785,0.449-1.899-0.346c-3.486-2.484-6.952-11.661-6.754-15.03c2.146-0.956,12.645-2.481,22.326-3.499l0.146,0.158
		c-0.062-0.757,0.04-1.319,0.374-1.532c0.311-0.198,0.674-0.458,1.077-0.768l-0.111-0.121c-0.28-0.305-0.687-0.458-1.101-0.417
		c-0.06,0.006-6.03,0.624-11.965,1.451c-12.894,1.796-13.072,2.735-13.278,3.824c-0.726,3.843,3.13,14.772,7.762,18.073
		C47,96.343,47.96,96.68,48.886,96.68c0.661,0,1.303-0.171,1.905-0.516c4.955-2.831,20.383-11.922,20.538-12.013
		c0.1-0.059,0.187-0.134,0.266-0.214C70.344,84.267,69.188,84.457,68.179,84.481z"/>
	<path fill="#ED9A73" d="M64.191,77.137c-0.274,1.622,2.783,7.765,5.772,7.321c7.428-0.29,22.288-9.55,26.82-20.604
		c2.987-7.285,3.037-14.75,0.136-20.482c-2.886-5.701-8.521-9.632-16.746-11.684c-16.549-4.129-29.238-2.433-37.636-1.31
		c-1.29,0.172-2.49,0.333-3.602,0.46c-7.547,0.866-15.817,3.406-22.688,6.971l0,0c-3.672,1.904-5.522,3.431-5.499,4.538
		c0.015,0.706,1.017,1.575,2.75,2.384c13.888,6.484,34.808,7.767,48.499,6.894c9.243-0.588,13.915,0.072,16.126,2.281
		c1.572,1.569,1.635,3.657,1.545,5.09C79.324,64.493,67.638,74.814,64.191,77.137z"/>
	<path d="M68.166,85.795c-3.111,0-5.605-7.875-5.63-7.955c-0.878-2.872-0.738-4.56,0.438-5.311
		c3.362-2.149,12.134-10.891,12.39-14.991c0.095-1.511-0.138-2.429-0.779-3.069c-1.552-1.55-6.033-2.033-14.104-1.518
		c-5.068,0.322-31.289,1.497-49.777-7.135c-2.831-1.321-4.226-2.861-4.264-4.708c-0.068-3.302,4.475-5.659,6.915-6.925l0,0
		c7.145-3.706,15.746-6.348,23.599-7.248c1.096-0.126,2.28-0.285,3.553-0.455c8.594-1.149,21.582-2.885,38.619,1.365
		c9,2.245,15.208,6.635,18.453,13.046c3.246,6.413,3.229,14.674-0.048,22.665c-5.085,12.399-21.292,22.038-29.319,22.236
		C68.196,85.795,68.182,85.795,68.166,85.795z M64.596,74.605c-0.273,1.622,2.362,7.781,3.684,8.56
		c7.428-0.29,22.288-9.55,26.821-20.604c2.987-7.285,3.036-14.75,0.135-20.482c-2.885-5.701-8.52-9.632-16.746-11.685
		c-16.549-4.129-29.238-2.432-37.636-1.31c-1.289,0.173-2.49,0.333-3.602,0.46c-7.547,0.865-15.816,3.406-22.688,6.97l0,0
		c-3.672,1.905-5.521,3.432-5.499,4.539c0.015,0.706,1.017,1.575,2.75,2.384c13.889,6.484,34.809,7.768,48.499,6.894
		c9.243-0.587,13.915,0.072,16.126,2.28c1.572,1.57,1.635,3.658,1.545,5.091C77.641,63.2,68.043,72.283,64.596,74.605z"/>
	<path d="M39.586,52.75c-0.205,0-0.412-0.048-0.605-0.149c-0.644-0.335-0.894-1.128-0.558-1.771
		c6.242-11.983,0.308-21.745,0.052-22.155c-0.383-0.614-0.198-1.424,0.415-1.809c0.615-0.385,1.422-0.202,1.808,0.411
		c0.29,0.459,7.013,11.407,0.054,24.766C40.518,52.493,40.06,52.75,39.586,52.75z"/>
	<path d="M15.4,35.943c-0.158,0-0.319-0.029-0.477-0.09c-0.497-0.194-12.221-4.831-14.519-11.658
		c-0.737-2.189-0.467-4.351,0.804-6.425c3.018-4.927,10.167-4.947,17.736-4.968c9.605-0.026,19.537-0.054,24.02-8.77
		c0.331-0.645,1.122-0.9,1.769-0.566c0.645,0.332,0.898,1.123,0.567,1.768C40.087,15.37,28.858,15.401,18.952,15.429
		c-7.111,0.02-13.252,0.036-15.505,3.713c-0.856,1.399-1.037,2.778-0.554,4.215c1.586,4.711,9.91,8.851,12.984,10.05
		c0.675,0.263,1.01,1.024,0.746,1.7C16.422,35.626,15.926,35.943,15.4,35.943z"/>
	<circle cx="33.21" cy="35.35" r="2.065"/>
	<path d="M69.232,52.585c-0.277,0-0.557-0.087-0.795-0.268c-0.576-0.439-0.688-1.263-0.249-1.84
		c9.187-12.067,1.541-21.567,1.462-21.662c-0.462-0.559-0.384-1.387,0.175-1.849c0.559-0.462,1.386-0.384,1.849,0.174
		c0.091,0.11,9.039,11.22-1.396,24.927C70.02,52.407,69.629,52.585,69.232,52.585z"/>
	<path d="M83.578,63.579c-4.83,0-8.434-1.58-8.504-1.612c-0.661-0.299-0.955-1.076-0.656-1.737c0.299-0.661,1.076-0.953,1.735-0.657
		c0.502,0.225,12.251,5.309,20.868-5.059c0.465-0.558,1.292-0.633,1.849-0.17c0.559,0.463,0.634,1.291,0.171,1.849
		C94.147,62.08,88.282,63.579,83.578,63.579z"/>
	<path d="M52.446,63.615c-0.148,0-0.299-0.025-0.446-0.078c-0.682-0.246-1.035-0.999-0.789-1.681
		c1.924-5.331,0.154-8.794,0.078-8.939c-0.336-0.638-0.097-1.433,0.539-1.773c0.636-0.34,1.426-0.109,1.771,0.525
		c0.101,0.184,2.428,4.579,0.082,11.079C53.488,63.283,52.983,63.615,52.446,63.615z"/>
	<path d="M61.529,63.023c-0.148,0-0.299-0.025-0.447-0.079c-0.682-0.247-1.034-1-0.787-1.681c1.819-5.03,0.064-8.858,0.046-8.896
		c-0.309-0.656-0.027-1.438,0.629-1.747c0.657-0.31,1.438-0.027,1.747,0.628c0.092,0.195,2.233,4.864,0.047,10.908
		C62.57,62.691,62.066,63.023,61.529,63.023z"/>
	<path d="M65.401,34.598c-0.07,0-0.141-0.006-0.213-0.017c-7.402-1.2-14.902-0.012-14.978,0c-0.721,0.114-1.391-0.371-1.506-1.086
		c-0.116-0.716,0.37-1.39,1.086-1.506c0.322-0.053,7.998-1.269,15.818,0c0.716,0.116,1.202,0.79,1.086,1.506
		C66.591,34.139,66.033,34.598,65.401,34.598z"/>
	<path d="M92.255,52.79c-0.008,0-0.015,0-0.022,0c-0.725-0.012-1.303-0.61-1.291-1.334c0.169-10.06-9.066-12.75-9.16-12.775
		c-0.698-0.195-1.107-0.919-0.912-1.617c0.194-0.698,0.916-1.107,1.617-0.913c0.112,0.031,11.282,3.284,11.081,15.349
		C93.556,52.217,92.971,52.79,92.255,52.79z"/>
</g>
</svg>
