<?xml version="1.0" encoding="utf-8"?>
<!-- Generator: Adobe Illustrator 16.0.0, SVG Export Plug-In . SVG Version: 6.00 Build 0)  -->
<!DOCTYPE svg PUBLIC "-//W3C//DTD SVG 1.1//EN" "http://www.w3.org/Graphics/SVG/1.1/DTD/svg11.dtd">
<svg version="1.1" id="Layer_1" xmlns="http://www.w3.org/2000/svg" xmlns:xlink="http://www.w3.org/1999/xlink" x="0px" y="0px"
	 width="100px" height="100px" viewBox="0 0 100 100" enable-background="new 0 0 100 100" xml:space="preserve">
<g>
	<path fill="#F9B162" d="M51.803,43.805c0.709,0.686,5.055,4.184,14.185-2.37l0,0c8.123-5.83,10.577-12.53,11.274-15.283
		c-2.767-0.205-9.694-0.021-18.032,5.339C49.775,37.566,51.436,42.91,51.803,43.805z"/>
	<g>
		<path fill="#FFFFFF" d="M56.942,47.731c-0.573,0-1.129-0.046-1.667-0.139c-3.056-0.526-4.488-2.409-4.854-2.974L50.352,44.5
			c-1.18-2.25-1.079-10.204,12.813-17.983l2.351,1.506c-11.759,6.586-13.041,13.865-12.54,15.031
			c0.226,0.317,1.045,1.286,2.808,1.59c2.225,0.384,7-0.703,13.625-5.783l0.654,2.288C64.844,45.15,60.728,47.731,56.942,47.731z"/>
	</g>
	<path fill="#F9B162" d="M51.803,60.931c0.709,0.686,5.055,4.184,14.185-2.37l0,0c8.123-5.83,10.577-12.529,11.274-15.283
		c-2.767-0.205-9.694-0.021-18.032,5.339C49.775,54.692,51.436,60.036,51.803,60.931z"/>
	<g>
		<path fill="#FFFFFF" d="M56.942,64.857c-0.573,0-1.129-0.046-1.667-0.139c-3.056-0.526-4.488-2.409-4.854-2.974l-0.069-0.119
			c-1.18-2.25-1.21-10.19,12.681-17.971l1.606,1.763C52.879,52.004,52.474,59.014,52.976,60.18c0.226,0.317,1.045,1.286,2.808,1.59
			c2.225,0.384,7-0.714,13.625-5.795l0.654,2.3C64.844,62.276,60.728,64.857,56.942,64.857z"/>
	</g>
	<path fill="#F9B162" d="M51.611,78.174c0.709,0.686,5.055,4.184,14.185-2.37l0,0c8.123-5.83,10.577-12.529,11.273-15.283
		c-2.766-0.205-9.694-0.021-18.032,5.339C49.583,71.936,51.244,77.28,51.611,78.174z"/>
	<g>
		<path fill="#FFFFFF" d="M56.942,81.659c-0.573,0-1.129-0.046-1.667-0.139c-3.056-0.526-4.488-2.409-4.854-2.974l-0.069-0.119
			c-1.18-2.25-1.095-9.838,12.796-17.618l1.135,2.025c-11.759,6.586-11.809,12.98-11.307,14.146c0.226,0.317,1.045,1.286,2.808,1.59
			c2.225,0.384,6.72-0.05,13.344-5.13l1.236,1.656C65.146,79.1,60.728,81.659,56.942,81.659z"/>
	</g>
	<path fill="#F9B162" d="M23.012,26.15c0.709,2.762,3.189,9.487,11.267,15.284l0,0c9.099,6.531,13.446,3.079,14.186,2.368
		c0.378-0.92,2.017-6.243-7.428-12.313C32.708,26.137,25.784,25.947,23.012,26.15z"/>
	<g>
		<path fill="#FFFFFF" d="M35.501,45.148C26.824,38.92,22.2,29.009,21.561,26.522l-0.446-1.733l1.786-0.131
			c2.977-0.22,13.242,0.847,21.973,6.457l-0.992,2.133c-6.657-4.278-14.904-5.426-18.779-5.604
			c1.469,3.712,5.256,11.104,11.683,15.717L35.501,45.148z"/>
	</g>
	<path fill="#F9B162" d="M23.012,43.26c0.709,2.76,3.189,9.486,11.267,15.283l0,0c9.099,6.531,13.446,3.079,14.186,2.368
		c0.378-0.92,2.017-6.244-7.428-12.313C32.708,43.245,25.784,43.057,23.012,43.26z"/>
	<g>
		<path fill="#FFFFFF" d="M35.517,62.235C26.839,56.007,22.2,46.117,21.561,43.631l-0.446-1.733l1.786-0.131
			c2.977-0.219,13.438,0.951,22.17,6.563l-1.125,2.175c-6.657-4.278-14.969-5.573-18.844-5.75
			c1.469,3.71,5.256,11.103,11.683,15.716L35.517,62.235z"/>
	</g>
	<path fill="#F9B162" d="M22.746,60.521c0.709,2.761,3.19,9.487,11.267,15.283l0,0c9.1,6.531,13.446,3.079,14.186,2.368
		c0.377-0.92,2.016-6.243-7.428-12.313C32.441,60.506,25.518,60.317,22.746,60.521z"/>
	<g>
		<path fill="#FFFFFF" d="M35.277,79.277c-8.679-6.229-13.471-15.902-14.111-18.389l-0.445-1.733l1.786-0.131
			c2.977-0.218,13.095,0.957,21.826,6.568l-0.79,2.167c-6.658-4.279-14.959-5.572-18.835-5.749
			c1.469,3.711,5.256,11.104,11.683,15.716L35.277,79.277z"/>
	</g>
	<path d="M49.904,100c-0.737,0-1.334-0.445-1.334-0.994V35.101c0-0.55,2.668-0.55,2.668,0v63.905
		C51.239,99.555,50.642,100,49.904,100z"/>
	<path d="M56.263,48.028c-4.312,0-6.453-2.432-6.596-2.601c-0.061-0.072-0.114-0.15-0.159-0.233
		c-0.173-0.323-4.087-8.003,8.279-15.95c11.807-7.588,20.97-5.624,21.354-5.537c0.659,0.15,1.102,0.769,1.032,1.439
		c-0.044,0.415-1.195,10.25-12.629,18.456l0,0C62.825,46.99,59.08,48.028,56.263,48.028z M51.803,43.805
		c0.709,0.686,5.055,4.184,14.185-2.37l0,0c8.123-5.83,10.577-12.53,11.274-15.283c-2.767-0.205-9.694-0.021-18.032,5.339
		C49.775,37.566,51.436,42.91,51.803,43.805z"/>
	<path d="M44.004,48.028c-2.817,0.001-6.562-1.038-11.282-4.426l0,0c-11.434-8.206-12.586-18.041-12.629-18.456
		c-0.07-0.671,0.373-1.289,1.032-1.439c0.383-0.087,9.546-2.052,21.354,5.537c12.367,7.947,8.452,15.627,8.279,15.95
		c-0.044,0.083-0.097,0.161-0.159,0.233C50.457,45.597,48.315,48.028,44.004,48.028z M23.012,26.15
		c0.709,2.762,3.189,9.487,11.267,15.284l0,0c9.099,6.531,13.446,3.079,14.186,2.368c0.378-0.92,2.017-6.243-7.428-12.313
		C32.708,26.137,25.784,25.947,23.012,26.15z"/>
	<path d="M56.263,65.137c-4.313,0-6.453-2.432-6.596-2.602c-0.061-0.071-0.114-0.15-0.159-0.233
		c-0.173-0.323-4.087-8.002,8.279-15.948c11.808-7.589,20.971-5.625,21.354-5.538c0.659,0.149,1.102,0.768,1.032,1.44
		c-0.044,0.414-1.195,10.249-12.629,18.455l0,0C62.825,64.098,59.08,65.137,56.263,65.137z M51.803,60.913
		c0.709,0.685,5.054,4.183,14.185-2.37c8.075-5.796,10.556-12.521,11.267-15.284c-2.769-0.202-9.694-0.015-18.025,5.339
		C49.775,54.674,51.436,60.018,51.803,60.913z M66.766,59.627h0.005H66.766z"/>
	<path fill="#F9B162" d="M49.505,3.293c-1.712,2.186-5.417,8.039-5.617,17.939c-0.227,11.198,5.081,12.824,6.086,13.031
		c0.972-0.211,6.287-1.876,5.938-13.097l0,0C55.603,11.232,51.404,5.424,49.505,3.293z"/>
	<g>
		<g>
			<path fill="#FFFFFF" d="M48.812,35.722c-1.978-1.218-6.649-3.208-6.42-14.52c0.211-10.427,4.715-17.041,6.429-19.229l1.863,2.242
				c-1.529,1.953-5.107,7.522-5.3,17.048c-0.194,9.601,2.98,11.875,4.59,13.001c0.709,0.496-0.35,0.746-0.237,0.82
				C49.737,35.084,48.928,35.793,48.812,35.722z"/>
		</g>
	</g>
	<path d="M44.004,65.137c-2.817,0-6.562-1.039-11.282-4.426l0,0C21.289,52.505,20.137,42.67,20.093,42.256
		c-0.07-0.673,0.373-1.291,1.032-1.44c0.384-0.087,9.548-2.051,21.354,5.538c12.367,7.946,8.452,15.625,8.279,15.948
		c-0.044,0.083-0.097,0.162-0.159,0.233C50.457,62.705,48.316,65.137,44.004,65.137z M34.279,58.543
		c9.101,6.531,13.446,3.079,14.186,2.368c0.378-0.921,2.017-6.244-7.428-12.313c-8.381-5.387-15.269-5.559-18.027-5.346
		C23.718,46.009,26.195,52.741,34.279,58.543L34.279,58.543z"/>
	<path d="M56.072,82.397c-4.313,0-6.453-2.432-6.596-2.602c-0.061-0.071-0.114-0.149-0.159-0.232
		c-0.172-0.323-4.087-8.002,8.279-15.949c11.807-7.589,20.971-5.625,21.354-5.538c0.659,0.15,1.102,0.769,1.032,1.44
		c-0.044,0.414-1.195,10.249-12.63,18.456l0,0C62.634,81.359,58.889,82.397,56.072,82.397z M51.614,78.177
		c0.716,0.69,5.062,4.174,14.183-2.373l0,0c8.123-5.83,10.577-12.529,11.273-15.283c-2.766-0.205-9.694-0.021-18.032,5.339
		C49.616,71.915,51.226,77.228,51.614,78.177z"/>
	<path d="M43.738,82.397c-2.817,0-6.562-1.038-11.281-4.425l0,0c-11.435-8.207-12.586-18.042-12.63-18.456
		c-0.071-0.672,0.373-1.29,1.031-1.44c0.384-0.087,9.547-2.052,21.355,5.538c12.366,7.947,8.452,15.626,8.279,15.949
		c-0.044,0.083-0.098,0.161-0.158,0.232C50.191,79.966,48.05,82.397,43.738,82.397z M22.746,60.521
		c0.71,2.761,3.19,9.486,11.267,15.283l0,0c9.1,6.531,13.446,3.078,14.186,2.367c0.377-0.92,2.016-6.242-7.428-12.312
		C32.441,60.506,25.518,60.316,22.746,60.521z"/>
	<path d="M49.979,36.95c-0.045,0-0.089-0.002-0.134-0.007c-0.365-0.037-8.922-1.068-8.625-15.766
		c0.284-14.032,7.022-20.544,7.31-20.814C49.021-0.1,49.781-0.123,50.3,0.311c0.32,0.267,7.842,6.706,8.279,20.773l0,0
		c0.457,14.692-8.089,15.817-8.453,15.858C50.078,36.947,50.028,36.95,49.979,36.95z M49.505,3.293
		c-1.712,2.186-5.417,8.039-5.617,17.939c-0.227,11.198,5.081,12.824,6.086,13.031c0.972-0.211,6.287-1.876,5.938-13.097l0,0
		C55.603,11.232,51.404,5.424,49.505,3.293z"/>
	<path d="M46.812,19.918c-0.022,0-0.044-0.001-0.067-0.003c-0.735-0.035-1.303-0.662-1.267-1.398
		c0.34-6.856,2.905-10.383,3.014-10.53c0.439-0.591,1.275-0.715,1.867-0.275c0.59,0.438,0.714,1.27,0.279,1.861
		c-0.042,0.06-2.2,3.123-2.495,9.077C48.108,19.362,47.518,19.918,46.812,19.918z"/>
	<path d="M63.103,51.835c-0.379,0-0.755-0.16-1.019-0.471c-0.476-0.562-0.408-1.401,0.153-1.878
		c0.179-0.153,4.454-3.736,10.297-4.193c0.737-0.06,1.377,0.491,1.434,1.226c0.058,0.735-0.491,1.377-1.226,1.435
		c-4.958,0.388-8.74,3.536-8.778,3.567C63.713,51.732,63.407,51.835,63.103,51.835z"/>
	<path d="M37.79,35.348c-0.313,0-0.627-0.109-0.881-0.332c-0.056-0.049-3.774-3.251-8.711-3.729c-0.733-0.07-1.271-0.723-1.2-1.456
		s0.725-1.269,1.456-1.199c5.834,0.563,10.042,4.226,10.219,4.382c0.553,0.487,0.605,1.33,0.118,1.883
		C38.526,35.195,38.159,35.348,37.79,35.348z"/>
	<path d="M37.022,68.908c-0.282,0-0.566-0.088-0.808-0.272l0,0c-0.035-0.027-3.616-2.716-8.632-3.715
		c-0.723-0.145-1.192-0.847-1.047-1.569c0.144-0.723,0.847-1.194,1.569-1.048c5.647,1.126,9.566,4.086,9.729,4.211
		c0.585,0.447,0.697,1.285,0.25,1.87C37.82,68.729,37.423,68.908,37.022,68.908z"/>
</g>
</svg>
