<?xml version="1.0" encoding="utf-8"?>
<!-- Generator: Adobe Illustrator 27.6.1, SVG Export Plug-In . SVG Version: 6.00 Build 0)  -->
<svg version="1.1" id="Ebene_1" xmlns="http://www.w3.org/2000/svg" xmlns:xlink="http://www.w3.org/1999/xlink" x="0px" y="0px"
	 viewBox="0 0 128 128" style="enable-background:new 0 0 128 128;" xml:space="preserve">
<style type="text/css">
	.st0{fill:#F9B162;}
	.st1{fill:#FFFFFF;}
</style>
<g>
	<path d="M48.09,120.63v-1.04l3.74-0.01v3.28c-0.57,0.46-1.17,0.8-1.78,1.03c-0.61,0.23-1.24,0.35-1.88,0.35
		c-0.87,0-1.65-0.19-2.36-0.56c-0.71-0.37-1.24-0.91-1.6-1.61c-0.36-0.7-0.54-1.49-0.54-2.35c0-0.86,0.18-1.66,0.54-2.41
		c0.36-0.74,0.88-1.3,1.55-1.66c0.67-0.36,1.45-0.54,2.33-0.54c0.64,0,1.22,0.1,1.73,0.31c0.52,0.21,0.92,0.49,1.21,0.86
		c0.29,0.37,0.52,0.85,0.67,1.44l-1.05,0.29c-0.13-0.45-0.3-0.8-0.49-1.06c-0.2-0.26-0.48-0.46-0.84-0.62
		c-0.37-0.15-0.77-0.23-1.22-0.23c-0.53,0-1,0.08-1.38,0.24c-0.39,0.16-0.7,0.38-0.94,0.64c-0.24,0.27-0.42,0.56-0.56,0.87
		c-0.22,0.55-0.34,1.14-0.34,1.78c0,0.79,0.14,1.44,0.41,1.97c0.27,0.53,0.67,0.92,1.18,1.18c0.52,0.26,1.07,0.39,1.65,0.39
		c0.51,0,1-0.1,1.48-0.29c0.48-0.19,0.85-0.4,1.1-0.62v-1.64H48.09z"/>
	<path d="M53.39,124.09v-8.83h1.08v8.83H53.39z"/>
	<path d="M60.34,124.09v-0.94c-0.5,0.72-1.17,1.08-2.03,1.08c-0.38,0-0.73-0.07-1.06-0.22c-0.33-0.14-0.57-0.33-0.73-0.54
		c-0.16-0.22-0.27-0.49-0.33-0.8c-0.04-0.21-0.07-0.55-0.07-1.01v-3.96h1.08v3.55c0,0.57,0.02,0.95,0.07,1.14
		c0.07,0.29,0.21,0.51,0.43,0.67c0.22,0.16,0.49,0.24,0.82,0.24c0.32,0,0.63-0.08,0.92-0.25c0.28-0.17,0.49-0.39,0.6-0.68
		c0.12-0.29,0.18-0.7,0.18-1.25v-3.43h1.08v6.39H60.34z"/>
	<path d="M65.38,123.12l0.16,0.96c-0.31,0.06-0.58,0.1-0.82,0.1c-0.39,0-0.7-0.06-0.92-0.19c-0.22-0.12-0.37-0.29-0.46-0.49
		c-0.09-0.2-0.13-0.63-0.13-1.28v-3.68h-0.79v-0.84h0.79v-1.58l1.08-0.65v2.23h1.09v0.84h-1.09v3.74c0,0.31,0.02,0.51,0.06,0.6
		c0.04,0.09,0.1,0.16,0.19,0.21c0.09,0.05,0.21,0.08,0.37,0.08C65.02,123.16,65.18,123.15,65.38,123.12z"/>
	<path d="M70.81,122.03l1.12,0.14c-0.18,0.65-0.5,1.16-0.98,1.52c-0.48,0.36-1.09,0.54-1.83,0.54c-0.94,0-1.68-0.29-2.22-0.86
		c-0.55-0.58-0.82-1.38-0.82-2.42c0-1.08,0.28-1.91,0.83-2.5c0.55-0.59,1.27-0.89,2.16-0.89c0.86,0,1.55,0.29,2.1,0.87
		c0.54,0.58,0.81,1.4,0.81,2.46c0,0.06,0,0.16-0.01,0.29h-4.77c0.04,0.7,0.24,1.24,0.6,1.61c0.36,0.37,0.8,0.56,1.34,0.56
		c0.4,0,0.74-0.1,1.02-0.31C70.42,122.82,70.65,122.49,70.81,122.03z M67.25,120.28h3.57c-0.05-0.54-0.18-0.94-0.41-1.21
		c-0.35-0.42-0.79-0.63-1.34-0.63c-0.5,0-0.92,0.17-1.26,0.5C67.48,119.28,67.29,119.72,67.25,120.28z"/>
	<path d="M73.29,124.09v-6.39h0.98v0.91c0.47-0.7,1.15-1.05,2.03-1.05c0.39,0,0.74,0.07,1.06,0.21c0.32,0.14,0.56,0.32,0.73,0.54
		c0.16,0.22,0.27,0.49,0.34,0.8c0.04,0.2,0.06,0.55,0.06,1.05v3.93H77.4v-3.89c0-0.44-0.04-0.77-0.13-0.99
		c-0.08-0.22-0.23-0.39-0.45-0.52c-0.21-0.13-0.47-0.2-0.76-0.2c-0.46,0-0.86,0.15-1.2,0.44c-0.34,0.29-0.5,0.85-0.5,1.67v3.49
		H73.29z"/>
</g>
<g>
	<path class="st0" d="M62.69,42.65c0.64,0.61,4.53,3.75,12.73-2.13l0,0c7.29-5.23,9.49-11.24,10.11-13.71
		c-2.48-0.18-8.7-0.02-16.18,4.79C60.87,37.05,62.37,41.85,62.69,42.65z"/>
	<g>
		<path class="st1" d="M67.3,46.17c-0.51,0-1.01-0.04-1.5-0.12c-2.74-0.47-4.03-2.16-4.35-2.67l-0.06-0.11
			c-1.06-2.02-0.97-9.15,11.49-16.13L75,28.49C64.45,34.4,63.3,40.93,63.75,41.98c0.2,0.28,0.94,1.15,2.52,1.43
			c2,0.34,6.28-0.63,12.22-5.19l0.59,2.05C74.39,43.86,70.7,46.17,67.3,46.17z"/>
	</g>
	<path class="st0" d="M62.69,58.01c0.64,0.61,4.53,3.75,12.73-2.13l0,0c7.29-5.23,9.49-11.24,10.11-13.71
		c-2.48-0.18-8.7-0.02-16.18,4.79C60.87,52.42,62.37,57.21,62.69,58.01z"/>
	<g>
		<path class="st1" d="M67.3,61.54c-0.51,0-1.01-0.04-1.5-0.12c-2.74-0.47-4.03-2.16-4.35-2.67l-0.06-0.11
			c-1.06-2.02-1.09-9.14,11.38-16.12l1.44,1.58c-10.55,5.91-10.91,12.2-10.46,13.24c0.2,0.28,0.94,1.15,2.52,1.43
			c2,0.34,6.28-0.64,12.22-5.2l0.59,2.06C74.39,59.22,70.7,61.54,67.3,61.54z"/>
	</g>
	<path class="st0" d="M62.52,73.48c0.64,0.61,4.53,3.75,12.73-2.13l0,0c7.29-5.23,9.49-11.24,10.11-13.71
		c-2.48-0.18-8.7-0.02-16.18,4.79C60.7,67.89,62.19,72.68,62.52,73.48z"/>
	<g>
		<path class="st1" d="M67.3,76.61c-0.51,0-1.01-0.04-1.5-0.12c-2.74-0.47-4.03-2.16-4.35-2.67l-0.06-0.11
			c-1.06-2.02-0.98-8.83,11.48-15.81l1.02,1.82C63.34,65.63,63.3,71.37,63.75,72.42c0.2,0.28,0.94,1.15,2.52,1.43
			c2,0.34,6.03-0.05,11.97-4.6l1.11,1.49C74.67,74.31,70.7,76.61,67.3,76.61z"/>
	</g>
	<path class="st0" d="M36.86,26.81c0.64,2.48,2.86,8.51,10.11,13.71l0,0c8.16,5.86,12.06,2.76,12.73,2.12
		c0.34-0.83,1.81-5.6-6.66-11.05C45.56,26.8,39.35,26.63,36.86,26.81z"/>
	<g>
		<path class="st1" d="M48.07,43.86c-7.79-5.59-11.93-14.48-12.51-16.71l-0.4-1.56l1.6-0.12c2.67-0.2,11.88,0.76,19.71,5.79
			l-0.89,1.91c-5.97-3.84-13.37-4.87-16.85-5.03c1.32,3.33,4.72,9.96,10.48,14.1L48.07,43.86z"/>
	</g>
	<path class="st0" d="M36.86,42.16c0.64,2.48,2.86,8.51,10.11,13.71l0,0c8.16,5.86,12.06,2.76,12.73,2.12
		c0.34-0.83,1.81-5.6-6.66-11.05C45.56,42.15,39.35,41.98,36.86,42.16z"/>
	<g>
		<path class="st1" d="M48.08,59.18C40.3,53.6,36.14,44.72,35.56,42.49l-0.4-1.56l1.6-0.12c2.67-0.2,12.06,0.85,19.89,5.89
			l-1.01,1.95c-5.97-3.84-13.43-5-16.91-5.16c1.32,3.33,4.72,9.96,10.48,14.1L48.08,59.18z"/>
	</g>
	<path class="st0" d="M36.62,57.65c0.64,2.48,2.86,8.51,10.11,13.71l0,0c8.16,5.86,12.06,2.76,12.73,2.12
		c0.34-0.83,1.81-5.6-6.66-11.05C45.32,57.63,39.11,57.46,36.62,57.65z"/>
	<g>
		<path class="st1" d="M47.87,74.47c-7.79-5.59-12.09-14.27-12.66-16.5l-0.4-1.56l1.6-0.12c2.67-0.19,11.75,0.86,19.58,5.89
			l-0.71,1.94c-5.97-3.84-13.42-5-16.9-5.16c1.32,3.33,4.72,9.96,10.48,14.1L47.87,74.47z"/>
	</g>
	<path d="M60.99,93.07c-0.66,0-1.2-0.4-1.2-0.89V34.84c0-0.49,2.39-0.49,2.39,0v57.33C62.19,92.67,61.65,93.07,60.99,93.07z"/>
	<path d="M66.7,46.44c-3.87,0-5.79-2.18-5.92-2.33c-0.05-0.06-0.1-0.13-0.14-0.21c-0.15-0.29-3.67-7.18,7.43-14.31
		c10.59-6.81,18.81-5.05,19.16-4.97c0.59,0.13,0.99,0.69,0.93,1.29c-0.04,0.37-1.07,9.2-11.33,16.56l0,0
		C72.58,45.51,69.22,46.44,66.7,46.44z M62.69,42.65c0.64,0.61,4.53,3.75,12.73-2.13l0,0c7.29-5.23,9.49-11.24,10.11-13.71
		c-2.48-0.18-8.7-0.02-16.18,4.79C60.87,37.05,62.37,41.85,62.69,42.65z"/>
	<path d="M55.7,46.44c-2.53,0-5.89-0.93-10.12-3.97l0,0c-10.26-7.36-11.29-16.19-11.33-16.56c-0.06-0.6,0.33-1.16,0.93-1.29
		c0.34-0.08,8.56-1.84,19.16,4.97c11.09,7.13,7.58,14.02,7.43,14.31c-0.04,0.07-0.09,0.14-0.14,0.21
		C61.49,44.26,59.57,46.44,55.7,46.44z M36.86,26.81c0.64,2.48,2.86,8.51,10.11,13.71l0,0c8.16,5.86,12.06,2.76,12.73,2.12
		c0.34-0.83,1.81-5.6-6.66-11.05C45.56,26.8,39.35,26.63,36.86,26.81z"/>
	<path d="M66.7,61.79c-3.87,0-5.79-2.18-5.92-2.33c-0.05-0.06-0.1-0.13-0.14-0.21c-0.15-0.29-3.67-7.18,7.43-14.31
		c10.59-6.81,18.81-5.05,19.16-4.97c0.59,0.13,0.99,0.69,0.93,1.29c-0.04,0.37-1.07,9.2-11.33,16.56l0,0
		C72.58,60.86,69.22,61.79,66.7,61.79z M62.69,58c0.64,0.61,4.53,3.75,12.73-2.13c7.24-5.2,9.47-11.23,10.11-13.71
		c-2.48-0.18-8.7-0.01-16.17,4.79C60.87,52.4,62.37,57.2,62.69,58z M76.12,56.84L76.12,56.84L76.12,56.84z"/>
	<path class="st0" d="M60.63,6.3c-1.54,1.96-4.86,7.21-5.04,16.1c-0.2,10.05,4.56,11.51,5.46,11.69c0.87-0.19,5.64-1.68,5.33-11.75
		l0,0C66.1,13.43,62.34,8.22,60.63,6.3z"/>
	<g>
		<g>
			<path class="st1" d="M60.01,35.4c-1.77-1.09-5.97-2.88-5.76-13.03c0.19-9.35,4.23-15.29,5.77-17.25l1.67,2.01
				c-1.37,1.75-4.58,6.75-4.75,15.29c-0.17,8.61,2.67,10.65,4.12,11.66c0.64,0.45-0.31,0.67-0.21,0.74
				C60.84,34.83,60.11,35.46,60.01,35.4z"/>
		</g>
	</g>
	<path d="M55.7,61.79c-2.53,0-5.89-0.93-10.12-3.97l0,0c-10.26-7.36-11.29-16.19-11.33-16.56c-0.06-0.6,0.33-1.16,0.93-1.29
		c0.34-0.08,8.57-1.84,19.16,4.97c11.09,7.13,7.58,14.02,7.43,14.31c-0.04,0.07-0.09,0.14-0.14,0.21
		C61.49,59.61,59.57,61.79,55.7,61.79z M46.97,55.87c8.16,5.86,12.06,2.76,12.73,2.12c0.34-0.83,1.81-5.6-6.66-11.05
		c-7.52-4.83-13.7-4.99-16.17-4.8C37.5,44.63,39.72,50.67,46.97,55.87L46.97,55.87z"/>
	<path d="M66.52,77.27c-3.87,0-5.79-2.18-5.92-2.33c-0.05-0.06-0.1-0.13-0.14-0.21c-0.15-0.29-3.67-7.18,7.43-14.31
		c10.59-6.81,18.81-5.05,19.16-4.97c0.59,0.13,0.99,0.69,0.93,1.29c-0.04,0.37-1.07,9.2-11.33,16.56l0,0
		C72.41,76.34,69.05,77.27,66.52,77.27z M62.52,73.49c0.64,0.62,4.54,3.75,12.72-2.13l0,0c7.29-5.23,9.49-11.24,10.11-13.71
		c-2.48-0.18-8.7-0.02-16.18,4.79C60.73,67.87,62.18,72.63,62.52,73.49z"/>
	<path d="M55.46,77.27c-2.53,0-5.89-0.93-10.12-3.97l0,0c-10.26-7.36-11.29-16.19-11.33-16.56c-0.06-0.6,0.33-1.16,0.93-1.29
		c0.34-0.08,8.56-1.84,19.16,4.97c11.09,7.13,7.58,14.02,7.43,14.31c-0.04,0.07-0.09,0.14-0.14,0.21
		C61.25,75.09,59.33,77.27,55.46,77.27z M36.62,57.65c0.64,2.48,2.86,8.51,10.11,13.71l0,0c8.16,5.86,12.06,2.76,12.73,2.12
		c0.34-0.83,1.81-5.6-6.66-11.05C45.32,57.63,39.11,57.46,36.62,57.65z"/>
	<path d="M61.06,36.5c-0.04,0-0.08,0-0.12-0.01c-0.33-0.03-8-0.96-7.74-14.14c0.25-12.59,6.3-18.43,6.56-18.67
		c0.44-0.42,1.12-0.44,1.59-0.05c0.29,0.24,7.04,6.02,7.43,18.64l0,0c0.41,13.18-7.26,14.19-7.58,14.23
		C61.15,36.5,61.1,36.5,61.06,36.5z M60.63,6.3c-1.54,1.96-4.86,7.21-5.04,16.1c-0.2,10.05,4.56,11.51,5.46,11.69
		c0.87-0.19,5.64-1.68,5.33-11.75l0,0C66.1,13.43,62.34,8.22,60.63,6.3z"/>
	<path d="M58.22,21.22c-0.02,0-0.04,0-0.06,0c-0.66-0.03-1.17-0.59-1.14-1.25c0.3-6.15,2.61-9.32,2.7-9.45
		c0.39-0.53,1.14-0.64,1.67-0.25c0.53,0.39,0.64,1.14,0.25,1.67c-0.04,0.05-1.97,2.8-2.24,8.14C59.38,20.72,58.85,21.22,58.22,21.22
		z"/>
	<path d="M72.83,49.85c-0.34,0-0.68-0.14-0.91-0.42c-0.43-0.5-0.37-1.26,0.14-1.68c0.16-0.14,4-3.35,9.24-3.76
		c0.66-0.05,1.24,0.44,1.29,1.1c0.05,0.66-0.44,1.24-1.1,1.29c-4.45,0.35-7.84,3.17-7.88,3.2C73.38,49.76,73.1,49.85,72.83,49.85z"
		/>
	<path d="M50.12,35.06c-0.28,0-0.56-0.1-0.79-0.3c-0.05-0.04-3.39-2.92-7.82-3.34c-0.66-0.06-1.14-0.65-1.08-1.31
		c0.06-0.66,0.65-1.14,1.31-1.08c5.23,0.51,9.01,3.79,9.17,3.93c0.5,0.44,0.54,1.19,0.11,1.69C50.78,34.93,50.45,35.06,50.12,35.06z
		"/>
	<path d="M49.43,65.17c-0.25,0-0.51-0.08-0.72-0.25l0,0c-0.03-0.02-3.24-2.44-7.74-3.33c-0.65-0.13-1.07-0.76-0.94-1.41
		c0.13-0.65,0.76-1.07,1.41-0.94c5.07,1.01,8.58,3.67,8.73,3.78c0.53,0.4,0.63,1.15,0.22,1.68C50.15,65.01,49.79,65.17,49.43,65.17z
		"/>
</g>
</svg>
