<?xml version="1.0" encoding="utf-8"?>
<!-- Generator: Adobe Illustrator 16.0.0, SVG Export Plug-In . SVG Version: 6.00 Build 0)  -->
<!DOCTYPE svg PUBLIC "-//W3C//DTD SVG 1.1//EN" "http://www.w3.org/Graphics/SVG/1.1/DTD/svg11.dtd">
<svg version="1.1" id="Layer_1" xmlns="http://www.w3.org/2000/svg" xmlns:xlink="http://www.w3.org/1999/xlink" x="0px" y="0px"
	 width="100px" height="100px" viewBox="0 0 100 100" enable-background="new 0 0 100 100" xml:space="preserve">
<g>
	<path fill="#FFFFFF" d="M21.447,11.232c-3.548,0.035-8.755,1.526-12.731,5.603c-3.931,4.028-5.87,9.649-5.767,16.708
		C3.168,48.436,7.87,55.756,17.323,55.922c0.062,0.001,0.124,0.002,0.187,0.002c7.455,0,19.021-7.726,21.21-20.531
		c1.29-7.552-0.105-14.388-3.828-18.756c-3.057-3.588-7.488-5.404-13.175-5.404C21.627,11.232,21.537,11.232,21.447,11.232
		L21.447,11.232z M21.433,9.761h0.005H21.433z"/>
	<path fill="#FFFFFF" d="M49.637,92.566c7.801,0.406,16.395-6.195,17.765-19.564c0.839-8.19-1.767-13.309-4.1-16.159
		c-2.59-3.163-6.164-5.181-9.808-5.535c-10.709-1.044-17.112,3.373-19.039,13.118c-1.494,7.567,0.52,16.278,5.133,22.192
		C42.436,90.27,46.005,92.382,49.637,92.566L49.637,92.566z"/>
	<path fill="#FFBE57" d="M51.288,94.631c7.801,0.406,16.395-6.196,17.765-19.564c0.839-8.19-1.767-13.309-4.1-16.159
		c-2.59-3.164-6.164-5.182-9.808-5.535c-10.709-1.045-17.113,3.372-19.039,13.117c-1.495,7.567,0.52,16.279,5.133,22.192
		C44.087,92.333,47.656,94.445,51.288,94.631L51.288,94.631z"/>
	<path fill="#FFBE57" d="M23.099,13.297c-3.548,0.035-8.755,1.525-12.731,5.603c-3.931,4.028-5.87,9.649-5.767,16.707
		C4.819,50.5,9.521,57.82,18.975,57.986c0.062,0.001,0.124,0.001,0.187,0.001c7.455,0,19.021-7.725,21.21-20.531
		c1.29-7.551-0.105-14.388-3.828-18.756c-3.057-3.587-7.488-5.404-13.176-5.404C23.277,13.296,23.188,13.296,23.099,13.297
		L23.099,13.297z M23.083,11.824h0.006H23.083z"/>
	<path d="M17.528,58.869c-0.086,0-0.171-0.002-0.257-0.003C6.058,58.669,0.249,50.164,0.005,33.586
		c-0.114-7.76,2.17-14.263,6.603-18.808c4.607-4.722,10.672-6.448,14.81-6.49l0,0c6.635-0.051,12.071,2.16,15.716,6.438
		c4.29,5.034,5.927,12.747,4.488,21.161C39.292,49.518,27.121,58.867,17.528,58.869z M21.447,11.232
		c-3.548,0.035-8.755,1.526-12.731,5.603c-3.931,4.028-5.87,9.649-5.767,16.708C3.168,48.436,7.87,55.756,17.323,55.922
		c0.062,0.001,0.124,0.002,0.187,0.002c7.455,0,19.021-7.726,21.21-20.531c1.29-7.552-0.105-14.388-3.828-18.756
		c-3.057-3.588-7.488-5.404-13.175-5.404C21.627,11.232,21.537,11.232,21.447,11.232L21.447,11.232z M21.433,9.761h0.005H21.433z"/>
	<path d="M50.301,95.528c-0.272,0-0.543-0.007-0.813-0.021l0,0c-4.499-0.229-8.84-2.743-12.221-7.078
		c-5.116-6.559-7.354-16.205-5.699-24.575c2.235-11.321,9.919-16.675,22.213-15.478c4.417,0.429,8.718,2.835,11.8,6.601
		c2.688,3.283,5.692,9.128,4.751,18.325C68.82,88.051,59.254,95.528,50.301,95.528z M49.637,92.566
		c7.801,0.406,16.395-6.195,17.765-19.564c0.839-8.19-1.767-13.309-4.1-16.159c-2.59-3.163-6.164-5.181-9.808-5.535
		c-10.709-1.044-17.112,3.373-19.039,13.118c-1.494,7.567,0.52,16.278,5.133,22.192C42.436,90.27,46.005,92.382,49.637,92.566
		L49.637,92.566z"/>
	<path fill="#FFFFFF" d="M70.088,8.037c-4.611,1-8.677,4.62-11.153,9.933c-2.704,5.802-2.999,12.589-0.732,16.891
		c4.566,8.669,20.038,15.404,25.982,12.807c6.392-2.795,13.243-11.913,12.856-20.529c-0.252-5.583-3.556-11.609-8.417-15.353
		C85.033,9.02,78.903,6.125,70.088,8.037L70.088,8.037z"/>
	<path fill="#FFBE57" d="M71.738,10.101c-4.611,1-8.676,4.62-11.152,9.933c-2.704,5.802-2.999,12.59-0.732,16.891
		c4.566,8.669,20.037,15.404,25.981,12.808c6.393-2.795,13.244-11.914,12.857-20.529c-0.252-5.583-3.556-11.61-8.417-15.353
		C86.684,11.084,80.555,8.188,71.738,10.101L71.738,10.101z"/>
	<path d="M81.006,51.163c-8.563,0-21.211-6.961-25.409-14.931c-2.715-5.153-2.452-12.811,0.669-19.507
		c2.869-6.154,7.679-10.37,13.197-11.566h0.001c9.919-2.15,16.871,1.147,20.956,4.293c5.605,4.315,9.269,11.042,9.563,17.554
		c0.447,9.954-7.197,20.114-14.618,23.359C84.117,50.91,82.635,51.163,81.006,51.163z M70.088,8.037
		c-4.611,1-8.677,4.62-11.153,9.933c-2.704,5.802-2.999,12.589-0.732,16.891c4.566,8.669,20.038,15.404,25.982,12.807
		c6.392-2.795,13.243-11.913,12.856-20.529c-0.252-5.583-3.556-11.609-8.417-15.353C85.033,9.02,78.903,6.125,70.088,8.037
		L70.088,8.037z"/>
	<path d="M7.677,40.332c-0.702,0-1.324-0.504-1.448-1.22C3.141,21.389,17.052,15.293,17.192,15.234
		c0.749-0.317,1.613,0.035,1.929,0.783c0.316,0.748-0.033,1.61-0.781,1.928c-0.51,0.22-11.884,5.315-9.211,20.662
		c0.14,0.801-0.396,1.563-1.198,1.703C7.846,40.325,7.761,40.332,7.677,40.332z"/>
	<path d="M39.085,78.459c-0.687,0.001-1.302-0.482-1.441-1.182c-3.25-16.189,8.458-22.19,8.576-22.249
		c0.729-0.361,1.612-0.063,1.973,0.666c0.36,0.728,0.064,1.608-0.662,1.971c-0.417,0.211-9.79,5.136-7,19.032
		c0.159,0.797-0.356,1.574-1.153,1.733C39.278,78.45,39.182,78.459,39.085,78.459z"/>
	<path d="M60.624,30.725c-0.803-0.09-1.384-0.81-1.302-1.614c1.69-16.426,14.65-18.691,14.781-18.712
		c0.801-0.131,1.558,0.418,1.687,1.221c0.129,0.802-0.415,1.555-1.215,1.687c-0.454,0.076-10.872,2.002-12.323,16.106
		c-0.083,0.809-0.807,1.397-1.615,1.313C60.633,30.726,60.628,30.725,60.624,30.725z"/>
</g>
</svg>
