<?xml version="1.0" encoding="utf-8"?>
<!-- Generator: Adobe Illustrator 27.6.1, SVG Export Plug-In . SVG Version: 6.00 Build 0)  -->
<svg version="1.1" id="Ebene_1" xmlns="http://www.w3.org/2000/svg" xmlns:xlink="http://www.w3.org/1999/xlink" x="0px" y="0px"
	 viewBox="0 0 128 128" style="enable-background:new 0 0 128 128;" xml:space="preserve">
<style type="text/css">
	.st0{fill:#FFFFFF;}
	.st1{fill:#FFBE57;}
</style>
<g>
	<path d="M48.47,111.78v-7.84h1.04v6.91h3.86v0.92H48.47z"/>
	<path d="M58.2,111.78v-0.83c-0.44,0.64-1.04,0.96-1.8,0.96c-0.34,0-0.65-0.06-0.94-0.19c-0.29-0.13-0.51-0.29-0.65-0.48
		c-0.14-0.19-0.24-0.43-0.3-0.71c-0.04-0.19-0.06-0.49-0.06-0.9v-3.52h0.96v3.15c0,0.5,0.02,0.84,0.06,1.02
		c0.06,0.25,0.19,0.45,0.39,0.6c0.2,0.14,0.44,0.22,0.73,0.22c0.29,0,0.56-0.07,0.81-0.22c0.25-0.15,0.43-0.35,0.54-0.6
		c0.11-0.25,0.16-0.62,0.16-1.11v-3.04h0.96v5.68H58.2z"/>
	<path d="M60.57,113.96v-7.86h0.88v0.74c0.21-0.29,0.44-0.51,0.7-0.65c0.26-0.14,0.58-0.22,0.95-0.22c0.48,0,0.91,0.12,1.28,0.37
		c0.37,0.25,0.65,0.6,0.84,1.06c0.19,0.45,0.28,0.95,0.28,1.49c0,0.58-0.1,1.1-0.31,1.57c-0.21,0.47-0.51,0.82-0.91,1.07
		c-0.4,0.25-0.82,0.37-1.25,0.37c-0.32,0-0.61-0.07-0.86-0.2c-0.25-0.14-0.46-0.31-0.63-0.51v2.76H60.57z M61.44,108.97
		c0,0.73,0.15,1.27,0.44,1.62c0.3,0.35,0.65,0.52,1.07,0.52c0.43,0,0.79-0.18,1.1-0.54c0.3-0.36,0.46-0.92,0.46-1.68
		c0-0.72-0.15-1.27-0.45-1.63c-0.3-0.36-0.65-0.54-1.07-0.54c-0.41,0-0.77,0.19-1.09,0.57C61.6,107.68,61.44,108.24,61.44,108.97z"
		/>
	<path d="M66.66,105.05v-1.11h0.96v1.11H66.66z M66.66,111.78v-5.68h0.96v5.68H66.66z"/>
	<path d="M69.09,111.78v-5.68h0.87v0.81c0.42-0.62,1.02-0.94,1.81-0.94c0.34,0,0.66,0.06,0.94,0.18c0.29,0.12,0.5,0.28,0.64,0.48
		c0.14,0.2,0.24,0.44,0.3,0.71c0.04,0.18,0.05,0.49,0.05,0.94v3.49h-0.96v-3.45c0-0.39-0.04-0.69-0.11-0.88
		c-0.07-0.19-0.21-0.35-0.4-0.47c-0.19-0.12-0.41-0.17-0.67-0.17c-0.41,0-0.76,0.13-1.06,0.39c-0.3,0.26-0.45,0.75-0.45,1.48v3.1
		H69.09z"/>
	<path d="M79.07,109.95l0.99,0.12c-0.16,0.58-0.45,1.03-0.87,1.35c-0.42,0.32-0.97,0.48-1.63,0.48c-0.83,0-1.49-0.26-1.98-0.77
		c-0.49-0.51-0.73-1.23-0.73-2.15c0-0.96,0.25-1.7,0.74-2.22c0.49-0.53,1.13-0.79,1.91-0.79c0.76,0,1.38,0.26,1.86,0.78
		c0.48,0.52,0.72,1.24,0.72,2.18c0,0.06,0,0.14-0.01,0.26h-4.24c0.04,0.62,0.21,1.1,0.53,1.43c0.32,0.33,0.71,0.5,1.19,0.5
		c0.35,0,0.65-0.09,0.9-0.28C78.73,110.65,78.92,110.36,79.07,109.95z M75.91,108.39h3.17c-0.04-0.48-0.16-0.84-0.36-1.07
		c-0.31-0.37-0.7-0.56-1.19-0.56c-0.44,0-0.81,0.15-1.11,0.44C76.11,107.5,75.94,107.9,75.91,108.39z"/>
</g>
<g>
	<path class="st0" d="M43.49,19.91c-2.56,0.03-6.32,1.1-9.19,4.05c-2.84,2.91-4.24,6.97-4.16,12.07
		c0.16,10.76,3.55,16.04,10.38,16.16c0.04,0,0.09,0,0.13,0c5.38,0,13.74-5.58,15.32-14.83c0.93-5.45-0.08-10.39-2.76-13.55
		c-2.21-2.59-5.41-3.9-9.52-3.9C43.62,19.91,43.55,19.91,43.49,19.91L43.49,19.91z M43.48,18.84L43.48,18.84L43.48,18.84z"/>
	<path class="st0" d="M63.85,78.64c5.63,0.29,11.84-4.47,12.83-14.13c0.61-5.91-1.28-9.61-2.96-11.67c-1.87-2.28-4.45-3.74-7.08-4
		c-7.73-0.75-12.36,2.44-13.75,9.47c-1.08,5.47,0.38,11.76,3.71,16.03C58.65,76.98,61.22,78.51,63.85,78.64L63.85,78.64z"/>
	<path class="st1" d="M65.04,80.13c5.63,0.29,11.84-4.47,12.83-14.13c0.61-5.91-1.28-9.61-2.96-11.67c-1.87-2.28-4.45-3.74-7.08-4
		c-7.73-0.75-12.36,2.44-13.75,9.47c-1.08,5.47,0.38,11.76,3.71,16.03C59.84,78.47,62.42,80,65.04,80.13L65.04,80.13z"/>
	<path class="st1" d="M44.68,21.4c-2.56,0.03-6.32,1.1-9.19,4.05c-2.84,2.91-4.24,6.97-4.16,12.07
		c0.16,10.76,3.55,16.04,10.38,16.16c0.04,0,0.09,0,0.13,0c5.38,0,13.74-5.58,15.32-14.83c0.93-5.45-0.08-10.39-2.76-13.55
		c-2.21-2.59-5.41-3.9-9.52-3.9C44.81,21.4,44.75,21.4,44.68,21.4L44.68,21.4z M44.67,20.33L44.67,20.33L44.67,20.33z"/>
	<path d="M40.66,54.31c-0.06,0-0.12,0-0.19,0c-8.1-0.14-12.29-6.28-12.47-18.26c-0.08-5.6,1.57-10.3,4.77-13.58
		c3.33-3.41,7.71-4.66,10.7-4.69l0,0c4.79-0.04,8.72,1.56,11.35,4.65c3.1,3.64,4.28,9.21,3.24,15.28
		C56.38,47.55,47.59,54.31,40.66,54.31z M43.49,19.91c-2.56,0.03-6.32,1.1-9.19,4.05c-2.84,2.91-4.24,6.97-4.16,12.07
		c0.16,10.76,3.55,16.04,10.38,16.16c0.04,0,0.09,0,0.13,0c5.38,0,13.74-5.58,15.32-14.83c0.93-5.45-0.08-10.39-2.76-13.55
		c-2.21-2.59-5.41-3.9-9.52-3.9C43.62,19.91,43.55,19.91,43.49,19.91L43.49,19.91z M43.48,18.84L43.48,18.84L43.48,18.84z"/>
	<path d="M64.33,80.78c-0.2,0-0.39,0-0.59-0.01l0,0c-3.25-0.17-6.38-1.98-8.83-5.11c-3.69-4.74-5.31-11.7-4.12-17.75
		c1.61-8.18,7.16-12.04,16.04-11.18c3.19,0.31,6.3,2.05,8.52,4.77c1.94,2.37,4.11,6.59,3.43,13.23
		C77.7,75.38,70.79,80.78,64.33,80.78z M63.85,78.64c5.63,0.29,11.84-4.47,12.83-14.13c0.61-5.91-1.28-9.61-2.96-11.67
		c-1.87-2.28-4.45-3.74-7.08-4c-7.73-0.75-12.36,2.44-13.75,9.47c-1.08,5.47,0.38,11.76,3.71,16.03
		C58.65,76.98,61.22,78.51,63.85,78.64L63.85,78.64z"/>
	<path class="st0" d="M78.61,17.6c-3.33,0.72-6.27,3.34-8.05,7.17c-1.95,4.19-2.17,9.09-0.53,12.2c3.3,6.26,14.47,11.12,18.76,9.25
		c4.62-2.02,9.56-8.6,9.28-14.83C97.9,27.36,95.51,23.01,92,20.3C89.41,18.31,84.98,16.22,78.61,17.6L78.61,17.6z"/>
	<path class="st1" d="M79.81,19.09c-3.33,0.72-6.27,3.34-8.05,7.17c-1.95,4.19-2.17,9.09-0.53,12.2c3.3,6.26,14.47,11.12,18.76,9.25
		c4.62-2.02,9.56-8.6,9.28-14.83c-0.18-4.03-2.57-8.38-6.08-11.09C90.6,19.8,86.17,17.71,79.81,19.09L79.81,19.09z"/>
	<path d="M86.5,48.74c-6.18,0-15.32-5.03-18.35-10.78c-1.96-3.72-1.77-9.25,0.48-14.09c2.07-4.44,5.55-7.49,9.53-8.35h0
		c7.16-1.55,12.18,0.83,15.13,3.1c4.05,3.12,6.69,7.97,6.91,12.68c0.32,7.19-5.2,14.53-10.56,16.87
		C88.75,48.56,87.68,48.74,86.5,48.74z M78.61,17.6c-3.33,0.72-6.27,3.34-8.05,7.17c-1.95,4.19-2.17,9.09-0.53,12.2
		c3.3,6.26,14.47,11.12,18.76,9.25c4.62-2.02,9.56-8.6,9.28-14.83C97.9,27.36,95.51,23.01,92,20.3
		C89.41,18.31,84.98,16.22,78.61,17.6L78.61,17.6z"/>
	<path d="M33.54,40.92c-0.51,0-0.96-0.36-1.05-0.88c-2.23-12.8,7.82-17.2,7.92-17.24c0.54-0.23,1.17,0.03,1.39,0.57
		c0.23,0.54-0.02,1.16-0.56,1.39c-0.37,0.16-8.58,3.84-6.65,14.92c0.1,0.58-0.29,1.13-0.87,1.23C33.67,40.92,33.6,40.92,33.54,40.92
		z"/>
	<path d="M56.23,68.46c-0.5,0-0.94-0.35-1.04-0.85c-2.35-11.69,6.11-16.03,6.19-16.07c0.53-0.26,1.16-0.04,1.42,0.48
		c0.26,0.53,0.05,1.16-0.48,1.42c-0.3,0.15-7.07,3.71-5.06,13.74c0.12,0.58-0.26,1.14-0.83,1.25C56.37,68.45,56.3,68.46,56.23,68.46
		z"/>
	<path d="M71.78,33.98c-0.58-0.06-1-0.58-0.94-1.17c1.22-11.86,10.58-13.5,10.67-13.51c0.58-0.09,1.13,0.3,1.22,0.88
		c0.09,0.58-0.3,1.12-0.88,1.22c-0.33,0.06-7.85,1.45-8.9,11.63C72.9,33.62,72.37,34.04,71.78,33.98
		C71.79,33.98,71.78,33.98,71.78,33.98z"/>
</g>
</svg>
