<?xml version="1.0" encoding="utf-8"?>
<!-- Generator: Adobe Illustrator 27.6.1, SVG Export Plug-In . SVG Version: 6.00 Build 0)  -->
<svg version="1.1" id="Ebene_1" xmlns="http://www.w3.org/2000/svg" xmlns:xlink="http://www.w3.org/1999/xlink" x="0px" y="0px"
	 viewBox="0 0 128 128" style="enable-background:new 0 0 128 128;" xml:space="preserve">
<style type="text/css">
	.st0{fill:#FFFFFF;}
	.st1{fill:#FFE1CA;}
	.st2{fill:#F9CCA7;}
</style>
<g>
	<path class="st0" d="M57.34,77.26c-2.12-1.7-4.66-3.73-7.66-5.65v5.27c0,0.73,0.6,1.33,1.33,1.33h7.53
		C58.16,77.91,57.76,77.6,57.34,77.26z"/>
	<path class="st1" d="M59.1,78.2c-2.12-1.7-4.66-3.73-7.66-5.65v5.27c0,0.73,0.6,1.33,1.33,1.33h7.53
		C59.92,78.86,59.52,78.54,59.1,78.2z"/>
	<path d="M60.13,78.22h-9.12c-0.73,0-1.33-0.6-1.33-1.33v-5.62h1.26c-0.9-0.59-1.84-1.18-2.82-1.75c-0.23,0.18-0.39,0.46-0.39,0.77
		v6.59c0,1.81,1.47,3.28,3.28,3.28h12.36C62.52,79.93,61.44,79.22,60.13,78.22z"/>
	<path class="st0" d="M63.26,12.44c-6.84,0-22.85,1.84-30.84,18.02c-5.01,10.14-3.67,18.21-1.68,23.19
		c2.69,6.71,7.49,10.49,10.79,11.69c7.41,2.7,12.97,7.15,17.02,10.39c2.28,1.82,4.43,3.54,5.36,3.54c1.07,0,3.45-1.8,6.21-3.88
		c3.95-2.98,9.36-7.06,16.12-10.03c5.47-2.4,9.74-6.89,11.72-12.33c2.39-6.55,1.5-14.36-2.55-22.58l0,0
		c-7.99-16.19-24.28-18.02-31.2-18.02c-0.09,0-0.18,0-0.26,0l-0.21,0l-0.19,0C63.46,12.44,63.36,12.44,63.26,12.44z"/>
	<path class="st0" d="M71.3,76.95c-0.6,0.45-1.16,0.87-1.69,1.27h7.21c0.73,0,1.33-0.6,1.33-1.33v-4.85
		C75.53,73.76,73.24,75.49,71.3,76.95z"/>
	<path class="st1" d="M72.76,77.68c-0.6,0.45-1.16,0.87-1.69,1.27h7.21c0.73,0,1.33-0.6,1.33-1.33v-4.85
		C76.99,74.49,74.7,76.22,72.76,77.68z"/>
	<path class="st2" d="M65.23,13.84c-6.84,0-22.85,1.84-30.84,18.02c-5.01,10.14-3.67,18.21-1.68,23.19
		c2.69,6.71,7.49,10.49,10.79,11.69c7.41,2.7,12.97,7.15,17.02,10.39c2.28,1.82,3.04,2.52,3.98,2.52c1.07,0,3.8-1.76,6.56-3.84
		c3.95-2.98,9.61-6.71,16.37-9.67c5.47-2.4,9.39-7.1,11.38-12.54c2.39-6.55,2.63-13.52-1.43-21.74l0,0
		c-7.99-16.19-24.28-18.02-31.2-18.02c-0.09,0-0.18,0-0.26,0l-0.21,0l-0.19,0C65.43,13.84,65.33,13.84,65.23,13.84z"/>
	<path d="M77.55,71.27h0.61v5.62c0,0.73-0.6,1.33-1.33,1.33h-8.87c-1.41,1.01-2.57,1.72-3.46,1.95h12.32c1.81,0,3.28-1.47,3.28-3.28
		V70.3c0-0.2-0.06-0.38-0.16-0.54C79.12,70.26,78.32,70.76,77.55,71.27z"/>
	<g>
		<path class="st1" d="M78.91,70.4C78.91,70.4,78.91,70.4,78.91,70.4l-0.04,0.02C78.88,70.41,78.89,70.41,78.91,70.4z"/>
		<polygon class="st1" points="65.64,79.16 62.63,79.21 64.12,80.17 		"/>
	</g>
	<path d="M63.92,81.23c-1.62,0-3.6-1.58-6.58-3.97c-3.95-3.16-9.36-7.49-16.47-10.08c-4.84-1.76-9.52-6.79-11.93-12.79
		c-2.15-5.35-3.59-13.99,1.74-24.78c4-8.11,10.39-13.77,18.97-16.81c3.04-1.08,7.91-2.35,13.93-2.3l0.18,0l0.19,0
		c7.13-0.05,24.64,1.72,33.22,19.11l0,0c4.3,8.71,5.21,17.04,2.64,24.11c-2.16,5.93-6.82,10.83-12.77,13.44
		c-6.55,2.87-11.85,6.88-15.73,9.8C67.89,79.53,65.64,81.23,63.92,81.23z M63.26,12.44c-6.84,0-22.85,1.84-30.84,18.02
		c-5.01,10.14-3.67,18.21-1.68,23.19c2.69,6.71,7.49,10.49,10.79,11.69c7.41,2.7,12.97,7.15,17.02,10.39
		c2.28,1.82,4.43,3.54,5.36,3.54c1.07,0,3.45-1.8,6.21-3.88c3.95-2.98,9.36-7.06,16.12-10.03c5.47-2.4,9.74-6.89,11.72-12.33
		c2.39-6.55,1.5-14.36-2.55-22.58l0,0c-7.99-16.19-24.28-18.02-31.2-18.02c-0.09,0-0.18,0-0.26,0l-0.21,0l-0.19,0
		C63.46,12.44,63.36,12.44,63.26,12.44z"/>
	<path d="M68.79,64.29c-0.1,0-0.21-0.02-0.31-0.05c-0.51-0.17-0.79-0.72-0.62-1.23L80.2,26c0.17-0.51,0.72-0.79,1.23-0.62
		c0.51,0.17,0.79,0.72,0.62,1.23L69.71,63.62C69.58,64.03,69.2,64.29,68.79,64.29z"/>
	<path d="M73.56,66.14c-0.24,0-0.47-0.09-0.66-0.26c-0.4-0.36-0.42-0.98-0.06-1.38l20.44-22.2c0.36-0.4,0.98-0.42,1.38-0.06
		c0.4,0.36,0.42,0.98,0.06,1.38l-20.44,22.2C74.08,66.04,73.82,66.14,73.56,66.14z"/>
	<path d="M58.88,64.29c-0.41,0-0.79-0.26-0.92-0.67L45.61,26.62c-0.17-0.51,0.11-1.06,0.62-1.23c0.51-0.17,1.06,0.11,1.23,0.62
		L59.8,63.01c0.17,0.51-0.11,1.06-0.62,1.23C59.08,64.28,58.98,64.29,58.88,64.29z"/>
	<path d="M54.1,66.14c-0.26,0-0.53-0.11-0.72-0.31l-20.44-22.2c-0.36-0.4-0.34-1.01,0.06-1.38c0.4-0.37,1.01-0.34,1.38,0.06
		l20.44,22.2c0.36,0.4,0.34,1.01-0.06,1.38C54.58,66.06,54.34,66.14,54.1,66.14z"/>
	<path d="M63.74,63.5c-0.54,0-0.97-0.44-0.97-0.97v-41c0-0.54,0.44-0.97,0.97-0.97c0.54,0,0.97,0.44,0.97,0.97v41
		C64.72,63.06,64.28,63.5,63.74,63.5z"/>
</g>
<g>
	<path d="M45.6,107.41l0.9-0.08c0.04,0.36,0.14,0.65,0.3,0.88c0.15,0.23,0.4,0.42,0.72,0.56c0.33,0.14,0.69,0.21,1.1,0.21
		c0.36,0,0.68-0.05,0.96-0.16c0.28-0.11,0.48-0.26,0.62-0.44c0.14-0.19,0.2-0.39,0.2-0.62c0-0.23-0.07-0.42-0.2-0.59
		c-0.13-0.17-0.35-0.31-0.65-0.42c-0.19-0.08-0.62-0.19-1.28-0.35c-0.66-0.16-1.12-0.31-1.39-0.45c-0.34-0.18-0.6-0.4-0.77-0.67
		c-0.17-0.27-0.25-0.56-0.25-0.89c0-0.36,0.1-0.7,0.31-1.02c0.21-0.32,0.51-0.55,0.9-0.72c0.4-0.16,0.83-0.25,1.32-0.25
		c0.53,0,1,0.09,1.41,0.26c0.41,0.17,0.72,0.42,0.94,0.76c0.22,0.33,0.34,0.71,0.35,1.13l-0.91,0.07c-0.05-0.45-0.21-0.8-0.5-1.03
		c-0.28-0.23-0.7-0.35-1.25-0.35c-0.58,0-0.99,0.11-1.26,0.32c-0.26,0.21-0.39,0.47-0.39,0.76c0,0.26,0.09,0.47,0.28,0.64
		c0.18,0.17,0.66,0.34,1.43,0.51c0.77,0.17,1.3,0.33,1.59,0.46c0.42,0.19,0.73,0.44,0.93,0.73c0.2,0.3,0.3,0.64,0.3,1.02
		c0,0.38-0.11,0.74-0.33,1.08c-0.22,0.34-0.53,0.6-0.94,0.79c-0.41,0.19-0.87,0.28-1.39,0.28c-0.65,0-1.2-0.09-1.63-0.28
		c-0.44-0.19-0.78-0.47-1.03-0.86C45.75,108.32,45.62,107.89,45.6,107.41z"/>
	<path d="M52.51,109.72v-7.19h0.88v2.58c0.41-0.48,0.93-0.72,1.56-0.72c0.39,0,0.72,0.08,1,0.23c0.28,0.15,0.49,0.36,0.61,0.63
		c0.12,0.27,0.18,0.66,0.18,1.17v3.3h-0.88v-3.3c0-0.44-0.1-0.76-0.29-0.96c-0.19-0.2-0.46-0.3-0.81-0.3c-0.26,0-0.51,0.07-0.74,0.2
		c-0.23,0.14-0.39,0.32-0.49,0.55c-0.1,0.23-0.15,0.55-0.15,0.96v2.85H52.51z"/>
	<path d="M61.66,108.05l0.91,0.11c-0.14,0.53-0.41,0.95-0.8,1.24c-0.39,0.29-0.89,0.44-1.49,0.44c-0.76,0-1.36-0.23-1.81-0.7
		c-0.45-0.47-0.67-1.13-0.67-1.97c0-0.88,0.23-1.56,0.68-2.04c0.45-0.48,1.04-0.73,1.76-0.73c0.7,0,1.26,0.24,1.71,0.71
		c0.44,0.47,0.66,1.14,0.66,2c0,0.05,0,0.13,0,0.24h-3.88c0.03,0.57,0.19,1.01,0.49,1.31c0.29,0.3,0.65,0.46,1.09,0.46
		c0.32,0,0.6-0.09,0.83-0.26C61.34,108.69,61.52,108.42,61.66,108.05z M58.76,106.62h2.91c-0.04-0.44-0.15-0.77-0.33-0.99
		c-0.28-0.34-0.65-0.51-1.09-0.51c-0.41,0-0.75,0.14-1.02,0.41C58.94,105.8,58.79,106.16,58.76,106.62z"/>
	<path d="M63.66,109.72v-7.19h0.88v7.19H63.66z"/>
	<path d="M65.89,109.72v-7.19h0.88v7.19H65.89z"/>
	<path d="M68.35,109.72v-4.52h-0.78v-0.69h0.78v-0.55c0-0.35,0.03-0.61,0.09-0.78c0.08-0.23,0.23-0.41,0.45-0.56
		c0.21-0.14,0.51-0.21,0.9-0.21c0.25,0,0.52,0.03,0.82,0.09l-0.13,0.77c-0.18-0.03-0.36-0.05-0.52-0.05c-0.27,0-0.46,0.06-0.57,0.17
		c-0.11,0.11-0.17,0.33-0.17,0.64v0.48h1.02v0.69h-1.02v4.52H68.35z"/>
	<path d="M70.93,103.55v-1.01h0.88v1.01H70.93z M70.93,109.72v-5.21h0.88v5.21H70.93z"/>
	<path d="M72.8,108.17l0.87-0.14c0.05,0.35,0.19,0.62,0.41,0.8c0.22,0.19,0.54,0.28,0.94,0.28c0.41,0,0.71-0.08,0.9-0.25
		c0.2-0.16,0.29-0.36,0.29-0.58c0-0.2-0.09-0.36-0.26-0.47c-0.12-0.08-0.42-0.18-0.9-0.3c-0.65-0.16-1.1-0.3-1.35-0.42
		c-0.25-0.12-0.44-0.28-0.57-0.5c-0.13-0.21-0.19-0.44-0.19-0.7c0-0.23,0.05-0.45,0.16-0.64c0.11-0.2,0.25-0.36,0.43-0.49
		c0.14-0.1,0.32-0.19,0.56-0.26c0.24-0.07,0.49-0.11,0.76-0.11c0.41,0,0.77,0.06,1.08,0.18c0.31,0.12,0.54,0.28,0.68,0.48
		c0.15,0.2,0.25,0.47,0.3,0.81l-0.86,0.12c-0.04-0.27-0.15-0.48-0.34-0.63c-0.19-0.15-0.45-0.23-0.8-0.23
		c-0.41,0-0.69,0.07-0.87,0.2c-0.17,0.13-0.26,0.29-0.26,0.47c0,0.11,0.04,0.22,0.11,0.31c0.07,0.09,0.18,0.17,0.34,0.24
		c0.09,0.03,0.35,0.11,0.78,0.23c0.62,0.17,1.06,0.3,1.31,0.41c0.25,0.11,0.44,0.26,0.58,0.46c0.14,0.2,0.21,0.45,0.21,0.76
		c0,0.29-0.09,0.57-0.26,0.83c-0.17,0.26-0.42,0.46-0.74,0.6c-0.32,0.14-0.69,0.21-1.1,0.21c-0.68,0-1.19-0.14-1.55-0.42
		C73.13,109.14,72.9,108.72,72.8,108.17z"/>
	<path d="M78.18,109.72v-7.19h0.88v2.58c0.41-0.48,0.93-0.72,1.56-0.72c0.39,0,0.72,0.08,1,0.23c0.28,0.15,0.49,0.36,0.61,0.63
		c0.12,0.27,0.18,0.66,0.18,1.17v3.3h-0.88v-3.3c0-0.44-0.1-0.76-0.29-0.96c-0.19-0.2-0.46-0.3-0.81-0.3c-0.26,0-0.51,0.07-0.74,0.2
		c-0.23,0.14-0.39,0.32-0.49,0.55c-0.1,0.23-0.15,0.55-0.15,0.96v2.85H78.18z"/>
</g>
</svg>
