<?xml version="1.0" encoding="utf-8"?>
<!-- Generator: Adobe Illustrator 16.0.0, SVG Export Plug-In . SVG Version: 6.00 Build 0)  -->
<!DOCTYPE svg PUBLIC "-//W3C//DTD SVG 1.1//EN" "http://www.w3.org/Graphics/SVG/1.1/DTD/svg11.dtd">
<svg version="1.1" id="Layer_1" xmlns="http://www.w3.org/2000/svg" xmlns:xlink="http://www.w3.org/1999/xlink" x="0px" y="0px"
	 width="100px" height="100px" viewBox="0 0 100 100" enable-background="new 0 0 100 100" xml:space="preserve">
<g>
	<path fill="#FFFFFF" d="M54.545,20.669L51.136,2.494c-0.014-0.072-0.077-0.125-0.151-0.125h-1.97c-0.073,0-0.138,0.053-0.151,0.125
		l-3.409,18.175H54.545z"/>
	<path fill="#FFD93B" d="M56.227,21.854L52.817,3.68c-0.014-0.073-0.077-0.126-0.151-0.126h-1.97c-0.073,0-0.138,0.053-0.151,0.126
		l-3.409,18.174H56.227z"/>
	<path d="M45.232,21.854l3.631-19.359c0.014-0.072,0.078-0.125,0.151-0.125h1.97c0.074,0,0.138,0.053,0.151,0.125l3.632,19.359
		h2.408c-0.002-0.015-0.003-0.029-0.006-0.044L53.465,2.058C53.241,0.865,52.197,0,50.984,0h-1.97c-1.214,0-2.257,0.865-2.479,2.058
		l-3.706,19.751c-0.003,0.016-0.003,0.03-0.006,0.045h0.891H45.232z"/>
	<path fill="#FFD93B" d="M36.367,30.075c-1.954,0-3.543,1.589-3.543,3.542v60.471c0,1.952,1.589,3.542,3.543,3.542h27.266
		c1.953,0,3.543-1.59,3.543-3.542V33.617c0-1.953-1.59-3.542-3.543-3.542H36.367z"/>
	<path fill="#FFFFFF" d="M61.99,27.705v-3.818c0-0.468-0.381-0.849-0.849-0.849H38.857c-0.467,0-0.848,0.381-0.848,0.849v3.818
		H61.99z"/>
	<path fill="#FFE576" d="M63.225,28.952v-3.819c0-0.467-0.381-0.848-0.848-0.848H40.093c-0.468,0-0.849,0.381-0.849,0.848v3.819
		H63.225z"/>
	<rect x="34.65" y="50.894" fill="#FFE98A" width="33.168" height="25.035"/>
	<path fill="#FFFFFF" d="M36.367,99.321c-3.229,0-5.371-2.567-5.371-5.233V33.617c0-2.96,2.41-5.369,5.371-5.369h27.266
		c2.809,0,2.757,1.01,3.813,2.122c1.11,1.17,1.619,2.214,1.619,3.369L67.84,33.92c0-0.396,0.166-1.436,0.06-1.548
		c-0.019-0.02-1.804-0.47-4.267-0.47H36.367c-0.947,0-1.717,0.77-1.717,1.715v60.471c0,1.932,1.444,4.206,1.997,4.206L36.367,99.321
		z"/>
	<path d="M38.01,28.89v-5.003c0-0.468,0.381-0.849,0.848-0.849h22.284c0.468,0,0.849,0.381,0.849,0.849v5.003h1.643
		c0.248,0,0.489,0.025,0.727,0.063v-5.065c0-1.774-1.443-3.218-3.218-3.218H38.857c-1.773,0-3.217,1.443-3.217,3.218v5.065
		C35.877,28.915,38.01,28.89,38.01,28.89z"/>
	<path d="M63.633,100H36.367c-3.261,0-5.913-2.652-5.913-5.912V33.617c0-3.26,2.652-5.912,5.913-5.912h27.266
		c3.26,0,5.912,2.652,5.912,5.912v60.471C69.545,97.348,66.893,100,63.633,100z M36.367,30.075c-1.954,0-3.543,1.589-3.543,3.542
		v60.471c0,1.952,1.589,3.542,3.543,3.542h27.266c1.953,0,3.543-1.59,3.543-3.542V33.617c0-1.953-1.59-3.542-3.543-3.542H36.367z"/>
	<path d="M68.36,51.688H31.639c-0.654,0-1.185-0.53-1.185-1.185s0.53-1.185,1.185-1.185H68.36c0.655,0,1.185,0.53,1.185,1.185
		S69.016,51.688,68.36,51.688z"/>
	<path d="M68.36,77.113H31.639c-0.654,0-1.185-0.53-1.185-1.185s0.53-1.185,1.185-1.185H68.36c0.655,0,1.185,0.53,1.185,1.185
		S69.016,77.113,68.36,77.113z"/>
	<path d="M37.911,46.699c-0.655,0-1.185-0.53-1.185-1.185V34.714c0-0.654,0.529-1.185,1.185-1.185c0.654,0,1.185,0.53,1.185,1.185
		v10.801C39.096,46.169,38.565,46.699,37.911,46.699z"/>
	<path d="M37.911,94.355c-0.655,0-1.185-0.53-1.185-1.186V81.303c0-0.655,0.529-1.186,1.185-1.186c0.654,0,1.185,0.53,1.185,1.186
		V93.17C39.096,93.825,38.565,94.355,37.911,94.355z"/>
</g>
</svg>
