<?xml version="1.0" encoding="utf-8"?>
<!-- Generator: Adobe Illustrator 27.6.1, SVG Export Plug-In . SVG Version: 6.00 Build 0)  -->
<svg version="1.1" id="Ebene_1" xmlns="http://www.w3.org/2000/svg" xmlns:xlink="http://www.w3.org/1999/xlink" x="0px" y="0px"
	 viewBox="0 0 128 128" style="enable-background:new 0 0 128 128;" xml:space="preserve">
<style type="text/css">
	.st0{fill:#FFFFFF;}
	.st1{fill:#FFD93B;}
	.st2{fill:#FFE576;}
	.st3{fill:#FFE98A;}
</style>
<g>
	<path d="M48,113.73v-6.43h1.28l1.52,4.55c0.14,0.42,0.24,0.74,0.31,0.95c0.07-0.23,0.19-0.58,0.34-1.03l1.54-4.48h1.14v6.43h-0.82
		v-5.38l-1.87,5.38h-0.77l-1.86-5.48v5.48H48z"/>
	<path d="M58.46,113.73v-0.68c-0.36,0.53-0.86,0.79-1.48,0.79c-0.27,0-0.53-0.05-0.77-0.16c-0.24-0.11-0.42-0.24-0.53-0.4
		c-0.12-0.16-0.2-0.35-0.24-0.59c-0.03-0.16-0.05-0.4-0.05-0.74v-2.89h0.79v2.58c0,0.41,0.02,0.69,0.05,0.83
		c0.05,0.21,0.15,0.37,0.32,0.49c0.16,0.12,0.36,0.18,0.6,0.18c0.24,0,0.46-0.06,0.67-0.18c0.21-0.12,0.35-0.29,0.44-0.5
		c0.09-0.21,0.13-0.51,0.13-0.91v-2.5h0.79v4.66H58.46z"/>
	<path d="M60.09,112.34l0.78-0.12c0.04,0.31,0.17,0.55,0.37,0.72c0.2,0.17,0.48,0.25,0.84,0.25c0.36,0,0.63-0.07,0.81-0.22
		c0.18-0.15,0.26-0.32,0.26-0.52c0-0.18-0.08-0.32-0.23-0.42c-0.11-0.07-0.38-0.16-0.81-0.27c-0.58-0.15-0.98-0.27-1.2-0.38
		c-0.22-0.11-0.39-0.25-0.51-0.44c-0.12-0.19-0.17-0.4-0.17-0.62c0-0.21,0.05-0.4,0.14-0.58c0.09-0.18,0.22-0.32,0.39-0.44
		c0.12-0.09,0.29-0.17,0.5-0.23c0.21-0.06,0.44-0.09,0.68-0.09c0.37,0,0.69,0.05,0.96,0.16c0.28,0.11,0.48,0.25,0.61,0.43
		c0.13,0.18,0.22,0.42,0.27,0.72l-0.77,0.11c-0.04-0.24-0.14-0.43-0.3-0.56c-0.17-0.13-0.41-0.2-0.71-0.2
		c-0.36,0-0.62,0.06-0.78,0.18c-0.16,0.12-0.23,0.26-0.23,0.42c0,0.1,0.03,0.19,0.1,0.28c0.06,0.08,0.17,0.16,0.3,0.21
		c0.08,0.03,0.31,0.1,0.7,0.2c0.56,0.15,0.95,0.27,1.17,0.37c0.22,0.1,0.39,0.23,0.52,0.41c0.13,0.18,0.19,0.41,0.19,0.68
		c0,0.26-0.08,0.51-0.23,0.74c-0.15,0.23-0.38,0.41-0.66,0.54c-0.29,0.13-0.62,0.19-0.98,0.19c-0.61,0-1.07-0.13-1.38-0.38
		C60.38,113.2,60.18,112.83,60.09,112.34z"/>
	<path d="M66.62,113.02l0.11,0.7c-0.22,0.05-0.42,0.07-0.6,0.07c-0.29,0-0.51-0.05-0.67-0.14c-0.16-0.09-0.27-0.21-0.33-0.36
		c-0.06-0.15-0.1-0.46-0.1-0.93v-2.68h-0.58v-0.61h0.58v-1.15l0.79-0.47v1.63h0.79v0.61h-0.79v2.72c0,0.23,0.01,0.37,0.04,0.43
		c0.03,0.06,0.07,0.12,0.14,0.15c0.06,0.04,0.15,0.06,0.27,0.06C66.37,113.05,66.48,113.04,66.62,113.02z"/>
	<path d="M70.44,113.15c-0.29,0.25-0.57,0.42-0.84,0.53c-0.27,0.1-0.56,0.15-0.87,0.15c-0.51,0-0.91-0.13-1.18-0.38
		c-0.27-0.25-0.41-0.57-0.41-0.96c0-0.23,0.05-0.44,0.16-0.63c0.1-0.19,0.24-0.34,0.41-0.45c0.17-0.11,0.36-0.2,0.57-0.26
		c0.16-0.04,0.39-0.08,0.7-0.12c0.64-0.08,1.11-0.17,1.41-0.27c0-0.11,0-0.18,0-0.21c0-0.32-0.07-0.55-0.22-0.68
		c-0.2-0.18-0.5-0.27-0.9-0.27c-0.37,0-0.65,0.07-0.82,0.2c-0.18,0.13-0.31,0.36-0.39,0.69l-0.77-0.11c0.07-0.33,0.19-0.6,0.35-0.8
		c0.16-0.2,0.39-0.36,0.7-0.47c0.3-0.11,0.66-0.16,1.06-0.16c0.4,0,0.72,0.05,0.97,0.14c0.25,0.09,0.43,0.21,0.55,0.35
		c0.12,0.14,0.2,0.32,0.25,0.54c0.03,0.13,0.04,0.38,0.04,0.73v1.05c0,0.73,0.02,1.2,0.05,1.39c0.03,0.19,0.1,0.38,0.2,0.56h-0.82
		C70.51,113.56,70.46,113.37,70.44,113.15z M70.37,111.39c-0.29,0.12-0.72,0.22-1.29,0.3c-0.32,0.05-0.55,0.1-0.69,0.16
		c-0.13,0.06-0.24,0.14-0.31,0.26c-0.07,0.11-0.11,0.24-0.11,0.38c0,0.21,0.08,0.39,0.24,0.53c0.16,0.14,0.39,0.21,0.7,0.21
		c0.3,0,0.57-0.07,0.81-0.2c0.24-0.13,0.41-0.32,0.52-0.55c0.08-0.18,0.13-0.44,0.13-0.79V111.39z"/>
	<path d="M72.38,113.73v-4.66h0.71v0.71c0.18-0.33,0.35-0.55,0.5-0.65c0.15-0.11,0.32-0.16,0.51-0.16c0.27,0,0.54,0.08,0.81,0.25
		l-0.27,0.73c-0.19-0.11-0.39-0.17-0.58-0.17c-0.17,0-0.33,0.05-0.46,0.16c-0.14,0.1-0.24,0.25-0.29,0.43
		c-0.09,0.28-0.13,0.59-0.13,0.92v2.44H72.38z"/>
	<path d="M78.41,113.73v-0.59c-0.3,0.46-0.73,0.69-1.3,0.69c-0.37,0-0.71-0.1-1.02-0.31c-0.31-0.2-0.55-0.49-0.72-0.86
		c-0.17-0.37-0.26-0.79-0.26-1.27c0-0.46,0.08-0.89,0.23-1.27c0.16-0.38,0.39-0.67,0.7-0.87c0.31-0.2,0.66-0.3,1.04-0.3
		c0.28,0,0.53,0.06,0.75,0.18c0.22,0.12,0.4,0.27,0.54,0.46v-2.31h0.79v6.43H78.41z M75.91,111.4c0,0.6,0.13,1.04,0.38,1.34
		c0.25,0.3,0.55,0.44,0.89,0.44c0.35,0,0.64-0.14,0.88-0.42c0.24-0.28,0.36-0.71,0.36-1.29c0-0.64-0.12-1.11-0.37-1.4
		c-0.25-0.3-0.55-0.45-0.91-0.45c-0.35,0-0.64,0.14-0.88,0.43C76.03,110.33,75.91,110.78,75.91,111.4z"/>
</g>
<g>
	<path class="st0" d="M66.91,30.31L64.4,16.93c-0.01-0.05-0.06-0.09-0.11-0.09h-1.45c-0.05,0-0.1,0.04-0.11,0.09l-2.51,13.38H66.91z
		"/>
	<path class="st1" d="M68.15,31.18L65.64,17.8c-0.01-0.05-0.06-0.09-0.11-0.09h-1.45c-0.05,0-0.1,0.04-0.11,0.09l-2.51,13.38H68.15z
		"/>
	<path d="M60.05,31.18l2.67-14.25c0.01-0.05,0.06-0.09,0.11-0.09h1.45c0.05,0,0.1,0.04,0.11,0.09l2.67,14.25h1.77
		c0-0.01,0-0.02,0-0.03l-2.73-14.54c-0.16-0.88-0.93-1.52-1.83-1.52h-1.45c-0.89,0-1.66,0.64-1.83,1.52l-2.73,14.54
		c0,0.01,0,0.02,0,0.03h0.66H60.05z"/>
	<path class="st1" d="M53.52,37.24c-1.44,0-2.61,1.17-2.61,2.61v44.52c0,1.44,1.17,2.61,2.61,2.61H73.6c1.44,0,2.61-1.17,2.61-2.61
		V39.85c0-1.44-1.17-2.61-2.61-2.61H53.52z"/>
	<path class="st0" d="M72.39,35.49v-2.81c0-0.34-0.28-0.62-0.62-0.62H55.36c-0.34,0-0.62,0.28-0.62,0.62v2.81H72.39z"/>
	<path class="st2" d="M73.3,36.41V33.6c0-0.34-0.28-0.62-0.62-0.62H56.27c-0.34,0-0.62,0.28-0.62,0.62v2.81H73.3z"/>
	<rect x="52.26" y="52.56" class="st3" width="24.42" height="18.43"/>
	<path class="st0" d="M53.52,88.22c-2.38,0-3.95-1.89-3.95-3.85V39.85c0-2.18,1.77-3.95,3.95-3.95H73.6c2.07,0,2.03,0.74,2.81,1.56
		c0.82,0.86,1.19,1.63,1.19,2.48l-0.9,0.13c0-0.29,0.12-1.06,0.04-1.14c-0.01-0.01-1.33-0.35-3.14-0.35H53.52
		c-0.7,0-1.26,0.57-1.26,1.26v44.52c0,1.42,1.06,3.1,1.47,3.1L53.52,88.22z"/>
	<path d="M54.73,36.37v-3.68c0-0.34,0.28-0.62,0.62-0.62h16.41c0.34,0,0.62,0.28,0.62,0.62v3.68h1.21c0.18,0,0.36,0.02,0.53,0.05
		v-3.73c0-1.31-1.06-2.37-2.37-2.37H55.36c-1.31,0-2.37,1.06-2.37,2.37v3.73C53.16,36.38,54.73,36.37,54.73,36.37z"/>
	<path d="M73.6,88.72H53.52c-2.4,0-4.35-1.95-4.35-4.35V39.85c0-2.4,1.95-4.35,4.35-4.35H73.6c2.4,0,4.35,1.95,4.35,4.35v44.52
		C77.95,86.77,76,88.72,73.6,88.72z M53.52,37.24c-1.44,0-2.61,1.17-2.61,2.61v44.52c0,1.44,1.17,2.61,2.61,2.61H73.6
		c1.44,0,2.61-1.17,2.61-2.61V39.85c0-1.44-1.17-2.61-2.61-2.61H53.52z"/>
	<path d="M77.08,53.15H50.04c-0.48,0-0.87-0.39-0.87-0.87c0-0.48,0.39-0.87,0.87-0.87h27.04c0.48,0,0.87,0.39,0.87,0.87
		C77.95,52.76,77.56,53.15,77.08,53.15z"/>
	<path d="M77.08,71.87H50.04c-0.48,0-0.87-0.39-0.87-0.87c0-0.48,0.39-0.87,0.87-0.87h27.04c0.48,0,0.87,0.39,0.87,0.87
		C77.95,71.48,77.56,71.87,77.08,71.87z"/>
	<path d="M54.66,49.48c-0.48,0-0.87-0.39-0.87-0.87v-7.95c0-0.48,0.39-0.87,0.87-0.87c0.48,0,0.87,0.39,0.87,0.87v7.95
		C55.53,49.09,55.14,49.48,54.66,49.48z"/>
	<path d="M54.66,84.56c-0.48,0-0.87-0.39-0.87-0.87v-8.74c0-0.48,0.39-0.87,0.87-0.87c0.48,0,0.87,0.39,0.87,0.87v8.74
		C55.53,84.17,55.14,84.56,54.66,84.56z"/>
</g>
</svg>
