<?xml version="1.0" encoding="utf-8"?>
<!-- Generator: Adobe Illustrator 27.6.1, SVG Export Plug-In . SVG Version: 6.00 Build 0)  -->
<svg version="1.1" id="Ebene_1" xmlns="http://www.w3.org/2000/svg" xmlns:xlink="http://www.w3.org/1999/xlink" x="0px" y="0px"
	 viewBox="0 0 128 128" style="enable-background:new 0 0 128 128;" xml:space="preserve">
<style type="text/css">
	.st0{fill:#FFFFFF;}
	.st1{fill:#FFCE99;}
</style>
<g>
	<path class="st0" d="M73.37,28.46c-2.03-4.83-5.94-8.28-9.74-8.6c-8.35-0.68-9.91,4.1-12.28,11.35c-1.09,3.34-2.33,7.12-4.46,10.88
		c-4.3,7.6-11.67,7.56-17.59,7.52c-0.33,0-0.65,0-0.97,0c-5.68,0-8.98,0.44-10.13,5.1c-0.97,3.95,2.56,8.61,9.01,11.87
		c5.23,2.65,11.78,4.04,18.35,3.36c0.13,0.19,0.27,0.39,0.41,0.58c0.34-0.05,0.52-0.09,0.52-0.09s-3.09-1.98-5.47-10.65
		s5.81-16.45,13.87-9.01c5.61,5.18,9.87,6.47,11.94,6.78C77.74,43.35,75.09,32.55,73.37,28.46z"/>
	<path class="st1" d="M74.45,29.53c-2.03-4.83-5.94-8.28-9.74-8.6c-8.35-0.68-9.91,4.1-12.28,11.35c-1.09,3.34-2.33,7.12-4.46,10.88
		c-4.3,7.6-11.67,7.56-17.59,7.52c-0.33,0-0.65,0-0.97,0c-5.68,0-8.98,0.44-10.13,5.1c-0.97,3.95,2.56,8.61,9.01,11.87
		c5.23,2.65,11.78,4.04,18.35,3.36c0.13,0.19-3.34-2.03-5.71-10.7c-2.37-8.66,5.12-16.88,15.06-8.47c5.83,4.94,9.33,5.8,11.4,6.1
		C78.27,43.76,76.16,33.63,74.45,29.53z"/>
	<path d="M51.1,43.43c-0.25,0-0.5-0.09-0.69-0.27c-0.42-0.38-0.44-1.03-0.06-1.45c1.68-1.82,2.74-4.56,3.22-6.03
		c3.05-9.29,4.31-13.13,10.11-12.6c0.56,0.05,0.98,0.55,0.92,1.11c-0.05,0.56-0.55,0.98-1.11,0.92c-4.03-0.37-4.9,1.83-7.98,11.2
		c-0.65,1.99-1.82,4.79-3.66,6.78C51.65,43.32,51.37,43.43,51.1,43.43z"/>
	<path d="M45.57,69.93c-6.57,0.68-13.12-0.71-18.35-3.36c-6.45-3.26-9.98-7.92-9.01-11.87c1.15-4.66,4.45-5.1,10.13-5.1
		c0.31,0,0.64,0,0.97,0c5.92,0.04,13.29,0.08,17.59-7.52c2.13-3.76,3.37-7.54,4.46-10.88c2.37-7.25,3.93-12.03,12.28-11.35
		c3.8,0.31,7.72,3.77,9.74,8.6c1.73,4.12,4.4,15.03-6.72,29.35c0.78,0.14,1.58,0.22,2.42,0.2c10.84-14.66,8.01-25.99,6.19-30.34
		c-2.35-5.6-6.85-9.47-11.46-9.84c-9.96-0.81-12.01,5.47-14.39,12.75c-1.06,3.25-2.27,6.93-4.29,10.51
		c-3.71,6.56-9.85,6.52-15.8,6.48c-5.62-0.04-11.43-0.07-13.09,6.65C15,59.13,18.96,64.69,26.29,68.4
		c4.62,2.33,10.19,3.75,15.96,3.75c1.56,0,3.14-0.11,4.71-0.33C46.47,71.2,46,70.57,45.57,69.93z"/>
	<path d="M71.99,85.56c-13.85,0-24.78-9.22-29.68-19.15c-3.63-7.37-3.45-14.19,0.47-17.39c5.36-4.38,9.99-0.86,14.46,2.55
		c4.73,3.6,9.62,7.33,16.52,4.32c3.77-1.65,6.95-3.86,9.75-5.82c6.28-4.39,11.7-8.18,19.17-1.54l0,0c3.46,3.07,4.73,8.87,3.25,14.76
		c-1.22,4.85-6.25,16.64-26.44,21.4C76.92,85.28,74.41,85.56,71.99,85.56z M47.96,49c-1.27,0-2.52,0.48-3.88,1.6
		c-3.15,2.57-3.12,8.42,0.07,14.9c5.4,10.96,18.62,21.01,34.88,17.18c19.09-4.5,23.79-15.42,24.92-19.91
		c1.28-5.08,0.23-10.19-2.62-12.73l0,0c-6.26-5.56-10.39-2.68-16.64,1.69c-2.88,2.01-6.14,4.29-10.1,6.02
		c-8.01,3.49-13.87-0.98-18.58-4.56C52.75,50.71,50.33,49,47.96,49z"/>
	<path class="st0" d="M47.96,49c-1.27,0-2.52,0.48-3.88,1.6c-3.15,2.57-3.12,8.42,0.07,14.9c5.4,10.96,18.62,21.01,34.88,17.18
		c19.09-4.5,23.79-15.42,24.92-19.91c1.28-5.08,0.23-10.19-2.62-12.73l0,0c-6.26-5.56-10.39-2.68-16.64,1.69
		c-2.88,2.01-6.14,4.29-10.1,6.02c-8.01,3.49-13.87-0.98-18.58-4.56C52.75,50.71,50.33,49,47.96,49z"/>
	<path class="st1" d="M48.93,50.4c-1.27,0-2.52,0.48-3.88,1.6c-3.15,2.57-3.12,8.42,0.07,14.9c5.4,10.96,18.11,20.42,34.37,16.61
		c16.83-3.95,24.3-14.86,25.43-19.34c1.28-5.08,0.23-10.19-2.62-12.73l0,0c-6.26-5.56-10.39-2.68-16.64,1.69
		c-2.88,2.01-6.14,4.29-10.1,6.02c-8.01,3.49-13.87-0.98-18.58-4.56C53.72,52.11,51.3,50.4,48.93,50.4z"/>
	<path d="M77.9,61.65c-0.45,0-0.87-0.31-0.99-0.77c-0.14-0.55,0.19-1.11,0.73-1.25c2.38-0.62,4.6-2.04,6.26-3.2
		c8.27-5.79,11.3-7.36,15.63-3.72c0.43,0.36,0.49,1.01,0.13,1.44c-0.36,0.43-1.01,0.49-1.44,0.13c-3.03-2.55-4.75-2.05-13.14,3.83
		c-1.8,1.26-4.22,2.8-6.92,3.51C78.08,61.64,77.99,61.65,77.9,61.65z"/>
	<path d="M71.99,85.56c-13.85,0-24.78-9.22-29.68-19.15c-3.63-7.37-3.45-14.19,0.47-17.39c5.36-4.38,9.99-0.86,14.46,2.55
		c4.73,3.6,9.62,7.33,16.52,4.32c3.77-1.65,6.95-3.86,9.75-5.82c6.28-4.39,11.7-8.18,19.17-1.54l0,0c3.46,3.07,4.73,8.87,3.25,14.76
		c-1.22,4.85-6.25,16.64-26.44,21.4C76.92,85.28,74.41,85.56,71.99,85.56z M47.96,49c-1.27,0-2.52,0.48-3.88,1.6
		c-3.15,2.57-3.12,8.42,0.07,14.9c5.4,10.96,18.62,21.01,34.88,17.18c19.09-4.5,23.79-15.42,24.92-19.91
		c1.28-5.08,0.23-10.19-2.62-12.73l0,0c-6.26-5.56-10.39-2.68-16.64,1.69c-2.88,2.01-6.14,4.29-10.1,6.02
		c-8.01,3.49-13.87-0.98-18.58-4.56C52.75,50.71,50.33,49,47.96,49z"/>
</g>
<g>
	<path d="M51.04,109.74v-7.54h1.02l3.96,5.92v-5.92h0.96v7.54h-1.02L52,103.81v5.93H51.04z"/>
	<path d="M62.13,109.74v-0.8c-0.43,0.62-1,0.93-1.73,0.93c-0.32,0-0.62-0.06-0.9-0.19c-0.28-0.12-0.49-0.28-0.62-0.47
		c-0.14-0.19-0.23-0.42-0.29-0.69c-0.04-0.18-0.06-0.47-0.06-0.86v-3.39h0.93v3.03c0,0.48,0.02,0.81,0.06,0.98
		c0.06,0.24,0.18,0.43,0.37,0.57c0.19,0.14,0.42,0.21,0.7,0.21c0.28,0,0.54-0.07,0.78-0.21c0.24-0.14,0.42-0.34,0.52-0.58
		c0.1-0.25,0.15-0.6,0.15-1.07v-2.93h0.93v5.46H62.13z"/>
	<path d="M66.43,108.91l0.13,0.82c-0.26,0.05-0.49,0.08-0.7,0.08c-0.34,0-0.6-0.05-0.78-0.16c-0.19-0.11-0.32-0.25-0.39-0.42
		c-0.08-0.17-0.11-0.54-0.11-1.09V105H63.9v-0.72h0.68v-1.35l0.92-0.56v1.91h0.93V105H65.5v3.19c0,0.26,0.02,0.43,0.05,0.51
		c0.03,0.08,0.09,0.14,0.16,0.18c0.07,0.04,0.18,0.07,0.32,0.07C66.12,108.95,66.26,108.93,66.43,108.91z"/>
	<path d="M66.96,108.11l0.92-0.14c0.05,0.37,0.19,0.65,0.43,0.84c0.23,0.2,0.56,0.29,0.99,0.29c0.43,0,0.74-0.09,0.95-0.26
		c0.21-0.17,0.31-0.38,0.31-0.61c0-0.21-0.09-0.37-0.27-0.49c-0.13-0.08-0.44-0.19-0.95-0.31c-0.68-0.17-1.15-0.32-1.41-0.44
		c-0.26-0.13-0.46-0.3-0.6-0.52c-0.14-0.22-0.2-0.47-0.2-0.73c0-0.24,0.06-0.47,0.17-0.68c0.11-0.21,0.26-0.38,0.46-0.52
		c0.14-0.11,0.34-0.2,0.59-0.27c0.25-0.07,0.52-0.11,0.8-0.11c0.43,0,0.8,0.06,1.13,0.19c0.32,0.12,0.56,0.29,0.72,0.5
		c0.15,0.21,0.26,0.49,0.32,0.85l-0.91,0.12c-0.04-0.28-0.16-0.5-0.36-0.66c-0.2-0.16-0.48-0.24-0.84-0.24
		c-0.43,0-0.73,0.07-0.91,0.21c-0.18,0.14-0.27,0.31-0.27,0.49c0,0.12,0.04,0.23,0.11,0.32c0.08,0.1,0.19,0.18,0.35,0.25
		c0.09,0.03,0.37,0.11,0.82,0.24c0.66,0.17,1.11,0.32,1.37,0.43c0.26,0.11,0.46,0.27,0.61,0.49c0.15,0.21,0.22,0.48,0.22,0.79
		c0,0.31-0.09,0.6-0.27,0.87c-0.18,0.27-0.44,0.48-0.78,0.63c-0.34,0.15-0.72,0.22-1.15,0.22c-0.71,0-1.25-0.15-1.62-0.44
		C67.3,109.13,67.07,108.69,66.96,108.11z"/>
</g>
</svg>
