<?xml version="1.0" encoding="utf-8"?>
<!-- Generator: Adobe Illustrator 16.0.0, SVG Export Plug-In . SVG Version: 6.00 Build 0)  -->
<!DOCTYPE svg PUBLIC "-//W3C//DTD SVG 1.1//EN" "http://www.w3.org/Graphics/SVG/1.1/DTD/svg11.dtd">
<svg version="1.1" id="Layer_1" xmlns="http://www.w3.org/2000/svg" xmlns:xlink="http://www.w3.org/1999/xlink" x="0px" y="0px"
	 width="100px" height="100px" viewBox="0 0 100 100" enable-background="new 0 0 100 100" xml:space="preserve">
<g>
	<path fill="#FFFFFF" d="M63.361,24.381c-2.238-5.334-6.563-9.149-10.76-9.493c-9.223-0.755-10.949,4.532-13.566,12.535
		c-1.205,3.687-2.572,7.865-4.924,12.02c-4.752,8.396-12.891,8.346-19.431,8.304c-0.363-0.002-0.72-0.004-1.066-0.004
		c-6.271,0-9.913,0.486-11.183,5.631c-1.076,4.361,2.83,9.506,9.952,13.107c5.778,2.922,13.007,4.459,20.269,3.707
		c0.146,0.215,0.301,0.428,0.455,0.641c0.377-0.057,0.578-0.1,0.578-0.1s-3.416-2.192-6.037-11.76
		c-2.621-9.566,6.414-18.173,15.322-9.947c6.199,5.725,10.898,7.147,13.188,7.484C68.184,40.834,65.258,28.902,63.361,24.381z"/>
	<path fill="#FFCE99" d="M64.549,25.568c-2.238-5.334-6.563-9.148-10.76-9.493c-9.223-0.755-10.949,4.532-13.566,12.536
		c-1.205,3.686-2.572,7.865-4.922,12.019c-4.754,8.396-12.893,8.346-19.433,8.304c-0.362-0.002-0.719-0.004-1.065-0.004
		c-6.271,0-9.914,0.486-11.184,5.631c-1.076,4.361,2.83,9.507,9.952,13.107c5.779,2.923,13.007,4.459,20.269,3.707
		c0.146,0.215-3.689-2.244-6.311-11.813c-2.621-9.566,5.654-18.645,16.629-9.353c6.439,5.452,10.303,6.403,12.59,6.739
		C68.773,41.277,66.445,30.09,64.549,25.568z"/>
	<path d="M38.764,40.918c-0.273,0-0.547-0.1-0.766-0.299c-0.459-0.424-0.486-1.139-0.064-1.598c1.852-2.006,3.023-5.036,3.557-6.664
		c3.363-10.257,4.758-14.5,11.164-13.91c0.621,0.057,1.078,0.607,1.021,1.229c-0.059,0.621-0.609,1.076-1.229,1.021
		c-4.447-0.413-5.418,2.017-8.811,12.365c-0.721,2.2-2.008,5.287-4.041,7.492C39.373,40.795,39.068,40.918,38.764,40.918z"/>
	<path d="M32.652,70.188c-7.262,0.752-14.49-0.785-20.269-3.707c-7.122-3.602-11.028-8.746-9.952-13.107
		c1.27-5.145,4.912-5.631,11.183-5.631c0.347,0,0.703,0.002,1.066,0.004c6.54,0.042,14.679,0.092,19.431-8.304
		c2.352-4.154,3.719-8.333,4.924-12.02c2.617-8.003,4.344-13.29,13.566-12.535c4.197,0.344,8.521,4.159,10.76,9.493
		c1.908,4.549,4.859,16.598-7.422,32.41c0.861,0.158,1.75,0.238,2.67,0.219c11.979-16.188,8.852-28.697,6.836-33.503
		c-2.598-6.187-7.566-10.454-12.66-10.871c-10.994-0.899-13.268,6.043-15.898,14.085c-1.172,3.586-2.5,7.65-4.74,11.608
		c-4.1,7.241-10.881,7.198-17.451,7.157C8.492,45.447,2.07,45.408,0.238,52.832c-1.338,5.422,3.029,11.57,11.125,15.664
		c5.099,2.578,11.258,4.145,17.621,4.145c1.727,0,3.467-0.117,5.207-0.359C33.648,71.592,33.135,70.895,32.652,70.188z"/>
	<path d="M61.834,87.443c-15.291,0.002-27.369-10.186-32.773-21.152c-4.012-8.139-3.807-15.677,0.52-19.207
		c5.926-4.834,11.031-0.945,15.971,2.816c5.221,3.978,10.623,8.092,18.25,4.766c4.168-1.816,7.674-4.268,10.766-6.429
		c6.934-4.848,12.922-9.034,21.171-1.704l0,0c3.821,3.395,5.229,9.791,3.586,16.297c-1.352,5.353-6.903,18.371-29.198,23.631
		C67.277,87.133,64.506,87.443,61.834,87.443z M35.297,47.07c-1.398,0-2.781,0.536-4.289,1.764c-3.48,2.84-3.449,9.3,0.078,16.457
		c5.967,12.105,20.566,23.207,38.52,18.971c21.09-4.975,26.276-17.032,27.526-21.985c1.418-5.608,0.254-11.257-2.895-14.054l0,0
		c-6.917-6.146-11.476-2.957-18.376,1.866c-3.18,2.223-6.783,4.741-11.158,6.649c-8.846,3.854-15.32-1.078-20.521-5.041
		C40.586,48.96,37.92,47.07,35.297,47.07z"/>
	<path fill="#FFFFFF" d="M35.297,47.07c-1.398,0-2.781,0.536-4.289,1.764c-3.48,2.84-3.449,9.3,0.078,16.457
		c5.967,12.105,20.566,23.207,38.52,18.971c21.09-4.975,26.276-17.032,27.526-21.985c1.418-5.608,0.254-11.257-2.895-14.054l0,0
		c-6.917-6.146-11.476-2.957-18.376,1.866c-3.18,2.223-6.783,4.741-11.158,6.649c-8.846,3.854-15.32-1.078-20.521-5.041
		C40.586,48.96,37.92,47.07,35.297,47.07z"/>
	<path fill="#FFCE99" d="M36.365,48.615c-1.396,0-2.781,0.535-4.287,1.764c-3.48,2.84-3.451,9.299,0.078,16.457
		c5.965,12.104,19.996,22.556,37.955,18.346c18.59-4.358,26.839-16.408,28.09-21.361c1.417-5.609,0.253-11.257-2.895-14.055l0,0
		c-6.918-6.145-11.475-2.956-18.377,1.867c-3.178,2.223-6.783,4.742-11.158,6.649c-8.846,3.854-15.318-1.077-20.521-5.04
		C41.654,50.504,38.988,48.615,36.365,48.615z"/>
	<path d="M68.367,61.045c-0.502,0-0.961-0.338-1.094-0.846c-0.156-0.604,0.207-1.221,0.811-1.378
		c2.631-0.683,5.076-2.248,6.914-3.534c9.127-6.397,12.48-8.127,17.265-4.111c0.478,0.4,0.54,1.113,0.139,1.592
		c-0.401,0.478-1.113,0.54-1.593,0.139c-3.35-2.813-5.25-2.262-14.514,4.23c-1.994,1.396-4.662,3.098-7.643,3.871
		C68.557,61.033,68.461,61.045,68.367,61.045z"/>
	<path d="M61.834,87.443c-15.291,0.002-27.369-10.186-32.773-21.152c-4.012-8.139-3.807-15.677,0.52-19.207
		c5.926-4.834,11.031-0.945,15.971,2.816c5.221,3.978,10.623,8.092,18.25,4.766c4.168-1.816,7.674-4.268,10.766-6.429
		c6.934-4.848,12.922-9.034,21.171-1.704l0,0c3.821,3.395,5.229,9.791,3.586,16.297c-1.352,5.353-6.903,18.371-29.198,23.631
		C67.277,87.133,64.506,87.443,61.834,87.443z M35.297,47.07c-1.398,0-2.781,0.536-4.289,1.764c-3.48,2.84-3.449,9.3,0.078,16.457
		c5.967,12.105,20.566,23.207,38.52,18.971c21.09-4.975,26.276-17.032,27.526-21.985c1.418-5.608,0.254-11.257-2.895-14.054l0,0
		c-6.917-6.146-11.476-2.957-18.376,1.866c-3.18,2.223-6.783,4.741-11.158,6.649c-8.846,3.854-15.32-1.078-20.521-5.041
		C40.586,48.96,37.92,47.07,35.297,47.07z"/>
</g>
</svg>
