<?xml version="1.0" encoding="utf-8"?>
<!-- Generator: Adobe Illustrator 27.6.1, SVG Export Plug-In . SVG Version: 6.00 Build 0)  -->
<svg version="1.1" id="Ebene_1" xmlns="http://www.w3.org/2000/svg" xmlns:xlink="http://www.w3.org/1999/xlink" x="0px" y="0px"
	 viewBox="0 0 128 128" style="enable-background:new 0 0 128 128;" xml:space="preserve">
<style type="text/css">
	.st0{fill:#EECD99;}
	.st1{fill:#FFFFFF;}
	.st2{fill:#FBEDD2;}
	.st3{fill:#D2604D;}
</style>
<g>
	<g>
		<path class="st0" d="M26.77,57.31c0,0,3.71-9.28,10.73-12.06s17.07-4.18,19.99-5.2c2.92-1.02,9.28-12.29,10.57-14.39
			S82.5,13.3,94.79,20.42c12.29,7.12,8.23,21.19,7.68,22.6c-0.55,1.41-2.82,5.16-2.82,5.16s-8.45-4.07-24.09-0.16
			s-13.14,7.9-27.21,5.63C34.28,51.38,26.77,57.31,26.77,57.31z"/>
		<path class="st1" d="M28.78,56.82l-1.97-1.03c1.84-3.52,4.72-6.74,8.14-9.07c6.42-4.39,12.44-5.08,16.83-5.59
			c2.74-0.31,4.9-0.56,6.24-1.56c3.43-2.55,4.91-5.24,6.35-7.85c1.72-3.12,3.51-6.35,8.44-9.79c3.99-2.79,9.76-4.96,14-4.45
			l-0.12,1.45c-3.62-0.44-9.12,2.39-12.61,4.82c-4.51,3.15-6.17,6.15-7.77,9.05c-1.55,2.82-3.16,5.73-6.97,8.56
			c-1.82,1.35-4.24,1.63-7.31,1.98c-4.16,0.48-9.87,1.13-15.83,5.21C33.09,50.69,30.45,53.62,28.78,56.82z"/>
		<path d="M69.87,32.47c-0.2,0-0.4-0.06-0.58-0.19c-0.44-0.32-0.55-0.94-0.23-1.38c4.04-5.62,8.63-8.8,13.64-9.45
			c6.65-0.86,11.52,3.09,11.72,3.26c0.42,0.35,0.48,0.97,0.13,1.4c-0.35,0.42-0.97,0.48-1.39,0.13c-0.04-0.04-4.45-3.58-10.23-2.82
			c-4.43,0.58-8.56,3.49-12.26,8.63C70.48,32.33,70.18,32.47,69.87,32.47z"/>
		<path d="M38.81,50.1c-0.35,0-0.69-0.18-0.87-0.51c-0.26-0.48-0.09-1.08,0.39-1.35c7.57-4.18,15.5-3.94,15.83-3.93
			c0.55,0.02,0.97,0.48,0.95,1.03c-0.02,0.55-0.47,0.98-1.03,0.95c-0.12,0-7.74-0.22-14.8,3.68C39.14,50.06,38.97,50.1,38.81,50.1z"
			/>
		<path class="st1" d="M22.45,73.49c0,0,4.07,10.22,17.83,10.84s20.84-9.36,27.42-9.13c6.58,0.23,19.39,7.66,29.4,1.99
			s9.59-13.33,9.59-15.97c0,0-4.68,8.04-18.77,8.62c-14.08,0.58-18.98-2.07-24.92-0.1c-3.16,1.05-13.62,6.4-22.21,6.36
			c-9.52-0.04-17.31-3.34-19.5-7.4L22.45,73.49z"/>
		<path class="st0" d="M25.38,74.67c0,0,2.6,9.04,16.36,9.67s19.38-9.36,25.96-9.13c6.58,0.23,20.97,7.3,30.98,1.63
			c7.13-4.04,8.05-12.14,8.05-14.77c0,0-1.79,8.38-15.87,8.96c-14.08,0.58-18.98-2.07-24.92-0.1c-3.16,1.05-13.62,6.4-22.21,6.36
			c-9.52-0.04-17.31-3.34-19.5-7.4L25.38,74.67z"/>
		<path d="M107.39,56.11c-0.1-0.52-0.58-0.87-1.1-0.8l-0.26,0.03c0.13,0.31,0.26,0.62,0.38,0.95c0.7,1.98,0.38,3.8-0.65,5.42
			c-0.18,5.25-1.99,12.84-10.55,15.12c-9.3,2.47-15.46,0.42-20.41-1.23c-2.88-0.96-5.36-1.79-7.74-1.4
			c-3.82,0.62-6.6,2.33-9.54,4.15c-3.91,2.41-7.96,4.9-15,4.94c-0.07,0-0.14,0-0.21,0c-11.32,0-17.96-4.51-19.77-13.42
			c-0.75-0.93-1.23-1.89-1.4-2.83c-0.06-0.33-0.1-0.66-0.13-0.98c-0.52,0.07-0.9,0.54-0.86,1.06C21.14,79,28.81,85.27,42.33,85.27
			c0.07,0,0.15,0,0.22,0c7.6-0.04,12.07-2.8,16.03-5.23c2.77-1.71,5.39-3.32,8.82-3.88c1.9-0.31,4.06,0.41,6.8,1.32
			c4.92,1.64,11.67,3.88,21.54,1.26C110.71,74.77,107.43,56.3,107.39,56.11z"/>
		<path d="M27.8,56.31c1.79-3.44,4.57-6.48,7.78-8.67c6.19-4.24,12.05-4.91,16.33-5.4c2.9-0.33,5.19-0.6,6.77-1.77
			c3.62-2.69,5.17-5.5,6.66-8.21c1.66-3.01,3.38-6.12,8.11-9.42C77.07,20.31,81.09,19,85.09,19c1.52,0,3.03,0.19,4.52,0.57
			c4.68,1.19,8.72,4.21,10.56,7.89c2.85,5.71,3.19,11.14,0.99,16.12c-0.71,1.61-1.66,3.08-2.75,4.4c0.64,0.27,1.25,0.57,1.84,0.9
			c1.07-1.36,2.01-2.86,2.73-4.5c2.41-5.47,2.06-11.63-1.03-17.81c-2.09-4.18-6.63-7.6-11.85-8.93c-5.99-1.52-12.31-0.26-17.78,3.57
			c-5.1,3.56-6.94,6.88-8.71,10.09c-1.46,2.64-2.84,5.14-6.11,7.57c-1.15,0.86-3.21,1.09-5.82,1.39
			c-4.49,0.51-10.63,1.22-17.22,5.73c-4.29,2.93-7.86,7.28-9.62,12.12C25.72,57.44,26.72,56.84,27.8,56.31z"/>
		<path class="st2" d="M42.2,54.23c-6.5,0-14.73,2.04-18.29,6.11c-1.63,1.86-2.23,4.06-1.78,6.53c0.82,4.6,10.4,9.95,23.53,7.86
			c5.64-0.9,8.35-2.31,10.98-3.68c2.33-1.22,4.75-2.48,9.02-3.24c1.79-0.32,3.99,0,6.77,0.4c4.22,0.61,10,1.46,17.37,0.33
			c5.88-0.9,12.88-3.57,15.23-7.51c0.85-1.43,1-2.87,0.46-4.41c-1.29-3.62-3.84-6.24-7.58-7.77c-9.51-3.9-23.97-0.07-30.85,3.26
			c-7.96,3.85-12.63,3.3-18.03,2.65c-1.72-0.21-3.51-0.42-5.52-0.51C43.08,54.24,42.64,54.23,42.2,54.23z"/>
		<g>
			<path class="st1" d="M20.46,67.24c-0.47-2.65,0.13-5.95,2.11-8.21c3.82-4.36,12.64-5.91,19.63-5.91c0.46,0,0.91,0.01,1.35,0.03
				c2.06,0.09,3.86,0.31,5.6,0.51c5.45,0.65,9.76,1.16,17.42-2.55c7.82-3.79,22.93-7.63,32.52-3.69l-0.72,1.45
				c-8.85-3.63-23.66,0.77-30.83,4.24c-8.25,3.99-13.07,3.42-18.65,2.76c-1.71-0.2-3.47-0.41-5.44-0.5
				c-0.41-0.02-0.83-0.03-1.25-0.03c-6.69,0-14.84,1.59-17.95,5.15c-1.53,1.75-2.62,4.75-2.26,6.75H20.46z"/>
		</g>
		<path d="M39.89,77.18c-11.25,0-18.87-5.26-19.71-9.96c-0.55-3.1,0.2-5.86,2.24-8.19c4.76-5.43,15.27-7.01,21.17-6.75
			c2.09,0.09,3.91,0.31,5.67,0.52c5.31,0.63,9.5,1.13,16.93-2.47c7.19-3.48,22.36-7.46,32.47-3.31c4.28,1.76,7.21,4.76,8.69,8.94
			c0.75,2.1,0.54,4.15-0.62,6.09c-2.87,4.8-10.75,7.55-16.63,8.45c-7.66,1.17-13.61,0.31-17.96-0.32c-2.6-0.38-4.66-0.68-6.13-0.41
			c-3.97,0.71-6.15,1.84-8.45,3.05c-2.76,1.44-5.62,2.93-11.58,3.88C43.85,77.03,41.81,77.18,39.89,77.18z M42.2,54.23
			c-6.5,0-14.73,2.04-18.29,6.11c-1.63,1.86-2.23,4.06-1.78,6.53c0.82,4.6,10.4,9.95,23.53,7.86c5.64-0.9,8.35-2.31,10.98-3.68
			c2.33-1.22,4.75-2.48,9.02-3.24c1.79-0.32,3.99,0,6.77,0.4c4.22,0.61,10,1.46,17.37,0.33c5.88-0.9,12.88-3.57,15.23-7.51
			c0.85-1.43,1-2.87,0.46-4.41c-1.29-3.62-3.84-6.24-7.58-7.77c-9.51-3.9-23.97-0.07-30.85,3.26c-7.96,3.85-12.63,3.3-18.03,2.65
			c-1.72-0.21-3.51-0.42-5.52-0.51C43.08,54.24,42.64,54.23,42.2,54.23z"/>
		<path class="st1" d="M43.14,57.31c-2.75,0-5.72,0.46-8.75,1.61c-3.98,1.51-6.34,3.56-6.83,5.92c-0.36,1.72,0.38,3.13,0.68,3.42
			c2.96,2.9,8.39,3.87,16.15,2.88c6.34-0.81,11.49-3.22,12.81-5.98c0.45-0.95,0.39-1.87-0.18-2.81l0,0
			C55.75,60.31,50.18,57.31,43.14,57.31z"/>
		<path class="st3" d="M44.54,57.83c-2.75,0-5.72,0.46-8.75,1.61c-3.98,1.51-6.34,3.56-6.83,5.92c-0.36,1.72,0.38,3.13,0.68,3.42
			c2.96,2.9,8.39,3.87,16.15,2.88c6.34-0.81,11.49-3.22,12.81-5.98c0.45-0.95,0.39-1.87-0.18-2.81l0,0
			C57.16,60.83,51.59,57.83,44.54,57.83z"/>
		<path d="M38.98,73.49c-5.48,0-9.55-1.28-12.14-3.82c-0.75-0.73-1.74-2.8-1.23-5.24c0.45-2.13,2.21-5.14,8.07-7.37
			c11.74-4.46,22.68,0.46,25.01,4.24c0.93,1.51,1.03,3.14,0.29,4.7c-1.62,3.4-7.26,6.19-14.35,7.1
			C42.61,73.36,40.72,73.49,38.98,73.49z M43.14,57.31c-2.75,0-5.72,0.46-8.75,1.61c-3.98,1.51-6.34,3.56-6.83,5.92
			c-0.36,1.72,0.38,3.13,0.68,3.42c2.96,2.9,8.39,3.87,16.15,2.88c6.34-0.81,11.49-3.22,12.81-5.98c0.45-0.95,0.39-1.87-0.18-2.81
			l0,0C55.75,60.31,50.18,57.31,43.14,57.31z"/>
		<path class="st1" d="M84.37,50.86c-7.85,0-14.4,2.3-16.94,6.13c-0.6,0.9-0.67,2.02-0.21,3.08c0.65,1.48,2.95,4.17,11.01,5.46
			c6.34,1.02,14.76-0.8,19.17-4.12c1.57-1.19,2.48-2.46,2.62-3.69l0,0c0.1-0.88-0.2-1.78-0.87-2.61c-0.99-1.23-3.72-3.38-10.84-4.05
			C86.97,50.93,85.65,50.86,84.37,50.86z"/>
		<path class="st3" d="M85.52,51.28c-7.85,0-14.4,2.3-16.94,6.13c-0.6,0.9-0.67,2.02-0.21,3.08c0.65,1.48,2.95,4.17,11.01,5.46
			c6.34,1.02,14.76-0.8,19.17-4.12c1.57-1.19,2.48-2.46,2.62-3.69l0,0c0.1-0.88-0.2-1.78-0.87-2.61c-0.99-1.23-3.72-3.38-10.84-4.05
			C88.12,51.34,86.8,51.28,85.52,51.28z"/>
		<path d="M82.04,67.8c-1.42,0-2.8-0.1-4.12-0.31c-8.54-1.37-11.52-4.35-12.51-6.62c-0.74-1.69-0.6-3.5,0.37-4.97
			c3.4-5.12,12.31-7.81,22.71-6.82c7.45,0.7,10.75,2.99,12.2,4.78c1.02,1.26,1.47,2.67,1.3,4.09h0c-0.21,1.77-1.38,3.52-3.4,5.04
			C94.66,65.97,88.08,67.8,82.04,67.8z M84.37,50.86c-7.85,0-14.4,2.3-16.94,6.13c-0.6,0.9-0.67,2.02-0.21,3.08
			c0.65,1.48,2.95,4.17,11.01,5.46c6.34,1.02,14.76-0.8,19.17-4.12c1.57-1.19,2.48-2.46,2.62-3.69l0,0c0.1-0.88-0.2-1.78-0.87-2.61
			c-0.99-1.23-3.72-3.38-10.84-4.05C86.97,50.93,85.65,50.86,84.37,50.86z"/>
		<path d="M30.44,66.03c-0.24,0-0.47-0.08-0.66-0.25c-0.41-0.37-0.44-0.99-0.08-1.4c0.21-0.24,5.37-5.87,14.88-5.61
			c0.55,0.01,0.98,0.47,0.96,1.02c-0.01,0.55-0.47,0.97-1.02,0.96c-8.58-0.23-13.31,4.9-13.35,4.95
			C30.99,65.92,30.72,66.03,30.44,66.03z"/>
		<path d="M69.93,59.76c-0.22,0-0.45-0.07-0.63-0.23c-0.42-0.35-0.48-0.97-0.14-1.39c0.22-0.27,5.63-6.68,17.43-5.55
			c0.55,0.05,0.94,0.54,0.89,1.08c-0.05,0.55-0.53,0.94-1.08,0.89c-10.69-1.03-15.51,4.6-15.71,4.84
			C70.5,59.64,70.22,59.76,69.93,59.76z"/>
	</g>
	<g>
		<path d="M48.14,110.04v-7.31h2.76c0.49,0,0.86,0.02,1.11,0.07c0.36,0.06,0.66,0.17,0.9,0.34c0.24,0.17,0.44,0.4,0.59,0.71
			c0.15,0.3,0.22,0.64,0.22,1c0,0.62-0.2,1.15-0.59,1.58c-0.4,0.43-1.11,0.65-2.14,0.65h-1.88v2.97H48.14z M49.11,106.21H51
			c0.63,0,1.07-0.12,1.33-0.35c0.26-0.23,0.39-0.56,0.39-0.98c0-0.31-0.08-0.57-0.23-0.79c-0.15-0.22-0.36-0.36-0.61-0.43
			c-0.16-0.04-0.46-0.06-0.9-0.06h-1.87V106.21z"/>
		<path d="M58.46,108.34l0.93,0.11c-0.15,0.54-0.42,0.96-0.81,1.26c-0.4,0.3-0.9,0.45-1.52,0.45c-0.77,0-1.39-0.24-1.84-0.72
			c-0.45-0.48-0.68-1.15-0.68-2.01c0-0.89,0.23-1.58,0.69-2.07c0.46-0.49,1.05-0.74,1.79-0.74c0.71,0,1.29,0.24,1.74,0.72
			c0.45,0.48,0.67,1.16,0.67,2.03c0,0.05,0,0.13-0.01,0.24h-3.95c0.03,0.58,0.2,1.03,0.49,1.34c0.3,0.31,0.66,0.46,1.11,0.46
			c0.33,0,0.61-0.09,0.84-0.26C58.14,108.99,58.33,108.72,58.46,108.34z M55.52,106.89h2.96c-0.04-0.45-0.15-0.78-0.34-1
			c-0.29-0.35-0.66-0.52-1.11-0.52c-0.41,0-0.76,0.14-1.04,0.41C55.7,106.05,55.55,106.42,55.52,106.89z"/>
		<path d="M63.98,109.39c-0.33,0.28-0.65,0.48-0.96,0.6c-0.31,0.12-0.64,0.17-0.99,0.17c-0.58,0-1.03-0.14-1.34-0.43
			c-0.31-0.28-0.47-0.65-0.47-1.09c0-0.26,0.06-0.5,0.18-0.71c0.12-0.21,0.27-0.39,0.46-0.52c0.19-0.13,0.41-0.23,0.65-0.29
			c0.18-0.05,0.44-0.09,0.8-0.13c0.73-0.09,1.26-0.19,1.6-0.31c0-0.12,0.01-0.2,0.01-0.23c0-0.37-0.08-0.62-0.25-0.77
			c-0.23-0.2-0.57-0.3-1.02-0.3c-0.42,0-0.73,0.07-0.94,0.22c-0.2,0.15-0.35,0.41-0.45,0.79l-0.88-0.12
			c0.08-0.38,0.21-0.68,0.39-0.91c0.18-0.23,0.45-0.41,0.79-0.53c0.35-0.12,0.75-0.19,1.2-0.19c0.45,0,0.82,0.05,1.1,0.16
			c0.28,0.11,0.49,0.24,0.62,0.4c0.13,0.16,0.23,0.37,0.28,0.61c0.03,0.15,0.04,0.43,0.04,0.83v1.2c0,0.83,0.02,1.36,0.06,1.58
			c0.04,0.22,0.11,0.43,0.23,0.64h-0.94C64.06,109.86,64,109.64,63.98,109.39z M63.9,107.38c-0.33,0.13-0.81,0.25-1.47,0.34
			c-0.37,0.05-0.63,0.11-0.78,0.18c-0.15,0.07-0.27,0.16-0.35,0.29c-0.08,0.13-0.12,0.27-0.12,0.43c0,0.24,0.09,0.44,0.27,0.6
			c0.18,0.16,0.45,0.24,0.8,0.24c0.35,0,0.65-0.08,0.92-0.23c0.27-0.15,0.47-0.36,0.59-0.62c0.1-0.2,0.14-0.5,0.14-0.9V107.38z"/>
		<path d="M66.2,110.04v-5.3h0.81v0.75c0.39-0.58,0.95-0.87,1.69-0.87c0.32,0,0.61,0.06,0.88,0.17c0.27,0.11,0.47,0.27,0.6,0.45
			c0.13,0.19,0.23,0.41,0.28,0.66c0.03,0.17,0.05,0.46,0.05,0.87v3.26h-0.9v-3.22c0-0.37-0.03-0.64-0.1-0.82
			c-0.07-0.18-0.19-0.33-0.37-0.43c-0.18-0.11-0.39-0.16-0.63-0.16c-0.38,0-0.71,0.12-0.99,0.36c-0.28,0.24-0.42,0.7-0.42,1.38v2.89
			H66.2z"/>
		<path d="M75.35,110.04v-0.78c-0.41,0.6-0.97,0.9-1.68,0.9c-0.31,0-0.6-0.06-0.88-0.18c-0.27-0.12-0.47-0.27-0.6-0.45
			c-0.13-0.18-0.22-0.4-0.28-0.67c-0.04-0.18-0.05-0.46-0.05-0.84v-3.28h0.9v2.94c0,0.47,0.02,0.78,0.05,0.95
			c0.06,0.24,0.18,0.42,0.36,0.56c0.18,0.13,0.41,0.2,0.68,0.2c0.27,0,0.52-0.07,0.76-0.21c0.24-0.14,0.4-0.33,0.5-0.56
			c0.1-0.24,0.15-0.58,0.15-1.03v-2.84h0.9v5.3H75.35z"/>
		<path d="M79.52,109.24l0.13,0.79c-0.25,0.05-0.48,0.08-0.68,0.08c-0.33,0-0.58-0.05-0.76-0.15c-0.18-0.1-0.31-0.24-0.38-0.41
			c-0.07-0.17-0.11-0.52-0.11-1.06v-3.05h-0.66v-0.7h0.66v-1.31l0.89-0.54v1.85h0.9v0.7h-0.9v3.1c0,0.26,0.02,0.42,0.05,0.49
			c0.03,0.07,0.08,0.13,0.15,0.17c0.07,0.04,0.17,0.06,0.31,0.06C79.23,109.27,79.36,109.26,79.52,109.24z"/>
	</g>
</g>
</svg>
