<?xml version="1.0" encoding="utf-8"?>
<!-- Generator: Adobe Illustrator 16.0.0, SVG Export Plug-In . SVG Version: 6.00 Build 0)  -->
<!DOCTYPE svg PUBLIC "-//W3C//DTD SVG 1.1//EN" "http://www.w3.org/Graphics/SVG/1.1/DTD/svg11.dtd">
<svg version="1.1" id="Layer_1" xmlns="http://www.w3.org/2000/svg" xmlns:xlink="http://www.w3.org/1999/xlink" x="0px" y="0px"
	 width="100px" height="100px" viewBox="0 0 100 100" enable-background="new 0 0 100 100" xml:space="preserve">
<g>
	<g>
		<path fill="#EECD99" d="M7.715,57.021c0,0,4.226-10.572,12.223-13.738c7.997-3.165,19.439-4.767,22.769-5.926
			c3.329-1.16,10.569-14,12.04-16.391c1.47-2.391,16.441-14.074,30.445-5.968c14.003,8.105,9.371,24.14,8.748,25.743
			c-0.624,1.603-3.207,5.879-3.207,5.879s-9.62-4.633-27.436-0.179c-17.814,4.454-14.964,8.997-30.998,6.413
			C16.266,50.272,7.715,57.021,7.715,57.021z"/>
		<path fill="#FFFFFF" d="M10.004,56.469l-2.246-1.172c2.09-4.008,5.382-7.678,9.267-10.337c7.31-5.001,14.164-5.788,19.17-6.363
			c3.117-0.358,5.577-0.641,7.104-1.776c3.901-2.902,5.597-5.974,7.236-8.943c1.963-3.555,3.992-7.23,9.616-11.156
			c4.546-3.174,11.12-5.652,15.947-5.063l-0.139,1.647c-4.123-0.502-10.388,2.722-14.358,5.493
			c-5.141,3.589-7.025,7.002-8.848,10.304c-1.771,3.206-3.601,6.521-7.943,9.752c-2.073,1.543-4.832,1.859-8.325,2.26
			c-4.744,0.545-11.239,1.291-18.03,5.938C14.907,49.479,11.905,52.824,10.004,56.469z"/>
		<path d="M56.802,28.73c-0.228,0-0.458-0.069-0.658-0.213c-0.507-0.364-0.622-1.07-0.257-1.576
			c4.605-6.404,9.834-10.023,15.539-10.76c7.576-0.977,13.122,3.521,13.355,3.714c0.48,0.397,0.549,1.109,0.151,1.591
			c-0.397,0.48-1.108,0.548-1.589,0.152c-0.051-0.042-5.065-4.078-11.658-3.213c-5.049,0.662-9.747,3.971-13.966,9.834
			C57.5,28.566,57.153,28.73,56.802,28.73z"/>
		<path d="M21.427,48.81c-0.398,0-0.784-0.21-0.99-0.583c-0.302-0.547-0.104-1.234,0.443-1.535
			c8.626-4.765,17.65-4.488,18.032-4.474c0.623,0.023,1.109,0.548,1.086,1.171c-0.022,0.623-0.538,1.115-1.17,1.087
			c-0.135-0.003-8.818-0.245-16.856,4.193C21.799,48.764,21.611,48.81,21.427,48.81z"/>
		<path fill="#FFFFFF" d="M2.785,75.451c0,0,4.633,11.639,20.31,12.352S46.832,77.137,54.33,77.397
			c7.498,0.262,22.091,8.726,33.492,2.261c11.402-6.463,10.927-15.184,10.927-18.188c0,0-5.335,9.158-21.378,9.824
			c-16.043,0.664-21.622-2.359-28.386-0.119c-3.599,1.192-15.513,7.291-25.297,7.244c-10.843-0.051-19.715-3.8-22.209-8.432
			L2.785,75.451z"/>
		<path fill="#EECD99" d="M6.122,76.791c0,0,2.958,10.299,18.636,11.012c15.677,0.713,22.074-10.666,29.572-10.405
			c7.498,0.262,23.884,8.313,35.289,1.854c8.119-4.6,9.171-13.824,9.171-16.828c0,0-2.039,9.545-18.082,10.209
			c-16.044,0.666-21.622-2.359-28.386-0.119c-3.6,1.193-15.512,7.291-25.297,7.245c-10.844-0.05-19.716-3.8-22.21-8.433
			L6.122,76.791z"/>
		<path d="M99.548,55.656c-0.11-0.588-0.661-0.987-1.252-0.914l-0.29,0.037c0.152,0.352,0.299,0.711,0.432,1.084
			c0.8,2.252,0.43,4.324-0.741,6.174c-0.208,5.977-2.27,14.629-12.016,17.219c-10.596,2.814-17.609,0.48-23.245-1.395
			c-3.278-1.092-6.109-2.035-8.816-1.595c-4.351,0.706-7.518,2.657-10.87,4.723c-4.455,2.745-9.063,5.583-17.08,5.623
			c-0.082,0.001-0.162,0.001-0.243,0.001c-12.898,0-20.459-5.139-22.522-15.282c-0.856-1.06-1.401-2.153-1.592-3.218
			c-0.067-0.382-0.116-0.755-0.146-1.12c-0.598,0.077-1.029,0.611-0.98,1.212c1.116,13.525,9.844,20.667,25.246,20.667
			c0.082,0,0.165,0,0.248-0.001c8.652-0.043,13.754-3.186,18.254-5.959c3.157-1.944,6.139-3.781,10.048-4.416
			c2.16-0.35,4.622,0.471,7.74,1.508c5.608,1.867,13.291,4.424,24.538,1.436C103.318,76.908,99.587,55.867,99.548,55.656z"/>
		<path d="M8.881,55.883c2.042-3.915,5.209-7.38,8.858-9.877c7.05-4.824,13.726-5.592,18.6-6.15c3.305-0.38,5.915-0.68,7.716-2.019
			c4.122-3.066,5.885-6.26,7.589-9.348c1.894-3.428,3.85-6.972,9.233-10.73c4.129-2.882,8.702-4.37,13.261-4.37
			c1.726,0,3.449,0.214,5.146,0.645c5.326,1.355,9.936,4.801,12.029,8.992c3.252,6.508,3.631,12.688,1.128,18.367
			c-0.807,1.83-1.89,3.504-3.138,5.012c0.725,0.303,1.424,0.645,2.093,1.027c1.224-1.551,2.291-3.264,3.113-5.129
			c2.747-6.234,2.341-13.25-1.176-20.287c-2.378-4.762-7.549-8.66-13.493-10.172c-6.824-1.734-14.018-0.293-20.256,4.063
			c-5.814,4.059-7.9,7.838-9.918,11.491c-1.661,3.01-3.23,5.853-6.96,8.627c-1.313,0.977-3.657,1.245-6.625,1.587
			C30.973,38.197,23.976,39,16.464,44.141c-4.883,3.342-8.957,8.289-10.955,13.811C6.515,57.172,7.653,56.484,8.881,55.883z"/>
		<path fill="#FBEDD2" d="M25.288,53.516c-7.4,0-16.773,2.32-20.832,6.955c-1.853,2.115-2.536,4.619-2.032,7.443
			c0.936,5.24,11.842,11.332,26.806,8.953c6.428-1.023,9.516-2.633,12.503-4.19c2.658-1.386,5.407-2.819,10.276-3.689
			c2.041-0.365,4.544-0.001,7.71,0.46c4.807,0.699,11.39,1.658,19.785,0.373c6.703-1.027,14.666-4.07,17.347-8.556
			c0.974-1.63,1.145-3.272,0.522-5.022c-1.467-4.127-4.37-7.104-8.63-8.851c-10.834-4.443-27.304-0.081-35.14,3.713
			c-9.064,4.388-14.383,3.755-20.542,3.021c-1.963-0.233-3.992-0.476-6.293-0.578C26.286,53.525,25.791,53.516,25.288,53.516z"/>
		<g>
			<path fill="#FFFFFF" d="M0.528,68.336c-0.539-3.021,0.148-6.781,2.402-9.354c4.349-4.965,14.4-6.734,22.357-6.734
				c0.519,0,1.035,0.012,1.536,0.033c2.347,0.104,4.399,0.35,6.384,0.586c6.212,0.74,11.113,1.324,19.844-2.902
				c8.906-4.313,26.123-8.688,37.048-4.207l-0.825,1.657c-10.086-4.136-26.946,0.873-35.118,4.829
				c-9.398,4.551-14.888,3.896-21.243,3.139c-1.943-0.23-3.948-0.47-6.2-0.57c-0.464-0.021-0.943-0.031-1.425-0.031
				c-7.621,0-16.9,1.815-20.451,5.87c-1.746,1.993-2.979,5.416-2.573,7.685H0.528z"/>
		</g>
		<path d="M22.65,79.658C9.838,79.659,1.156,73.671,0.2,68.312c-0.631-3.534,0.229-6.673,2.557-9.329
			c5.421-6.189,17.393-7.988,24.112-7.692c2.384,0.106,4.456,0.353,6.46,0.592c6.046,0.72,10.821,1.289,19.29-2.811
			c8.188-3.964,25.468-8.493,36.981-3.771c4.879,2.001,8.21,5.428,9.901,10.185c0.85,2.392,0.61,4.726-0.712,6.938
			c-3.267,5.467-12.247,8.604-18.943,9.629c-8.729,1.337-15.505,0.35-20.454-0.369c-2.964-0.432-5.305-0.772-6.987-0.473
			c-4.527,0.81-7.005,2.102-9.629,3.469c-3.146,1.641-6.401,3.338-13.192,4.418C27.164,79.482,24.846,79.658,22.65,79.658z
			 M25.288,53.516c-7.4,0-16.773,2.32-20.832,6.955c-1.853,2.115-2.536,4.619-2.032,7.443c0.936,5.24,11.842,11.332,26.806,8.953
			c6.428-1.023,9.516-2.633,12.503-4.19c2.658-1.386,5.407-2.819,10.276-3.689c2.041-0.365,4.544-0.001,7.71,0.46
			c4.807,0.699,11.39,1.658,19.785,0.373c6.703-1.027,14.666-4.07,17.347-8.556c0.974-1.63,1.145-3.272,0.522-5.022
			c-1.467-4.127-4.37-7.104-8.63-8.851c-10.834-4.443-27.304-0.081-35.14,3.713c-9.064,4.388-14.383,3.755-20.542,3.021
			c-1.963-0.233-3.992-0.476-6.293-0.578C26.286,53.525,25.791,53.516,25.288,53.516z"/>
		<path fill="#FFFFFF" d="M26.352,57.021c-3.131,0-6.517,0.52-9.965,1.83c-4.528,1.721-7.22,4.052-7.784,6.742
			c-0.411,1.961,0.436,3.564,0.773,3.896c3.368,3.307,9.557,4.409,18.393,3.279c7.227-0.925,13.091-3.663,14.595-6.815
			c0.518-1.086,0.449-2.131-0.209-3.197l0,0C40.725,60.441,34.376,57.021,26.352,57.021z"/>
		<path fill="#D2604D" d="M27.955,57.615c-3.131,0-6.517,0.52-9.966,1.83c-4.527,1.721-7.219,4.052-7.783,6.742
			c-0.411,1.961,0.436,3.564,0.773,3.896c3.368,3.306,9.556,4.408,18.393,3.278c7.226-0.925,13.091-3.663,14.595-6.815
			c0.518-1.086,0.449-2.131-0.209-3.197l0,0C42.327,61.035,35.979,57.615,27.955,57.615z"/>
		<path d="M21.617,75.451c-6.239,0-10.875-1.455-13.824-4.35c-0.851-0.836-1.983-3.194-1.401-5.971
			c0.51-2.428,2.517-5.855,9.192-8.391c13.368-5.079,25.834,0.525,28.492,4.828c1.064,1.722,1.177,3.574,0.326,5.357
			c-1.85,3.877-8.267,7.051-16.348,8.084C25.748,75.305,23.602,75.451,21.617,75.451z M26.352,57.021
			c-3.131,0-6.517,0.52-9.965,1.83c-4.528,1.721-7.22,4.052-7.784,6.742c-0.411,1.961,0.436,3.564,0.773,3.896
			c3.368,3.307,9.557,4.409,18.393,3.279c7.227-0.925,13.091-3.663,14.595-6.815c0.518-1.086,0.449-2.131-0.209-3.197l0,0
			C40.725,60.441,34.376,57.021,26.352,57.021z"/>
		<path fill="#FFFFFF" d="M73.325,49.68c-8.938,0-16.403,2.622-19.292,6.983c-0.681,1.026-0.768,2.306-0.239,3.51
			c0.741,1.69,3.356,4.745,12.54,6.215c7.227,1.157,16.817-0.907,21.83-4.698c1.79-1.354,2.822-2.807,2.987-4.199l0,0
			c0.117-0.999-0.228-2.028-0.995-2.979c-1.129-1.396-4.234-3.854-12.35-4.619C76.283,49.749,74.784,49.68,73.325,49.68z"/>
		<path fill="#D2604D" d="M74.632,50.154c-8.938,0-16.403,2.623-19.293,6.983c-0.68,1.026-0.767,2.306-0.238,3.511
			c0.741,1.689,3.356,4.744,12.54,6.214c7.227,1.157,16.817-0.906,21.83-4.698c1.79-1.354,2.822-2.806,2.986-4.199l0,0
			c0.117-0.998-0.227-2.028-0.994-2.979c-1.129-1.396-4.234-3.854-12.35-4.619C77.59,50.225,76.091,50.154,74.632,50.154z"/>
		<path d="M70.667,68.973c-1.613,0-3.191-0.114-4.69-0.354c-9.729-1.559-13.12-4.959-14.251-7.539
			c-0.843-1.921-0.688-3.986,0.424-5.665c3.868-5.837,14.021-8.891,25.869-7.771c8.491,0.8,12.243,3.404,13.895,5.447
			c1.159,1.434,1.672,3.046,1.481,4.662l0,0c-0.237,2.02-1.575,4.004-3.867,5.738C85.044,66.883,77.547,68.973,70.667,68.973z
			 M73.325,49.68c-8.938,0-16.403,2.622-19.292,6.983c-0.681,1.026-0.768,2.306-0.239,3.51c0.741,1.69,3.356,4.745,12.54,6.215
			c7.227,1.157,16.817-0.907,21.83-4.698c1.79-1.354,2.822-2.807,2.987-4.199l0,0c0.117-0.999-0.228-2.028-0.995-2.979
			c-1.129-1.396-4.234-3.854-12.35-4.619C76.283,49.749,74.784,49.68,73.325,49.68z"/>
		<path d="M11.896,66.951c-0.27,0-0.539-0.096-0.755-0.289c-0.462-0.416-0.503-1.128-0.088-1.592
			c0.245-0.273,6.114-6.691,16.955-6.391c0.623,0.017,1.115,0.536,1.099,1.16c-0.018,0.623-0.533,1.109-1.16,1.098
			c-9.772-0.266-15.157,5.582-15.211,5.641C12.514,66.825,12.205,66.951,11.896,66.951z"/>
		<path d="M56.878,59.816c-0.253,0-0.508-0.084-0.718-0.258c-0.479-0.396-0.55-1.105-0.154-1.586
			c0.255-0.311,6.409-7.611,19.852-6.324c0.621,0.061,1.076,0.611,1.017,1.232s-0.607,1.076-1.232,1.017
			c-12.178-1.172-17.665,5.239-17.893,5.512C57.525,59.678,57.203,59.816,56.878,59.816z"/>
	</g>
</g>
</svg>
