<?xml version="1.0" encoding="utf-8"?>
<!-- Generator: Adobe Illustrator 16.0.0, SVG Export Plug-In . SVG Version: 6.00 Build 0)  -->
<!DOCTYPE svg PUBLIC "-//W3C//DTD SVG 1.1//EN" "http://www.w3.org/Graphics/SVG/1.1/DTD/svg11.dtd">
<svg version="1.1" id="Layer_1" xmlns="http://www.w3.org/2000/svg" xmlns:xlink="http://www.w3.org/1999/xlink" x="0px" y="0px"
	 width="100px" height="100px" viewBox="0 0 100 100" enable-background="new 0 0 100 100" xml:space="preserve">
<g>
	<path fill="#FFFFFF" d="M43.35,2.858c-6.014,0-21.426,5.849-31.931,15.378C5.164,23.91-0.82,32.299,6.191,40.037
		c2.577,2.845,5.637,3.837,9.355,3.033c11.563-2.501,25.955-22.131,29.645-33.639c1.127-3.517,0.944-5.406,0.445-5.956
		C45.259,3.06,44.465,2.858,43.35,2.858z"/>
	<path fill="#FFFFFF" d="M78.327,51.541c-0.239-11.936-9.492-29.416-16.958-36.848c-2.618-2.605-4.381-3.303-5.1-3.108
		c-3.469,0.94-6.828,20.953-2.443,37.185c2.081,7.699,6.428,16.275,15.402,14.916C73.363,57.125,78.807,50.99,78.327,51.541z"/>
	<path fill="#F2DBD4" d="M80.414,51.078c-0.239-11.937-9.492-29.416-16.959-36.848c-2.617-2.606-4.38-3.304-5.1-3.109
		c-3.468,0.939-6.828,20.953-2.441,37.186c2.08,7.699,6.427,16.275,15.402,14.914C75.451,56.662,80.894,50.527,80.414,51.078z"/>
	<path fill="#F2DBD4" d="M45.205,4.689c-6.016,0-21.426,5.848-31.932,15.377C7.02,25.741,1.035,34.129,8.047,41.867
		c2.576,2.846,5.691,2.933,9.41,2.129c11.563-2.501,24.881-20.281,28.57-31.789c1.127-3.518,1.963-6.352,1.464-6.9
		C47.113,4.891,46.32,4.689,45.205,4.689z"/>
	<path d="M13.205,46.271c-3.504,0-6.641-1.443-9.192-4.26C-2.73,34.57-0.801,25.353,9.443,16.059
		C20.869,5.693,43.04-3.756,47.813,1.499l0,0c1.477,1.624,1.536,4.596,0.179,8.83c-3.986,12.433-19.104,32.864-31.823,35.614
		C15.156,46.162,14.167,46.271,13.205,46.271z M43.35,2.858c-6.014,0-21.426,5.849-31.931,15.378
		C5.164,23.91-0.82,32.299,6.191,40.037c2.577,2.845,5.637,3.837,9.355,3.033c11.563-2.501,25.955-22.131,29.645-33.639
		c1.127-3.517,0.944-5.406,0.445-5.956C45.259,3.06,44.465,2.858,43.35,2.858z"/>
	<path d="M23.107,16.676c-0.461,0-0.916-0.217-1.202-0.622c-0.469-0.663-0.312-1.58,0.352-2.049
		c0.312-0.22,7.688-5.396,15.237-7.554c0.781-0.223,1.595,0.229,1.818,1.01c0.223,0.781-0.229,1.594-1.01,1.817
		c-7.061,2.017-14.277,7.077-14.349,7.128C23.696,16.588,23.4,16.676,23.107,16.676z"/>
	<path fill="#FFFFFF" d="M94.364,40.994c-4.257,0-18.489,12.539-25.228,26.965c-3.573,7.652-5.848,17.701,3.611,22.127
		c3.476,1.627,6.682,1.357,9.8-0.822c9.696-6.777,15.376-30.445,14.327-42.486c-0.32-3.678-1.219-5.35-1.893-5.664
		C94.811,41.033,94.604,40.994,94.364,40.994z"/>
	<path fill="#F2DBD4" d="M96.631,42.14c-4.256,0-18.489,12.539-25.227,26.966c-3.574,7.65-5.849,17.701,3.611,22.125
		c3.475,1.628,5.654,1.061,8.772-1.119c9.696-6.777,15.753-28.751,14.704-40.791c-0.32-3.678-0.569-6.746-1.242-7.061
		C97.077,42.18,96.871,42.14,96.631,42.14z"/>
	<path d="M56.707,35.127c-0.708,0-1.332-0.514-1.449-1.235c-1.289-7.978,0.234-15.013,0.3-15.31
		c0.175-0.792,0.963-1.291,1.751-1.117c0.793,0.176,1.294,0.96,1.12,1.752c-0.015,0.068-1.464,6.805-0.268,14.205
		c0.13,0.802-0.415,1.557-1.217,1.686C56.865,35.121,56.785,35.127,56.707,35.127z"/>
	<path d="M68.077,66.768c0.509-1.056,1.063-2.111,1.657-3.162c-9.32,1.768-13.788-6.992-15.908-14.836
		c-4.385-16.231-1.025-36.244,2.443-37.185c0.719-0.194,2.481,0.503,5.1,3.108c7.466,7.432,16.719,24.912,16.958,36.848
		c0.491-0.564,0.986-1.117,1.482-1.654c0.407-0.441,0.815-0.873,1.224-1.293C79.56,36.029,70.848,19.98,63.443,12.609
		c-3.152-3.137-5.828-4.435-7.942-3.862c-6.851,1.855-8.537,25.897-4.513,40.79c3.05,11.287,8.757,17.26,16.306,17.26
		C67.553,66.797,67.814,66.782,68.077,66.768z"/>
	<path d="M77.064,94.055c-1.833,0-3.699-0.434-5.563-1.306c-9.096-4.255-10.883-13.501-5.029-26.034
		c6.528-13.979,23.318-31.262,29.753-28.266c1.989,0.928,3.193,3.645,3.579,8.074c1.133,13.006-4.906,37.695-15.572,45.15
		C81.965,93.258,79.545,94.055,77.064,94.055z M94.364,40.994c-4.257,0-18.489,12.539-25.228,26.965
		c-3.573,7.652-5.848,17.701,3.611,22.127c3.476,1.627,6.682,1.357,9.8-0.822c9.696-6.777,15.376-30.445,14.327-42.486
		c-0.32-3.678-1.219-5.35-1.893-5.664C94.811,41.033,94.604,40.994,94.364,40.994z"/>
	<path fill="#FFFFFF" d="M35.668,43.996c-3.791,0-15.357,16.016-18.668,32.136c-1.699,8.272-1.577,18.575,8.651,20.683
		c3.759,0.775,6.813-0.23,9.341-3.074c7.856-8.846,7.885-33.186,4.069-44.652c-1.167-3.504-2.43-4.921-3.156-5.069
		C35.83,44.003,35.75,43.996,35.668,43.996z"/>
	<path d="M81.279,59.206c-0.258,0-0.519-0.067-0.755-0.21c-0.696-0.418-0.923-1.32-0.504-2.018
		c4.157-6.928,9.858-11.324,10.099-11.508c0.646-0.492,1.568-0.367,2.061,0.276c0.492,0.645,0.369,1.567-0.274,2.061
		c-0.055,0.042-5.507,4.257-9.364,10.685C82.266,58.951,81.778,59.206,81.279,59.206z"/>
	<path fill="#F2DBD4" d="M38.314,45.695c-3.792,0-15.357,16.018-18.668,32.137c-1.699,8.272-1.578,18.576,8.65,20.684
		c3.759,0.775,6.676-1.299,8.791-4.461c5.996-8.967,6.568-30.227,4.099-41.867c-0.767-3.612-1.909-6.32-2.636-6.469
		C38.475,45.703,38.396,45.695,38.314,45.695z"/>
	<path d="M27.945,100c-0.936,0-1.899-0.102-2.889-0.305c-9.835-2.027-13.72-10.605-10.937-24.154
		c3.104-15.113,15.432-35.828,22.374-34.403c2.15,0.44,3.953,2.803,5.357,7.022c4.122,12.387,3.98,37.805-4.661,47.532
		C34.661,98.539,31.505,99.999,27.945,100z M35.668,43.996c-3.791,0-15.357,16.016-18.668,32.136
		c-1.699,8.272-1.577,18.575,8.651,20.683c3.759,0.775,6.813-0.23,9.341-3.074c7.856-8.846,7.885-33.186,4.069-44.652
		c-1.167-3.504-2.43-4.921-3.156-5.069C35.83,44.003,35.75,43.996,35.668,43.996z"/>
	<path d="M26.143,64.83c-0.178,0-0.358-0.031-0.534-0.101c-0.757-0.296-1.13-1.147-0.835-1.903
		c2.939-7.527,7.823-12.816,8.029-13.038c0.553-0.593,1.482-0.626,2.077-0.073c0.594,0.553,0.627,1.482,0.075,2.078
		c-0.048,0.05-4.717,5.119-7.442,12.102C27.286,64.475,26.73,64.83,26.143,64.83z"/>
</g>
</svg>
