<?xml version="1.0" encoding="utf-8"?>
<!-- Generator: Adobe Illustrator 27.6.1, SVG Export Plug-In . SVG Version: 6.00 Build 0)  -->
<svg version="1.1" id="Ebene_1" xmlns="http://www.w3.org/2000/svg" xmlns:xlink="http://www.w3.org/1999/xlink" x="0px" y="0px"
	 viewBox="0 0 128 128" style="enable-background:new 0 0 128 128;" xml:space="preserve">
<style type="text/css">
	.st0{fill:#FFFFFF;}
	.st1{fill:#F2DBD4;}
</style>
<g>
	<path class="st0" d="M61.46,9.81c-4.93,0-17.55,4.79-26.15,12.6c-5.12,4.65-10.02,11.52-4.28,17.86c2.11,2.33,4.62,3.14,7.66,2.48
		c9.47-2.05,21.26-18.13,24.28-27.55c0.92-2.88,0.77-4.43,0.36-4.88C63.02,9.97,62.37,9.81,61.46,9.81z"/>
	<path class="st0" d="M90.11,49.68c-0.2-9.78-7.77-24.09-13.89-30.18c-2.14-2.13-3.59-2.71-4.18-2.55c-2.84,0.77-5.59,17.16-2,30.46
		c1.7,6.31,5.26,13.33,12.62,12.22C86.04,54.25,90.5,49.23,90.11,49.68z"/>
	<path class="st1" d="M91.82,49.3c-0.2-9.78-7.77-24.09-13.89-30.18c-2.14-2.13-3.59-2.71-4.18-2.55c-2.84,0.77-5.59,17.16-2,30.46
		c1.7,6.31,5.26,13.33,12.62,12.22C87.75,53.87,92.21,48.85,91.82,49.3z"/>
	<path class="st1" d="M62.98,11.3c-4.93,0-17.55,4.79-26.15,12.6c-5.12,4.65-10.02,11.52-4.28,17.86c2.11,2.33,4.66,2.4,7.71,1.74
		c9.47-2.05,20.38-16.61,23.4-26.04c0.92-2.88,1.61-5.2,1.2-5.65C64.54,11.47,63.89,11.3,62.98,11.3z"/>
	<path d="M36.77,45.36c-2.87,0-5.44-1.18-7.53-3.49c-5.52-6.1-3.94-13.65,4.45-21.26C43.04,12.13,61.2,4.39,65.11,8.69l0,0
		c1.21,1.33,1.26,3.76,0.15,7.23c-3.26,10.18-15.65,26.92-26.06,29.17C38.37,45.27,37.55,45.36,36.77,45.36z M61.46,9.81
		c-4.93,0-17.55,4.79-26.15,12.6c-5.12,4.65-10.02,11.52-4.28,17.86c2.11,2.33,4.62,3.14,7.66,2.48
		c9.47-2.05,21.26-18.13,24.28-27.55c0.92-2.88,0.77-4.43,0.36-4.88C63.02,9.97,62.37,9.81,61.46,9.81z"/>
	<path d="M44.88,21.12c-0.38,0-0.75-0.18-0.98-0.51c-0.38-0.54-0.25-1.29,0.29-1.68c0.25-0.18,6.3-4.42,12.48-6.19
		c0.64-0.18,1.31,0.19,1.49,0.83c0.18,0.64-0.19,1.31-0.83,1.49c-5.78,1.65-11.69,5.8-11.75,5.84
		C45.36,21.05,45.12,21.12,44.88,21.12z"/>
	<path class="st0" d="M103.24,41.04c-3.49,0-15.14,10.27-20.66,22.09c-2.93,6.27-4.79,14.5,2.96,18.12
		c2.85,1.33,5.47,1.11,8.03-0.67c7.94-5.55,12.59-24.94,11.74-34.8c-0.26-3.01-1-4.38-1.55-4.64
		C103.61,41.07,103.44,41.04,103.24,41.04z"/>
	<path class="st1" d="M105.1,41.98c-3.49,0-15.14,10.27-20.66,22.09c-2.93,6.27-4.79,14.5,2.96,18.12c2.85,1.33,4.63,0.87,7.19-0.92
		c7.94-5.55,12.9-23.55,12.04-33.41c-0.26-3.01-0.47-5.53-1.02-5.78C105.46,42.01,105.29,41.98,105.1,41.98z"/>
	<path d="M72.4,36.24c-0.58,0-1.09-0.42-1.19-1.01c-1.06-6.53,0.19-12.3,0.25-12.54c0.14-0.65,0.79-1.06,1.43-0.92
		c0.65,0.14,1.06,0.79,0.92,1.43c-0.01,0.06-1.2,5.57-0.22,11.63c0.11,0.66-0.34,1.27-1,1.38C72.53,36.23,72.46,36.24,72.4,36.24z"
		/>
	<path d="M81.71,62.15c0.42-0.87,0.87-1.73,1.36-2.59c-7.63,1.45-11.29-5.73-13.03-12.15c-3.59-13.29-0.84-29.69,2-30.46
		c0.59-0.16,2.03,0.41,4.18,2.55c6.12,6.09,13.69,20.4,13.89,30.18c0.4-0.46,0.81-0.92,1.21-1.36c0.33-0.36,0.67-0.71,1-1.06
		c-1.21-10.29-8.34-23.44-14.41-29.47c-2.58-2.57-4.77-3.63-6.5-3.16c-5.61,1.52-6.99,21.21-3.7,33.41
		c2.5,9.25,7.17,14.14,13.36,14.14C81.28,62.17,81.5,62.16,81.71,62.15z"/>
	<path d="M89.07,84.5c-1.5,0-3.03-0.36-4.56-1.07c-7.45-3.49-8.91-11.06-4.12-21.32c5.35-11.45,19.1-25.61,24.37-23.15
		c1.63,0.76,2.62,2.98,2.93,6.61c0.93,10.65-4.02,30.87-12.75,36.98C93.09,83.85,91.1,84.5,89.07,84.5z M103.24,41.04
		c-3.49,0-15.14,10.27-20.66,22.09c-2.93,6.27-4.79,14.5,2.96,18.12c2.85,1.33,5.47,1.11,8.03-0.67
		c7.94-5.55,12.59-24.94,11.74-34.8c-0.26-3.01-1-4.38-1.55-4.64C103.61,41.07,103.44,41.04,103.24,41.04z"/>
	<path class="st0" d="M55.17,43.5c-3.11,0-12.58,13.12-15.29,26.32c-1.39,6.78-1.29,15.21,7.09,16.94c3.08,0.63,5.58-0.19,7.65-2.52
		c6.44-7.24,6.46-27.18,3.33-36.57c-0.96-2.87-1.99-4.03-2.59-4.15C55.3,43.51,55.23,43.5,55.17,43.5z"/>
	<path d="M92.52,55.96c-0.21,0-0.42-0.06-0.62-0.17c-0.57-0.34-0.76-1.08-0.41-1.65c3.41-5.67,8.08-9.27,8.27-9.43
		c0.53-0.4,1.28-0.3,1.69,0.23c0.4,0.53,0.3,1.28-0.22,1.69c-0.04,0.03-4.51,3.49-7.67,8.75C93.33,55.75,92.93,55.96,92.52,55.96z"
		/>
	<path class="st1" d="M57.33,44.89c-3.11,0-12.58,13.12-15.29,26.32c-1.39,6.78-1.29,15.21,7.09,16.94c3.08,0.63,5.47-1.06,7.2-3.65
		c4.91-7.34,5.38-24.76,3.36-34.29c-0.63-2.96-1.56-5.18-2.16-5.3C57.47,44.9,57.4,44.89,57.33,44.89z"/>
	<path d="M48.84,89.37c-0.77,0-1.56-0.08-2.37-0.25c-8.06-1.66-11.24-8.69-8.96-19.78c2.54-12.38,12.64-29.34,18.33-28.18
		c1.76,0.36,3.24,2.3,4.39,5.75c3.38,10.15,3.26,30.96-3.82,38.93C54.34,88.17,51.76,89.37,48.84,89.37z M55.17,43.5
		c-3.11,0-12.58,13.12-15.29,26.32c-1.39,6.78-1.29,15.21,7.09,16.94c3.08,0.63,5.58-0.19,7.65-2.52
		c6.44-7.24,6.46-27.18,3.33-36.57c-0.96-2.87-1.99-4.03-2.59-4.15C55.3,43.51,55.23,43.5,55.17,43.5z"/>
	<path d="M47.36,60.56c-0.15,0-0.29-0.03-0.44-0.08c-0.62-0.24-0.93-0.94-0.68-1.56c2.41-6.16,6.41-10.5,6.58-10.68
		c0.45-0.49,1.21-0.51,1.7-0.06c0.49,0.45,0.51,1.21,0.06,1.7c-0.04,0.04-3.86,4.19-6.1,9.91C48.3,60.27,47.85,60.56,47.36,60.56z"
		/>
</g>
<g>
	<path d="M44.69,116.58l1.11-0.1c0.05,0.44,0.17,0.81,0.37,1.09c0.19,0.28,0.49,0.51,0.89,0.69c0.4,0.18,0.86,0.26,1.36,0.26
		c0.45,0,0.84-0.07,1.19-0.2c0.34-0.13,0.6-0.32,0.77-0.55c0.17-0.23,0.25-0.49,0.25-0.76c0-0.28-0.08-0.52-0.24-0.73
		c-0.16-0.21-0.43-0.38-0.8-0.52c-0.24-0.09-0.77-0.24-1.58-0.43c-0.82-0.2-1.39-0.38-1.71-0.55c-0.42-0.22-0.74-0.5-0.95-0.83
		c-0.21-0.33-0.31-0.7-0.31-1.11c0-0.45,0.13-0.87,0.38-1.26c0.25-0.39,0.63-0.69,1.11-0.89c0.49-0.2,1.03-0.3,1.63-0.3
		c0.66,0,1.24,0.11,1.74,0.32c0.5,0.21,0.89,0.52,1.16,0.94c0.27,0.41,0.42,0.88,0.44,1.4l-1.13,0.08
		c-0.06-0.56-0.27-0.99-0.61-1.27c-0.35-0.29-0.87-0.43-1.55-0.43c-0.71,0-1.23,0.13-1.55,0.39c-0.33,0.26-0.49,0.57-0.49,0.94
		c0,0.32,0.12,0.58,0.35,0.79c0.23,0.21,0.82,0.42,1.77,0.63c0.95,0.22,1.61,0.4,1.97,0.57c0.52,0.24,0.9,0.54,1.14,0.91
		c0.25,0.37,0.37,0.79,0.37,1.26c0,0.47-0.14,0.92-0.41,1.34c-0.27,0.42-0.66,0.74-1.17,0.98c-0.51,0.23-1.08,0.35-1.71,0.35
		c-0.8,0-1.48-0.12-2.02-0.35c-0.54-0.23-0.97-0.59-1.28-1.06C44.87,117.71,44.71,117.18,44.69,116.58z"/>
	<path d="M57.63,117.37l1.13,0.14c-0.18,0.66-0.51,1.17-0.99,1.53c-0.48,0.36-1.09,0.55-1.84,0.55c-0.94,0-1.69-0.29-2.24-0.87
		c-0.55-0.58-0.83-1.39-0.83-2.44c0-1.08,0.28-1.92,0.84-2.52c0.56-0.6,1.28-0.9,2.17-0.9c0.86,0,1.56,0.29,2.11,0.88
		c0.55,0.59,0.82,1.41,0.82,2.47c0,0.06,0,0.16-0.01,0.29h-4.8c0.04,0.71,0.24,1.25,0.6,1.62c0.36,0.38,0.81,0.56,1.34,0.56
		c0.4,0,0.74-0.1,1.02-0.31C57.24,118.16,57.46,117.83,57.63,117.37z M54.05,115.6h3.59c-0.05-0.54-0.19-0.95-0.41-1.22
		c-0.35-0.42-0.8-0.63-1.35-0.63c-0.5,0-0.92,0.17-1.26,0.5C54.27,114.59,54.08,115.04,54.05,115.6z"/>
	<path d="M59.69,117.52l1.08-0.17c0.06,0.43,0.23,0.76,0.51,0.99c0.28,0.23,0.66,0.35,1.16,0.35c0.5,0,0.87-0.1,1.11-0.31
		c0.24-0.2,0.36-0.44,0.36-0.72c0-0.25-0.11-0.44-0.32-0.58c-0.15-0.1-0.52-0.22-1.11-0.37c-0.8-0.2-1.35-0.38-1.66-0.52
		c-0.31-0.15-0.54-0.35-0.7-0.61c-0.16-0.26-0.24-0.55-0.24-0.86c0-0.29,0.07-0.55,0.2-0.8c0.13-0.24,0.31-0.45,0.54-0.61
		c0.17-0.13,0.4-0.23,0.69-0.32c0.29-0.09,0.61-0.13,0.94-0.13c0.5,0,0.95,0.07,1.33,0.22c0.38,0.15,0.66,0.34,0.84,0.59
		c0.18,0.25,0.31,0.58,0.38,1l-1.07,0.15c-0.05-0.33-0.19-0.59-0.42-0.78c-0.23-0.19-0.56-0.28-0.98-0.28
		c-0.5,0-0.86,0.08-1.07,0.25c-0.21,0.17-0.32,0.36-0.32,0.58c0,0.14,0.04,0.27,0.13,0.38c0.09,0.12,0.23,0.21,0.42,0.29
		c0.11,0.04,0.43,0.13,0.96,0.28c0.77,0.21,1.31,0.37,1.61,0.51c0.3,0.13,0.54,0.32,0.72,0.57c0.17,0.25,0.26,0.56,0.26,0.93
		c0,0.36-0.11,0.71-0.32,1.03c-0.21,0.32-0.52,0.57-0.92,0.74c-0.4,0.18-0.85,0.26-1.36,0.26c-0.84,0-1.47-0.17-1.91-0.52
		C60.09,118.71,59.81,118.2,59.69,117.52z"/>
	<path d="M70.52,118.64c-0.4,0.34-0.79,0.59-1.17,0.73c-0.37,0.14-0.77,0.21-1.2,0.21c-0.71,0-1.25-0.17-1.63-0.52
		c-0.38-0.35-0.57-0.79-0.57-1.32c0-0.31,0.07-0.6,0.21-0.86c0.14-0.26,0.33-0.47,0.56-0.63c0.23-0.16,0.49-0.28,0.78-0.36
		c0.21-0.06,0.54-0.11,0.97-0.16c0.88-0.1,1.53-0.23,1.94-0.38c0-0.15,0.01-0.24,0.01-0.28c0-0.44-0.1-0.76-0.31-0.94
		c-0.28-0.25-0.69-0.37-1.24-0.37c-0.51,0-0.89,0.09-1.14,0.27c-0.24,0.18-0.42,0.5-0.54,0.95l-1.07-0.15
		c0.1-0.46,0.26-0.82,0.48-1.11c0.22-0.28,0.54-0.5,0.96-0.65c0.42-0.15,0.91-0.23,1.46-0.23c0.55,0,1,0.06,1.34,0.19
		c0.34,0.13,0.6,0.29,0.76,0.49c0.16,0.2,0.27,0.44,0.34,0.74c0.04,0.19,0.05,0.52,0.05,1.01v1.45c0,1.01,0.02,1.65,0.07,1.92
		c0.05,0.27,0.14,0.53,0.28,0.77h-1.14C70.63,119.21,70.55,118.95,70.52,118.64z M70.43,116.21c-0.4,0.16-0.99,0.3-1.78,0.41
		c-0.45,0.06-0.77,0.14-0.95,0.22c-0.19,0.08-0.33,0.2-0.43,0.35c-0.1,0.16-0.15,0.33-0.15,0.52c0,0.29,0.11,0.53,0.33,0.73
		c0.22,0.19,0.54,0.29,0.97,0.29c0.42,0,0.79-0.09,1.12-0.28c0.33-0.18,0.57-0.44,0.72-0.75c0.12-0.25,0.18-0.61,0.18-1.09V116.21z"
		/>
	<path d="M73.22,119.44v-6.43h0.98v0.9c0.2-0.31,0.47-0.57,0.81-0.76c0.34-0.19,0.72-0.29,1.14-0.29c0.48,0,0.87,0.1,1.17,0.3
		c0.3,0.2,0.52,0.47,0.64,0.83c0.51-0.75,1.17-1.13,1.99-1.13c0.64,0,1.13,0.18,1.47,0.53c0.34,0.35,0.51,0.9,0.51,1.63v4.41h-1.08
		v-4.05c0-0.44-0.04-0.75-0.11-0.94c-0.07-0.19-0.2-0.35-0.38-0.46c-0.19-0.12-0.4-0.18-0.65-0.18c-0.45,0-0.83,0.15-1.13,0.45
		c-0.3,0.3-0.45,0.78-0.45,1.44v3.74h-1.09v-4.18c0-0.48-0.09-0.85-0.27-1.09c-0.18-0.24-0.47-0.36-0.87-0.36
		c-0.31,0-0.59,0.08-0.85,0.24c-0.26,0.16-0.45,0.4-0.57,0.71c-0.12,0.31-0.18,0.76-0.18,1.34v3.34H73.22z"/>
	<path d="M87.96,117.37l1.13,0.14c-0.18,0.66-0.51,1.17-0.99,1.53c-0.48,0.36-1.09,0.55-1.84,0.55c-0.94,0-1.69-0.29-2.24-0.87
		c-0.55-0.58-0.83-1.39-0.83-2.44c0-1.08,0.28-1.92,0.84-2.52c0.56-0.6,1.28-0.9,2.17-0.9c0.86,0,1.56,0.29,2.11,0.88
		c0.55,0.59,0.82,1.41,0.82,2.47c0,0.06,0,0.16-0.01,0.29h-4.8c0.04,0.71,0.24,1.25,0.6,1.62c0.36,0.38,0.81,0.56,1.34,0.56
		c0.4,0,0.74-0.1,1.02-0.31C87.57,118.16,87.79,117.83,87.96,117.37z M84.38,115.6h3.59c-0.05-0.54-0.19-0.95-0.41-1.22
		c-0.35-0.42-0.8-0.63-1.35-0.63c-0.5,0-0.92,0.17-1.26,0.5C84.6,114.59,84.41,115.04,84.38,115.6z"/>
</g>
</svg>
