<?xml version="1.0" encoding="utf-8"?>
<!-- Generator: Adobe Illustrator 16.0.0, SVG Export Plug-In . SVG Version: 6.00 Build 0)  -->
<!DOCTYPE svg PUBLIC "-//W3C//DTD SVG 1.1//EN" "http://www.w3.org/Graphics/SVG/1.1/DTD/svg11.dtd">
<svg version="1.1" id="Layer_1" xmlns="http://www.w3.org/2000/svg" xmlns:xlink="http://www.w3.org/1999/xlink" x="0px" y="0px"
	 width="100px" height="100px" viewBox="0 0 100 100" enable-background="new 0 0 100 100" xml:space="preserve">
<g>
	<path fill="#FFFFFF" d="M40.866,92.298c-2.854-2.284-6.28-5.021-10.315-7.606v7.104c0,0.988,0.804,1.793,1.792,1.793h10.144
		C41.971,93.182,41.434,92.752,40.866,92.298z"/>
	<path fill="#FFE1CA" d="M43.248,93.569c-2.854-2.284-6.28-5.021-10.316-7.606v7.104c0,0.989,0.805,1.793,1.793,1.793h10.143
		C44.352,94.453,43.814,94.023,43.248,93.569z"/>
	<path d="M44.624,93.589H32.343c-0.988,0-1.792-0.805-1.792-1.793V84.23h1.697c-1.208-0.8-2.475-1.59-3.801-2.355
		c-0.315,0.239-0.522,0.615-0.522,1.043v8.878c0,2.437,1.982,4.419,4.418,4.419H48.99C47.852,95.901,46.4,94.943,44.624,93.589z"/>
	<path fill="#FFFFFF" d="M48.844,4.98c-9.215,0-30.784,2.477-41.543,24.279C0.559,42.922,2.352,53.789,5.043,60.501
		c3.623,9.033,10.094,14.128,14.533,15.746c9.983,3.637,17.467,9.628,22.931,14.001c3.066,2.453,5.962,4.771,7.228,4.771
		c1.437,0,4.647-2.424,8.366-5.23c5.32-4.016,12.606-9.515,21.714-13.51c7.368-3.233,13.124-9.285,15.792-16.604
		c3.216-8.824,2.026-19.341-3.438-30.414l0,0C81.402,7.444,59.463,4.981,50.142,4.981c-0.119,0-0.236,0-0.352,0.001l-0.282,0.001
		l-0.262-0.001C49.115,4.981,48.98,4.98,48.844,4.98z"/>
	<path fill="#FFFFFF" d="M59.683,91.885c-0.805,0.606-1.559,1.175-2.271,1.704h9.715c0.988,0,1.792-0.805,1.792-1.793v-6.534
		C65.379,87.586,62.29,89.917,59.683,91.885z"/>
	<path fill="#FFE1CA" d="M61.649,92.871c-0.804,0.606-1.558,1.175-2.271,1.704h9.715c0.988,0,1.793-0.804,1.793-1.793v-6.534
		C67.346,88.571,64.257,90.903,61.649,92.871z"/>
	<path fill="#F9CCA7" d="M51.495,6.87c-9.215,0-30.784,2.478-41.544,24.279C3.209,44.812,5.002,55.679,7.693,62.391
		c3.623,9.033,10.094,14.128,14.534,15.746c9.983,3.638,17.467,9.627,22.931,14.001c3.065,2.454,4.1,3.395,5.365,3.395
		c1.437,0,5.122-2.37,8.84-5.177c5.32-4.015,12.947-9.036,22.054-13.031c7.368-3.232,12.656-9.57,15.323-16.891
		c3.216-8.824,3.544-18.211-1.921-29.284l0,0C84.054,9.334,62.113,6.871,52.793,6.871c-0.119,0-0.237,0-0.352,0.001l-0.282,0.001
		l-0.262-0.001C51.767,6.871,51.632,6.87,51.495,6.87z"/>
	<path d="M68.094,84.23h0.824v7.565c0,0.988-0.804,1.793-1.792,1.793H55.18c-1.904,1.357-3.459,2.312-4.656,2.626h16.603
		c2.436,0,4.418-1.982,4.418-4.419v-8.878c0-0.269-0.081-0.518-0.219-0.725C70.211,82.866,69.131,83.548,68.094,84.23z"/>
	<g>
		<path fill="#FFE1CA" d="M69.925,83.058c0-0.001,0-0.002,0-0.002l-0.051,0.032C69.891,83.078,69.908,83.067,69.925,83.058z"/>
		<polygon fill="#FFE1CA" points="52.053,94.86 48.004,94.923 50.003,96.215 		"/>
	</g>
	<path d="M49.734,97.646c-2.188,0-4.846-2.128-8.868-5.348c-5.322-4.26-12.611-10.094-22.188-13.584
		c-6.517-2.375-12.825-9.14-16.072-17.235c-2.891-7.208-4.832-18.851,2.34-33.381c5.393-10.929,13.99-18.547,25.553-22.643
		c4.091-1.449,10.657-3.159,18.769-3.099l0.244,0.001l0.262-0.001c9.599-0.062,33.189,2.315,44.751,25.741l0,0
		c5.789,11.731,7.018,22.961,3.55,32.475c-2.911,7.99-9.182,14.592-17.204,18.11c-8.825,3.872-15.97,9.265-21.187,13.202
		C55.087,95.354,52.051,97.646,49.734,97.646z M48.844,4.98c-9.215,0-30.784,2.477-41.543,24.279
		C0.559,42.922,2.352,53.789,5.043,60.501c3.623,9.033,10.094,14.128,14.533,15.746c9.983,3.637,17.467,9.628,22.931,14.001
		c3.066,2.453,5.962,4.771,7.228,4.771c1.437,0,4.647-2.424,8.366-5.23c5.32-4.016,12.606-9.515,21.714-13.51
		c7.368-3.233,13.124-9.285,15.792-16.604c3.216-8.824,2.026-19.341-3.438-30.414l0,0C81.402,7.444,59.463,4.981,50.142,4.981
		c-0.119,0-0.236,0-0.352,0.001l-0.282,0.001l-0.262-0.001C49.115,4.981,48.98,4.98,48.844,4.98z"/>
	<path d="M56.294,74.83c-0.138,0-0.277-0.022-0.416-0.068c-0.688-0.229-1.06-0.974-0.83-1.661L71.671,23.25
		c0.229-0.688,0.972-1.059,1.661-0.83c0.688,0.229,1.061,0.974,0.831,1.661L57.539,73.932C57.355,74.481,56.844,74.83,56.294,74.83z
		"/>
	<path d="M62.72,77.324c-0.317,0-0.637-0.114-0.889-0.347c-0.533-0.491-0.567-1.321-0.077-1.855l27.539-29.911
		c0.49-0.533,1.322-0.568,1.855-0.076c0.533,0.49,0.568,1.321,0.076,1.854L63.686,76.901C63.428,77.182,63.074,77.324,62.72,77.324z
		"/>
	<path d="M42.94,74.83c-0.55,0-1.063-0.349-1.245-0.898L25.071,24.081c-0.229-0.688,0.143-1.432,0.83-1.661
		c0.689-0.229,1.432,0.143,1.661,0.83l16.624,49.851c0.229,0.688-0.143,1.432-0.831,1.661C43.218,74.808,43.078,74.83,42.94,74.83z"
		/>
	<path d="M36.514,77.324c-0.354,0-0.707-0.143-0.966-0.423L8.009,46.989c-0.491-0.533-0.457-1.364,0.077-1.854
		c0.533-0.492,1.364-0.457,1.854,0.076l27.539,29.911c0.491,0.534,0.457,1.364-0.077,1.855C37.15,77.21,36.831,77.324,36.514,77.324
		z"/>
	<path d="M49.5,73.757c-0.726,0-1.313-0.588-1.313-1.313V17.207c0-0.725,0.588-1.313,1.313-1.313c0.725,0,1.313,0.588,1.313,1.313
		v55.237C50.813,73.169,50.225,73.757,49.5,73.757z"/>
</g>
</svg>
