<?xml version="1.0" encoding="utf-8"?>
<!-- Generator: Adobe Illustrator 16.0.0, SVG Export Plug-In . SVG Version: 6.00 Build 0)  -->
<!DOCTYPE svg PUBLIC "-//W3C//DTD SVG 1.1//EN" "http://www.w3.org/Graphics/SVG/1.1/DTD/svg11.dtd">
<svg version="1.1" id="Layer_1" xmlns="http://www.w3.org/2000/svg" xmlns:xlink="http://www.w3.org/1999/xlink" x="0px" y="0px"
	 width="100px" height="100px" viewBox="0 0 100 100" enable-background="new 0 0 100 100" xml:space="preserve">
<g>
	<g>
		<path fill="#FFFFFF" d="M61.973,64.232c-2.817-2.428-7.341-3.672-10.999-3.021c-1.521,0.27-2.968,0.777-4.279,1.471
			c1.864,2.771,2.194,5.98,2.193,7.879c-0.002,4.012-0.847,6.883-2.641,8.955c2.11,0.729,4.666,1.039,7.413,0.803
			c6.808-0.586,10.97-4.426,11.135-10.273C64.871,67.318,63.303,65.379,61.973,64.232z"/>
		<path fill="#F4B46E" d="M63.457,65.215c-2.816-2.428-7.34-3.67-10.998-3.021c-1.352,0.24-2.646,0.668-3.838,1.246
			c-0.238,0.117-0.313,0.416-0.175,0.641c1.63,2.672,1.927,5.658,1.926,7.463c-0.001,4.012-0.847,6.883-2.64,8.955
			c2.11,0.729,4.666,1.039,7.412,0.803c6.808-0.586,10.969-4.426,11.135-10.273C66.355,68.301,64.787,66.361,63.457,65.215z"/>
		<path fill="#FFFFFF" d="M68.869,60.074c5.748-5.742,10.779-8.139,15.219-10.252c2.195-1.045,4.268-2.031,6.199-3.324
			c4.958-3.316,7.746-13.852,3.863-23.713c-0.012,0-0.023,0-0.034,0c-2.704,0-10.894,1.322-14.741,5.715
			c-2.447,2.795-3.733,5.221-4.869,7.357c-1.176,2.215-2.285,4.305-4.379,6.158c-2.811,2.486-7.177,2.66-11.399,2.828
			c-2.138,0.086-4.156,0.166-5.813,0.545c-2.58,0.59-4.57,1.561-6.678,2.588c-3.221,1.57-6.551,3.193-12.017,3.391
			c-1.742,0.063-4.095-0.309-6.821-0.74c-3.289-0.518-7.242-1.143-11.223-1.143c-3.289,0-6.598,0.426-9.564,1.689
			c-1.797,0.766-3.278,2.455-3.964,4.516c-0.627,1.887-0.491,3.824,0.375,5.314c0.495,0.852,1.102,1.65,1.797,2.389
			c-0.289,0.266-0.561,0.545-0.816,0.838c2.031-2.375,7.081-4.086,11.475-4.549c4.395-0.461,9.509,2.926,9.509,2.926
			s3.159-3.627,8.561-4.15c5.402-0.523,10.473,2.906,10.473,2.906l8.635-2.906c5.131,0.939,9.113,3.826,10.88,5.307
			C65.427,62.9,67.23,61.713,68.869,60.074z"/>
		<path d="M58.744,66.357c-0.197,0-0.396-0.051-0.576-0.158c-2.361-1.4-4.914-1.703-7.588-0.9c-0.598,0.18-1.227-0.16-1.406-0.758
			s0.16-1.227,0.758-1.406c3.257-0.977,6.504-0.59,9.389,1.121c0.537,0.318,0.715,1.012,0.396,1.549
			C59.505,66.16,59.129,66.357,58.744,66.357z"/>
		<path fill="#95B950" d="M69.404,61.461c5.748-5.744,10.779-8.139,15.219-10.252c2.193-1.045,4.266-2.031,6.199-3.324
			c4.957-3.316,9.038-13.852,5.155-23.715c-0.012,0-1.315,0-1.327,0c-2.704,0-10.894,1.324-14.74,5.717
			c-2.447,2.795-3.734,5.219-4.87,7.357c-1.175,2.215-2.285,4.305-4.378,6.158c-2.811,2.486-7.178,2.66-11.4,2.828
			c-2.137,0.086-4.156,0.166-5.813,0.545c-2.58,0.59-4.57,1.559-6.678,2.586c-3.221,1.57-6.551,3.195-12.018,3.393
			c-1.742,0.063-4.096-0.309-6.82-0.74c-3.289-0.52-7.242-1.143-11.223-1.143c-3.29,0-6.598,0.426-9.565,1.689
			c-1.797,0.766-3.278,2.453-3.964,4.516c-0.627,1.887-0.491,3.822,0.375,5.313c0.495,0.854,0.595,0.613,1.29,1.354
			c-0.289,0.264,3.741-3.479,8.968-4.061c4.393-0.488,11.195,3.344,11.195,3.344s3.506-4.045,8.908-4.568
			c5.401-0.523,11.4,3.564,11.4,3.564s5.285-2.205,7.527-2.34c7.035-0.418,9.463,2.926,11.223,5.467
			C65.961,64.285,67.764,63.1,69.404,61.461z"/>
		<path d="M96.201,21.828c-0.307-0.768-1.026-1.277-1.833-1.299c-2.885-0.074-12.169,1.316-16.692,6.482
			c-2.62,2.992-3.973,5.539-5.166,7.787c-1.17,2.203-2.094,3.943-3.881,5.525c-2.207,1.953-6.164,2.111-9.992,2.264
			c-2.244,0.09-4.364,0.174-6.226,0.6c-2.833,0.646-5.035,1.721-7.165,2.758c-3.146,1.535-6.119,2.984-11.107,3.164
			c-1.52,0.059-3.777-0.301-6.389-0.713c-6.275-0.99-14.87-2.348-22.024,0.699c-2.383,1.016-4.336,3.215-5.223,5.883
			c-0.831,2.5-0.625,5.109,0.565,7.16c0.618,1.064,1.385,2.051,2.264,2.959c0.423-0.621,0.925-1.189,1.487-1.705
			c-0.695-0.738-1.302-1.537-1.797-2.389c-0.865-1.49-1.002-3.428-0.375-5.314c0.686-2.061,2.167-3.75,3.964-4.516
			c2.967-1.264,6.275-1.689,9.564-1.689c3.98,0,7.934,0.625,11.223,1.143c2.727,0.432,5.079,0.803,6.821,0.74
			c5.466-0.197,8.796-1.82,12.017-3.391c2.107-1.027,4.098-1.998,6.678-2.588c1.657-0.379,3.676-0.459,5.813-0.545
			c4.223-0.168,8.589-0.342,11.399-2.828c2.094-1.854,3.203-3.943,4.379-6.156c1.136-2.139,2.422-4.564,4.869-7.359
			c3.848-4.393,12.037-5.715,14.741-5.715c0.012,0,0.022,0,0.034,0c3.883,9.861,1.095,20.396-3.863,23.713
			c-1.932,1.293-4.004,2.279-6.199,3.324c-4.439,2.113-9.471,4.51-15.219,10.252c-1.697,1.697-3.568,2.912-5.534,3.783
			c0.498,0.588,0.922,1.225,1.249,1.906c2.077-0.959,4.068-2.277,5.883-4.09c5.473-5.471,10.318-7.775,14.593-9.811
			c2.271-1.082,4.415-2.104,6.484-3.488C97.36,44.484,100.619,32.891,96.201,21.828z"/>
		<path d="M63.448,62.523c-3.349-2.889-8.52-4.311-12.87-3.537c-2.43,0.432-4.668,1.354-6.559,2.66
			c0.33,0.238,0.637,0.49,0.923,0.756s0.55,0.543,0.792,0.83c1.547-0.98,3.339-1.684,5.239-2.021
			c3.658-0.65,8.182,0.594,10.999,3.021c1.33,1.146,2.898,3.086,2.822,5.813c-0.165,5.848-4.327,9.688-11.135,10.273
			c-2.843,0.244-5.484-0.092-7.637-0.875c-0.526,0.627-1.165,1.184-1.934,1.656c2.159,1.002,4.805,1.559,7.719,1.559
			c0.668,0,1.352-0.029,2.045-0.09c7.945-0.684,13.002-5.457,13.199-12.461C67.133,67.248,65.887,64.625,63.448,62.523z"/>
		<path fill="#FFFFFF" d="M14.533,60.717c-0.166,0-0.325,0.004-0.479,0.01c-3.247,0.119-9.989,2.543-10.864,7.602
			c-0.544,3.141,0.119,6.008,1.865,8.07c1.903,2.25,5.001,3.438,8.964,3.438c0.034,0,0.067,0,0.102-0.002
			c4.182-0.021,7.58-1.25,9.86-3.551c-0.527-1.344-1.167-3.658-0.837-6.471c0.528-4.502,1.566-6.158,1.383-5.84
			C21.834,61.557,17.353,60.717,14.533,60.717z"/>
		<path fill="#FFFFFF" d="M34.891,59.682c-8.104,0-10.136,5.668-10.638,8.191l0,0c-0.479,2.406-0.221,6.254,2.083,9.188
			c1.883,2.398,4.766,3.695,8.563,3.857c4.247,0.184,7.339-0.629,9.198-2.412c1.725-1.65,2.529-4.176,2.531-7.945
			c0-4.648-1.836-10.301-10.594-10.842C35.641,59.693,35.258,59.682,34.891,59.682z M23.145,67.652h0.004H23.145z"/>
		<path fill="#F4B46E" d="M15.771,61.736c-0.166,0-0.326,0.002-0.479,0.008c-3.247,0.119-9.99,2.541-10.864,7.602
			c-0.543,3.141,0.119,6.008,1.865,8.07c1.903,2.25,5.002,3.436,8.964,3.436c0.034,0,0.067,0,0.103,0
			c4.18-0.021,7.58-1.25,9.859-3.553c-0.526-1.342-2.066-3.75-2.07-6.582c-0.004-4.359,1.605-6.551,1.422-6.234
			C21.876,62.068,18.59,61.736,15.771,61.736z"/>
		<path d="M24.295,75.945c-0.041,0.047-0.077,0.098-0.121,0.143c-2.277,2.43-5.754,3.725-10.053,3.746
			c-0.034,0.002-0.067,0.002-0.102,0.002c-3.963,0-7.061-1.188-8.964-3.438c-1.746-2.063-2.409-4.93-1.865-8.07
			c0.875-5.059,7.617-7.482,10.864-7.602c0.153-0.006,0.313-0.008,0.479-0.008c2.819,0,7.301,0.838,9.994,3.254
			c0.36-0.623,0.791-1.234,1.307-1.809c-3.16-2.697-8.043-3.834-11.863-3.695c-3.989,0.146-11.9,3.076-13.007,9.475
			c-0.659,3.811,0.182,7.332,2.367,9.914c1.639,1.938,4.82,4.236,10.687,4.236c0.038,0,0.076,0,0.115,0
			c4.781-0.023,8.721-1.477,11.43-4.199C25.063,77.279,24.641,76.625,24.295,75.945z"/>
		<path fill="#F4B46E" d="M36.315,60.664c-8.103,0-10.136,5.666-10.638,8.189l0,0c-0.479,2.406-0.221,6.254,2.083,9.188
			c1.884,2.398,4.766,3.695,8.563,3.859c4.248,0.182,7.34-0.631,9.199-2.412c1.725-1.652,2.528-4.178,2.53-7.947
			c0.001-4.648-1.835-10.301-10.593-10.842C37.066,60.676,36.684,60.664,36.315,60.664z M24.57,68.633h0.004H24.57z"/>
		<path d="M36.072,83.203c-0.413,0-0.836-0.01-1.27-0.027c-4.424-0.189-7.967-1.822-10.244-4.721
			c-2.777-3.535-3.094-8.148-2.521-11.023l0,0c1.029-5.176,5.281-10.512,14.137-9.969c11.479,0.709,12.715,9.395,12.714,13.098
			c-0.002,4.428-1.027,7.471-3.227,9.578C43.513,82.195,40.367,83.203,36.072,83.203z M34.891,59.682
			c-8.104,0-10.136,5.668-10.638,8.191l0,0c-0.479,2.406-0.221,6.254,2.083,9.188c1.883,2.398,4.766,3.695,8.563,3.857
			c4.247,0.184,7.339-0.629,9.198-2.412c1.725-1.65,2.529-4.176,2.531-7.945c0-4.648-1.836-10.301-10.594-10.842
			C35.641,59.693,35.258,59.682,34.891,59.682z M23.145,67.652h0.004H23.145z"/>
		<path d="M95.151,23.379c-0.181,0-0.363-0.045-0.534-0.137c-0.55-0.295-0.756-0.98-0.459-1.529
			c0.071-0.133,1.779-3.273,4.109-4.744c0.528-0.332,1.226-0.174,1.559,0.354c0.332,0.527,0.175,1.225-0.354,1.559
			c-1.521,0.959-2.916,3.143-3.325,3.902C95.943,23.162,95.554,23.379,95.151,23.379z"/>
		<path d="M6.373,56.9c-0.354,0-0.703-0.166-0.923-0.477c-0.36-0.51-0.24-1.215,0.27-1.574c7.658-5.414,18.851-1.439,19.323-1.268
			c0.586,0.213,0.889,0.861,0.676,1.447s-0.86,0.889-1.447,0.676c-0.104-0.037-10.561-3.738-17.247,0.988
			C6.826,56.834,6.599,56.9,6.373,56.9z"/>
		<path d="M45.15,53.686c-0.363,0-0.719-0.174-0.938-0.496c-0.35-0.516-0.215-1.219,0.301-1.568c0.327-0.221,8.09-5.398,16.8-4.361
			c0.619,0.074,1.062,0.637,0.987,1.256s-0.635,1.059-1.256,0.988c-7.857-0.938-15.19,3.939-15.264,3.988
			C45.588,53.623,45.367,53.686,45.15,53.686z"/>
		<path d="M76.88,39.539c-0.12,0-0.243-0.02-0.364-0.061c-0.59-0.199-0.906-0.84-0.706-1.43c0.164-0.482,4.119-11.816,13.966-12.473
			c0.625-0.035,1.16,0.43,1.201,1.053c0.042,0.621-0.429,1.16-1.052,1.201c-8.332,0.555-11.94,10.84-11.976,10.945
			C77.789,39.244,77.35,39.539,76.88,39.539z"/>
		<path d="M6.371,69.813c-0.208,0-0.418-0.057-0.606-0.176c-0.525-0.336-0.681-1.035-0.346-1.561
			c4.159-6.525,11.661-5.418,11.978-5.367c0.617,0.098,1.037,0.678,0.939,1.293s-0.676,1.035-1.291,0.939
			c-0.268-0.041-6.373-0.904-9.721,4.35C7.109,69.629,6.744,69.813,6.371,69.813z"/>
		<path d="M27.617,69.211c-0.16,0-0.322-0.035-0.477-0.107c-0.563-0.264-0.809-0.932-0.547-1.496
			c0.039-0.084,4.049-8.441,14.35-4.557c0.584,0.221,0.879,0.873,0.658,1.457c-0.22,0.582-0.871,0.879-1.455,0.658
			c-8.301-3.133-11.378,3.129-11.505,3.396C28.447,68.971,28.041,69.211,27.617,69.211z"/>
	</g>
</g>
</svg>
