<?xml version="1.0" encoding="utf-8"?>
<!-- Generator: Adobe Illustrator 27.6.1, SVG Export Plug-In . SVG Version: 6.00 Build 0)  -->
<svg version="1.1" id="Ebene_1" xmlns="http://www.w3.org/2000/svg" xmlns:xlink="http://www.w3.org/1999/xlink" x="0px" y="0px"
	 viewBox="0 0 128 128" style="enable-background:new 0 0 128 128;" xml:space="preserve">
<style type="text/css">
	.st0{fill:#FFFFFF;}
	.st1{fill:#F4B46E;}
	.st2{fill:#95B950;}
</style>
<g>
	<g>
		<path class="st0" d="M73.98,60.47c-2.45-2.11-6.37-3.19-9.55-2.62c-1.32,0.23-2.58,0.68-3.72,1.28c1.62,2.41,1.91,5.19,1.9,6.84
			c0,3.48-0.74,5.98-2.29,7.78c1.83,0.63,4.05,0.9,6.44,0.7c5.91-0.51,9.53-3.84,9.67-8.92C76.49,63.15,75.13,61.47,73.98,60.47z"/>
		<path class="st1" d="M75.27,61.33c-2.45-2.11-6.37-3.19-9.55-2.62c-1.17,0.21-2.3,0.58-3.33,1.08c-0.21,0.1-0.27,0.36-0.15,0.56
			c1.42,2.32,1.67,4.91,1.67,6.48c0,3.48-0.74,5.98-2.29,7.78c1.83,0.63,4.05,0.9,6.44,0.7c5.91-0.51,9.53-3.84,9.67-8.92
			C77.78,64.01,76.42,62.32,75.27,61.33z"/>
		<path class="st0" d="M79.97,56.86c4.99-4.99,9.36-7.07,13.22-8.9c1.91-0.91,3.7-1.76,5.38-2.89c4.3-2.88,6.73-12.03,3.35-20.59
			c-0.01,0-0.02,0-0.03,0c-2.35,0-9.46,1.15-12.8,4.96c-2.12,2.43-3.24,4.53-4.23,6.39c-1.02,1.92-1.98,3.74-3.8,5.35
			c-2.44,2.16-6.23,2.31-9.9,2.46c-1.86,0.07-3.61,0.14-5.05,0.47c-2.24,0.51-3.97,1.35-5.8,2.25c-2.8,1.36-5.69,2.77-10.44,2.94
			c-1.51,0.05-3.56-0.27-5.92-0.64c-2.86-0.45-6.29-0.99-9.75-0.99c-2.86,0-5.73,0.37-8.31,1.47c-1.56,0.66-2.85,2.13-3.44,3.92
			c-0.54,1.64-0.43,3.32,0.33,4.61c0.43,0.74,0.96,1.43,1.56,2.07c-0.25,0.23-0.49,0.47-0.71,0.73c1.76-2.06,6.15-3.55,9.96-3.95
			c3.82-0.4,8.26,2.54,8.26,2.54s2.74-3.15,7.43-3.6c4.69-0.45,9.09,2.52,9.09,2.52l7.5-2.52c4.46,0.82,7.91,3.32,9.45,4.61
			C76.98,59.31,78.54,58.28,79.97,56.86z"/>
		<path d="M71.17,62.32c-0.17,0-0.34-0.04-0.5-0.14c-2.05-1.22-4.27-1.48-6.59-0.78c-0.52,0.16-1.07-0.14-1.22-0.66
			c-0.16-0.52,0.14-1.07,0.66-1.22c2.83-0.85,5.65-0.51,8.15,0.97c0.47,0.28,0.62,0.88,0.34,1.34
			C71.83,62.15,71.51,62.32,71.17,62.32z"/>
		<path class="st2" d="M80.43,58.07c4.99-4.99,9.36-7.07,13.22-8.9c1.91-0.91,3.7-1.76,5.38-2.89c4.3-2.88,7.85-12.03,4.48-20.59
			c-0.01,0-1.14,0-1.15,0c-2.35,0-9.46,1.15-12.8,4.96c-2.12,2.43-3.24,4.53-4.23,6.39c-1.02,1.92-1.98,3.74-3.8,5.35
			c-2.44,2.16-6.23,2.31-9.9,2.46c-1.86,0.07-3.61,0.14-5.05,0.47c-2.24,0.51-3.97,1.35-5.8,2.25c-2.8,1.36-5.69,2.77-10.44,2.94
			c-1.51,0.05-3.56-0.27-5.92-0.64c-2.86-0.45-6.29-0.99-9.75-0.99c-2.86,0-5.73,0.37-8.31,1.47c-1.56,0.66-2.85,2.13-3.44,3.92
			c-0.54,1.64-0.43,3.32,0.33,4.61c0.43,0.74,0.52,0.53,1.12,1.17c-0.25,0.23,3.25-3.02,7.79-3.52c3.81-0.42,9.72,2.9,9.72,2.9
			s3.05-3.51,7.74-3.97c4.69-0.45,9.9,3.1,9.9,3.1s4.59-1.92,6.54-2.03c6.11-0.36,8.22,2.54,9.75,4.75
			C77.44,60.52,79.01,59.49,80.43,58.07z"/>
		<path d="M103.7,23.65c-0.27-0.67-0.89-1.11-1.59-1.13c-2.51-0.06-10.57,1.14-14.5,5.63c-2.27,2.6-3.45,4.81-4.49,6.76
			c-1.02,1.91-1.82,3.42-3.37,4.8c-1.92,1.7-5.35,1.83-8.68,1.97c-1.95,0.08-3.79,0.15-5.41,0.52c-2.46,0.56-4.37,1.49-6.22,2.4
			c-2.73,1.33-5.31,2.59-9.65,2.75c-1.32,0.05-3.28-0.26-5.55-0.62c-5.45-0.86-12.91-2.04-19.13,0.61
			c-2.07,0.88-3.77,2.79-4.54,5.11c-0.72,2.17-0.54,4.44,0.49,6.22c0.54,0.92,1.2,1.78,1.97,2.57c0.37-0.54,0.8-1.03,1.29-1.48
			c-0.6-0.64-1.13-1.33-1.56-2.07c-0.75-1.29-0.87-2.98-0.33-4.61c0.6-1.79,1.88-3.26,3.44-3.92c2.58-1.1,5.45-1.47,8.31-1.47
			c3.46,0,6.89,0.54,9.75,0.99c2.37,0.37,4.41,0.7,5.92,0.64c4.75-0.17,7.64-1.58,10.44-2.94c1.83-0.89,3.56-1.73,5.8-2.25
			c1.44-0.33,3.19-0.4,5.05-0.47c3.67-0.15,7.46-0.3,9.9-2.46c1.82-1.61,2.78-3.42,3.8-5.35c0.99-1.86,2.1-3.96,4.23-6.39
			c3.34-3.81,10.45-4.96,12.8-4.96c0.01,0,0.02,0,0.03,0c3.37,8.56,0.95,17.71-3.35,20.59c-1.68,1.12-3.48,1.98-5.38,2.89
			c-3.86,1.84-8.22,3.92-13.22,8.9c-1.47,1.47-3.1,2.53-4.81,3.28c0.43,0.51,0.8,1.06,1.08,1.66c1.8-0.83,3.53-1.98,5.11-3.55
			c4.75-4.75,8.96-6.75,12.67-8.52c1.97-0.94,3.83-1.83,5.63-3.03C104.71,43.32,107.54,33.25,103.7,23.65z"/>
		<path d="M75.26,58.99c-2.91-2.51-7.4-3.74-11.18-3.07c-2.11,0.37-4.05,1.18-5.7,2.31c0.29,0.21,0.55,0.43,0.8,0.66
			c0.25,0.23,0.48,0.47,0.69,0.72c1.34-0.85,2.9-1.46,4.55-1.76c3.18-0.56,7.1,0.52,9.55,2.62c1.15,1,2.52,2.68,2.45,5.05
			c-0.14,5.08-3.76,8.41-9.67,8.92c-2.47,0.21-4.76-0.08-6.63-0.76c-0.46,0.54-1.01,1.03-1.68,1.44c1.87,0.87,4.17,1.35,6.7,1.35
			c0.58,0,1.17-0.03,1.78-0.08c6.9-0.59,11.29-4.74,11.46-10.82C78.46,63.09,77.38,60.81,75.26,58.99z"/>
		<path class="st0" d="M32.78,57.42c-0.14,0-0.28,0-0.42,0.01c-2.82,0.1-8.67,2.21-9.43,6.6c-0.47,2.73,0.1,5.22,1.62,7.01
			c1.65,1.95,4.34,2.98,7.78,2.98c0.03,0,0.06,0,0.09,0c3.63-0.02,6.58-1.09,8.56-3.09c-0.46-1.17-1.01-3.18-0.73-5.62
			c0.46-3.91,1.36-5.35,1.2-5.07C39.12,58.15,35.23,57.42,32.78,57.42z"/>
		<path class="st0" d="M50.46,56.52c-7.04,0-8.8,4.92-9.24,7.11l0,0c-0.42,2.09-0.19,5.43,1.81,7.98c1.64,2.08,4.14,3.21,7.44,3.35
			c3.69,0.16,6.37-0.55,7.99-2.09c1.5-1.43,2.2-3.63,2.2-6.9c0-4.04-1.59-8.95-9.2-9.41C51.11,56.53,50.78,56.52,50.46,56.52z
			 M40.26,63.44L40.26,63.44L40.26,63.44z"/>
		<path class="st1" d="M33.86,58.3c-0.14,0-0.28,0-0.42,0.01c-2.82,0.1-8.67,2.21-9.43,6.6c-0.47,2.73,0.1,5.22,1.62,7.01
			c1.65,1.95,4.34,2.98,7.78,2.98c0.03,0,0.06,0,0.09,0c3.63-0.02,6.58-1.09,8.56-3.09c-0.46-1.17-1.79-3.26-1.8-5.72
			c0-3.79,1.39-5.69,1.23-5.41C39.16,58.59,36.3,58.3,33.86,58.3z"/>
		<path d="M41.26,70.64c-0.04,0.04-0.07,0.08-0.11,0.12c-1.98,2.11-5,3.23-8.73,3.25c-0.03,0-0.06,0-0.09,0
			c-3.44,0-6.13-1.03-7.78-2.98c-1.52-1.79-2.09-4.28-1.62-7.01c0.76-4.39,6.62-6.5,9.43-6.6c0.13-0.01,0.27-0.01,0.42-0.01
			c2.45,0,6.34,0.73,8.68,2.83c0.31-0.54,0.69-1.07,1.13-1.57c-2.74-2.34-6.98-3.33-10.3-3.21c-3.46,0.13-10.34,2.67-11.3,8.23
			c-0.57,3.31,0.16,6.37,2.06,8.61c1.42,1.68,4.19,3.68,9.28,3.68c0.03,0,0.07,0,0.1,0c4.15-0.02,7.57-1.28,9.93-3.65
			C41.93,71.8,41.56,71.23,41.26,70.64z"/>
		<path class="st1" d="M51.7,57.37c-7.04,0-8.8,4.92-9.24,7.11l0,0c-0.42,2.09-0.19,5.43,1.81,7.98c1.64,2.08,4.14,3.21,7.44,3.35
			c3.69,0.16,6.37-0.55,7.99-2.09c1.5-1.43,2.2-3.63,2.2-6.9c0-4.04-1.59-8.95-9.2-9.41C52.35,57.38,52.02,57.37,51.7,57.37z
			 M41.5,64.29L41.5,64.29L41.5,64.29z"/>
		<path d="M51.49,76.95c-0.36,0-0.72-0.01-1.1-0.02c-3.84-0.16-6.92-1.58-8.9-4.1c-2.41-3.07-2.69-7.08-2.19-9.57l0,0
			c0.89-4.5,4.59-9.13,12.28-8.66c9.97,0.61,11.04,8.16,11.04,11.37c0,3.84-0.89,6.49-2.8,8.32C57.95,76.07,55.22,76.95,51.49,76.95
			z M50.46,56.52c-7.04,0-8.8,4.92-9.24,7.11l0,0c-0.42,2.09-0.19,5.43,1.81,7.98c1.64,2.08,4.14,3.21,7.44,3.35
			c3.69,0.16,6.37-0.55,7.99-2.09c1.5-1.43,2.2-3.63,2.2-6.9c0-4.04-1.59-8.95-9.2-9.41C51.11,56.53,50.78,56.52,50.46,56.52z
			 M40.26,63.44L40.26,63.44L40.26,63.44z"/>
		<path d="M102.79,24.99c-0.16,0-0.32-0.04-0.46-0.12c-0.48-0.26-0.66-0.85-0.4-1.33c0.06-0.12,1.55-2.84,3.57-4.12
			c0.46-0.29,1.06-0.15,1.35,0.31c0.29,0.46,0.15,1.06-0.31,1.35c-1.32,0.83-2.53,2.73-2.89,3.39
			C103.48,24.81,103.14,24.99,102.79,24.99z"/>
		<path d="M25.7,54.11c-0.31,0-0.61-0.14-0.8-0.41c-0.31-0.44-0.21-1.05,0.23-1.37c6.65-4.7,16.37-1.25,16.78-1.1
			c0.51,0.19,0.77,0.75,0.59,1.26c-0.18,0.51-0.75,0.77-1.26,0.59c-0.09-0.03-9.17-3.25-14.98,0.86
			C26.09,54.05,25.89,54.11,25.7,54.11z"/>
		<path d="M59.37,51.31c-0.31,0-0.62-0.15-0.81-0.43c-0.3-0.45-0.19-1.06,0.26-1.36c0.28-0.19,7.02-4.69,14.59-3.79
			c0.54,0.06,0.92,0.55,0.86,1.09c-0.06,0.54-0.55,0.92-1.09,0.86c-6.82-0.81-13.19,3.42-13.26,3.46
			C59.75,51.26,59.56,51.31,59.37,51.31z"/>
		<path d="M86.92,39.03c-0.1,0-0.21-0.02-0.32-0.05c-0.51-0.17-0.79-0.73-0.61-1.24c0.14-0.42,3.58-10.26,12.13-10.83
			c0.54-0.03,1.01,0.37,1.04,0.91c0.04,0.54-0.37,1.01-0.91,1.04c-7.24,0.48-10.37,9.41-10.4,9.5
			C87.71,38.77,87.33,39.03,86.92,39.03z"/>
		<path d="M25.69,65.32c-0.18,0-0.36-0.05-0.53-0.15c-0.46-0.29-0.59-0.9-0.3-1.35c3.61-5.67,10.13-4.7,10.4-4.66
			c0.54,0.09,0.9,0.59,0.82,1.12c-0.08,0.53-0.59,0.9-1.12,0.82c-0.23-0.03-5.53-0.78-8.44,3.78
			C26.34,65.16,26.02,65.32,25.69,65.32z"/>
		<path d="M44.14,64.8c-0.14,0-0.28-0.03-0.41-0.09c-0.49-0.23-0.7-0.81-0.47-1.3c0.03-0.07,3.52-7.33,12.46-3.96
			c0.51,0.19,0.76,0.76,0.57,1.26c-0.19,0.51-0.76,0.76-1.26,0.57c-7.21-2.72-9.88,2.72-9.99,2.95
			C44.87,64.59,44.51,64.8,44.14,64.8z"/>
	</g>
	<g>
		<path d="M55.15,99.26l0.9-0.08c0.04,0.36,0.14,0.66,0.3,0.89c0.16,0.23,0.4,0.42,0.73,0.56c0.33,0.14,0.7,0.21,1.11,0.21
			c0.36,0,0.69-0.05,0.97-0.16c0.28-0.11,0.49-0.26,0.62-0.45c0.14-0.19,0.2-0.4,0.2-0.62c0-0.23-0.07-0.43-0.2-0.59
			c-0.13-0.17-0.35-0.31-0.65-0.43c-0.19-0.08-0.62-0.19-1.29-0.35c-0.66-0.16-1.13-0.31-1.4-0.45c-0.35-0.18-0.6-0.41-0.77-0.67
			c-0.17-0.27-0.25-0.57-0.25-0.9c0-0.37,0.1-0.71,0.31-1.02c0.21-0.32,0.51-0.56,0.91-0.72c0.4-0.16,0.84-0.25,1.33-0.25
			c0.54,0,1.01,0.09,1.42,0.26c0.41,0.17,0.72,0.43,0.94,0.76c0.22,0.34,0.34,0.72,0.36,1.14l-0.92,0.07
			c-0.05-0.46-0.22-0.8-0.5-1.04c-0.28-0.23-0.7-0.35-1.26-0.35c-0.58,0-1,0.11-1.27,0.32c-0.26,0.21-0.4,0.47-0.4,0.77
			c0,0.26,0.09,0.47,0.28,0.64c0.18,0.17,0.67,0.34,1.44,0.52c0.78,0.18,1.31,0.33,1.6,0.46c0.42,0.19,0.73,0.44,0.93,0.74
			c0.2,0.3,0.3,0.64,0.3,1.03c0,0.38-0.11,0.75-0.33,1.09c-0.22,0.34-0.54,0.61-0.95,0.79c-0.41,0.19-0.88,0.28-1.39,0.28
			c-0.65,0-1.2-0.1-1.65-0.29c-0.44-0.19-0.79-0.48-1.04-0.86C55.29,100.17,55.16,99.74,55.15,99.26z"/>
		<path d="M61.77,98.96c0-0.97,0.27-1.69,0.81-2.16c0.45-0.39,1-0.58,1.65-0.58c0.72,0,1.31,0.24,1.77,0.71
			c0.46,0.47,0.69,1.12,0.69,1.96c0,0.67-0.1,1.2-0.3,1.59c-0.2,0.39-0.5,0.69-0.88,0.9c-0.39,0.21-0.81,0.32-1.27,0.32
			c-0.73,0-1.33-0.24-1.78-0.71C61.99,100.52,61.77,99.84,61.77,98.96z M62.68,98.96c0,0.67,0.15,1.17,0.44,1.51
			c0.29,0.33,0.66,0.5,1.11,0.5c0.44,0,0.81-0.17,1.1-0.5c0.29-0.34,0.44-0.85,0.44-1.53c0-0.65-0.15-1.14-0.44-1.47
			c-0.29-0.33-0.66-0.5-1.1-0.5c-0.44,0-0.81,0.17-1.11,0.5C62.83,97.79,62.68,98.29,62.68,98.96z"/>
		<path d="M67.68,103.6l-0.1-0.83c0.19,0.05,0.36,0.08,0.51,0.08c0.2,0,0.36-0.03,0.47-0.1c0.12-0.07,0.22-0.16,0.29-0.28
			c0.06-0.09,0.15-0.31,0.27-0.66c0.02-0.05,0.04-0.12,0.08-0.22l-1.99-5.25h0.96l1.09,3.03c0.14,0.38,0.27,0.79,0.38,1.21
			c0.1-0.41,0.22-0.81,0.37-1.19l1.12-3.05h0.89l-1.99,5.33c-0.21,0.58-0.38,0.97-0.5,1.19c-0.16,0.29-0.34,0.51-0.54,0.64
			c-0.2,0.14-0.45,0.2-0.73,0.2C68.08,103.71,67.89,103.67,67.68,103.6z"/>
	</g>
</g>
</svg>
