<?xml version="1.0" encoding="utf-8"?>
<!-- Generator: Adobe Illustrator 16.0.0, SVG Export Plug-In . SVG Version: 6.00 Build 0)  -->
<!DOCTYPE svg PUBLIC "-//W3C//DTD SVG 1.1//EN" "http://www.w3.org/Graphics/SVG/1.1/DTD/svg11.dtd">
<svg version="1.1" id="Layer_1" xmlns="http://www.w3.org/2000/svg" xmlns:xlink="http://www.w3.org/1999/xlink" x="0px" y="0px"
	 width="100px" height="100px" viewBox="0 0 100 100" enable-background="new 0 0 100 100" xml:space="preserve">
<g>
	<path fill="#FFFFFF" d="M36.767,2.484C35.24,2.484,34,3.727,34,5.252v0.656c0,1.525,1.24,2.768,2.767,2.768h26.467
		c1.526,0,2.768-1.242,2.768-2.768V5.252c0-1.525-1.241-2.768-2.768-2.768H36.767z"/>
	<path fill="#FFFFFF" d="M40.079,11.16v22.054c0,0.188-0.042,0.374-0.125,0.544l-22.002,45.18
		c-1.935,3.973-1.691,8.582,0.651,12.328c2.343,3.748,6.38,5.984,10.799,5.984h41.195c4.419,0,8.455-2.236,10.799-5.984
		c2.343-3.746,2.586-8.355,0.651-12.328l-22.002-45.18c-0.083-0.17-0.125-0.355-0.125-0.544V11.16H40.079z"/>
	<path fill="#E3FBFF" d="M41.907,10.242V34.65c0,0.189-0.042,0.375-0.125,0.545L19.78,80.375c-1.935,3.973-1.691,8.581,0.651,12.328
		c2.343,3.746,6.379,5.984,10.799,5.984h41.194c4.42,0,8.456-2.238,10.799-5.984c2.344-3.746,2.587-8.355,0.652-12.328
		l-22.002-45.18c-0.083-0.17-0.126-0.355-0.126-0.545V10.242H41.907z"/>
	<path fill="#69B0B7" d="M29.402,99.734c-0.239,0-0.477-0.012-0.713-0.021c0.042,0.002,0.084,0.008,0.127,0.01
		c6.389,0.43,15.001,0.301,22.753,0.012H29.402z"/>
	<path fill="#FFFFFF" d="M82.048,78.938L69.908,54.01c-8.439,0.041-13.146,1.286-17.707,2.492c-4.186,1.105-8.21,2.17-14.641,2.17
		c-2.668,0-5.756-0.188-9.435-0.625L17.952,78.938c-1.935,3.973-1.691,8.582,0.651,12.328c2.343,3.748,6.38,5.984,10.799,5.984
		h41.195c4.419,0,8.455-2.236,10.799-5.984C83.739,87.52,83.982,82.91,82.048,78.938z"/>
	<rect x="39.247" y="9.244" fill="#FFFFFF" width="21.505" height="3.832"/>
	<path fill="#69B0B7" d="M83.926,80.025L70.684,53.286c-8.438,0.041-13.683,0.605-18.244,1.812
		c-4.185,1.105-6.407,2.654-12.838,2.654c-2.667,0-4.408-0.215-8.087-0.654L19.83,80.025c-1.936,3.973-1.691,8.582,0.651,12.328
		c2.343,3.747,6.379,5.984,10.798,5.984h41.195c4.42,0,7.683-2.936,10.025-6.682C84.844,87.908,85.86,83.998,83.926,80.025z"/>
	<path fill="#E3FBFF" d="M38.444,4.052c-1.525,0-2.767,1.241-2.767,2.768v0.656c0,1.526,1.241,2.767,2.767,2.767h26.467
		c1.526,0,2.768-1.24,2.768-2.767V6.819c0-1.526-1.241-2.768-2.768-2.768H38.444z"/>
	<path d="M70.598,99.734H29.402c-5.281,0-10.105-2.673-12.905-7.15c-2.8-4.479-3.091-9.986-0.779-14.734l21.877-44.922V9.918
		c0-0.687,0.557-1.242,1.242-1.242h22.326c0.687,0,1.242,0.556,1.242,1.242v23.01L84.282,77.85l0,0
		c2.312,4.748,2.021,10.256-0.779,14.734C80.703,97.062,75.879,99.734,70.598,99.734z M40.079,11.16v22.054
		c0,0.188-0.042,0.374-0.125,0.544l-22.002,45.18c-1.935,3.973-1.691,8.582,0.651,12.328c2.343,3.748,6.38,5.984,10.799,5.984
		h41.195c4.419,0,8.455-2.236,10.799-5.984c2.343-3.746,2.586-8.355,0.651-12.328l-22.002-45.18
		c-0.083-0.17-0.125-0.355-0.125-0.544V11.16H40.079z"/>
	<path d="M38.254,51.113c-0.184,0-0.37-0.041-0.547-0.127c-0.616-0.303-0.87-1.047-0.568-1.663L42.544,38.3
		c0.302-0.616,1.045-0.871,1.662-0.568c0.616,0.302,0.871,1.046,0.569,1.662L39.37,50.418
		C39.154,50.857,38.713,51.113,38.254,51.113z"/>
	<path d="M63.233,11.16H36.767c-2.896,0-5.252-2.356-5.252-5.252V5.252C31.515,2.355,33.871,0,36.767,0h26.467
		c2.896,0,5.252,2.355,5.252,5.252v0.656C68.485,8.804,66.129,11.16,63.233,11.16z M36.767,2.484C35.24,2.484,34,3.727,34,5.252
		v0.656c0,1.525,1.24,2.768,2.767,2.768h26.467c1.526,0,2.768-1.242,2.768-2.768V5.252c0-1.525-1.241-2.768-2.768-2.768H36.767z"/>
	<path d="M37.561,58.672c-2.881,0-6.243-0.214-10.32-0.732c-0.682-0.087-1.163-0.709-1.076-1.389
		c0.087-0.682,0.708-1.162,1.389-1.076c12.699,1.615,17.942,0.229,24.013-1.375c4.854-1.283,9.859-2.619,19.124-2.576
		c0.687,0.004,1.24,0.563,1.237,1.248c-0.002,0.685-0.558,1.238-1.242,1.238c-0.001,0-0.003,0-0.005,0
		c-8.928-0.035-13.781,1.25-18.479,2.492C48.016,57.607,43.991,58.672,37.561,58.672z"/>
	<path fill="#FFFFFF" d="M70.684,84.947c-1.164,0-2.111,0.947-2.111,2.111c0,1.165,0.947,2.112,2.111,2.112
		c1.165,0,2.112-0.947,2.112-2.112C72.796,85.895,71.849,84.947,70.684,84.947z"/>
	<path fill="#93D5D8" d="M71.517,85.633c-1.164,0-2.111,0.947-2.111,2.112c0,1.164,0.947,2.111,2.111,2.111
		c1.165,0,2.112-0.947,2.112-2.111C73.629,86.58,72.682,85.633,71.517,85.633z"/>
	<path d="M70.684,91.656c-2.534,0-4.596-2.063-4.596-4.598c0-2.533,2.062-4.596,4.596-4.596c2.535,0,4.597,2.063,4.597,4.596
		C75.28,89.594,73.219,91.656,70.684,91.656z M70.684,84.947c-1.164,0-2.111,0.947-2.111,2.111c0,1.165,0.947,2.112,2.111,2.112
		c1.165,0,2.112-0.947,2.112-2.112C72.796,85.895,71.849,84.947,70.684,84.947z"/>
	<path fill="#FFFFFF" d="M35.044,64.7c-1.144,0-2.073,0.931-2.073,2.073s0.93,2.072,2.073,2.072s2.073-0.93,2.073-2.072
		S36.188,64.7,35.044,64.7z"/>
	<path fill="#93D5D8" d="M35.968,65.387c-1.144,0-2.073,0.93-2.073,2.072s0.93,2.072,2.073,2.072s2.073-0.93,2.073-2.072
		S37.111,65.387,35.968,65.387z"/>
	<path d="M35.044,71.331c-2.514,0-4.558-2.045-4.558-4.558c0-2.514,2.044-4.559,4.558-4.559c2.513,0,4.558,2.045,4.558,4.559
		C39.602,69.286,37.557,71.331,35.044,71.331z M35.044,64.7c-1.144,0-2.073,0.931-2.073,2.073s0.93,2.072,2.073,2.072
		s2.073-0.93,2.073-2.072S36.188,64.7,35.044,64.7z"/>
	<path fill="#FFFFFF" d="M31.855,84.707c-1.125,0-2.04,0.914-2.04,2.039s0.915,2.041,2.04,2.041s2.039-0.916,2.039-2.041
		S32.98,84.707,31.855,84.707z"/>
	<path fill="#93D5D8" d="M32.971,85.344c-1.124,0-2.04,0.914-2.04,2.039s0.916,2.041,2.04,2.041c1.125,0,2.04-0.916,2.04-2.041
		S34.096,85.344,32.971,85.344z"/>
	<path fill="#FFFFFF" d="M53.026,72.745c-2.023-0.335-3.757,1.397-3.423,3.423c0.202,1.226,1.191,2.215,2.417,2.418
		c2.024,0.336,3.76-1.398,3.425-3.423C55.242,73.938,54.253,72.947,53.026,72.745z"/>
	<path d="M31.855,91.271c-2.495,0-4.525-2.029-4.525-4.525c0-2.494,2.03-4.523,4.525-4.523s4.524,2.029,4.524,4.523
		C36.38,89.242,34.351,91.271,31.855,91.271z M31.855,84.707c-1.125,0-2.04,0.914-2.04,2.039s0.915,2.041,2.04,2.041
		s2.039-0.916,2.039-2.041S32.98,84.707,31.855,84.707z"/>
	<path fill="#93D5D8" d="M53.553,73.291c-1.633,0-2.962,1.328-2.962,2.963c0,1.633,1.329,2.962,2.962,2.962
		c1.634,0,2.963-1.329,2.963-2.962C56.516,74.619,55.187,73.291,53.553,73.291z"/>
	<path fill="#FFFFFF" d="M65.823,61.661c-1.216,0-2.204,0.989-2.204,2.204s0.988,2.204,2.204,2.204c1.215,0,2.204-0.989,2.204-2.204
		S67.038,61.661,65.823,61.661z"/>
	<path fill="#93D5D8" d="M66.705,62.215c-1.215,0-2.204,0.989-2.204,2.205c0,1.215,0.989,2.204,2.204,2.204s2.204-0.989,2.204-2.204
		C68.909,63.204,67.92,62.215,66.705,62.215z"/>
	<path d="M52.524,81.113c-3.004,0-5.447-2.443-5.447-5.447s2.443-5.447,5.447-5.447c3.003,0,5.447,2.443,5.447,5.447
		S55.527,81.113,52.524,81.113z M52.524,72.703c-1.634,0-2.962,1.329-2.962,2.963c0,1.633,1.328,2.962,2.962,2.962
		c1.633,0,2.963-1.329,2.963-2.962C55.487,74.032,54.157,72.703,52.524,72.703z"/>
	<path d="M65.823,68.555c-2.586,0-4.689-2.104-4.689-4.689s2.104-4.689,4.689-4.689c2.585,0,4.688,2.104,4.688,4.689
		S68.408,68.555,65.823,68.555z M65.823,61.661c-1.216,0-2.204,0.989-2.204,2.204s0.988,2.204,2.204,2.204
		c1.215,0,2.204-0.989,2.204-2.204S67.038,61.661,65.823,61.661z"/>
</g>
</svg>
