<?xml version="1.0" encoding="utf-8"?>
<!-- Generator: Adobe Illustrator 27.6.1, SVG Export Plug-In . SVG Version: 6.00 Build 0)  -->
<svg version="1.1" id="Ebene_1" xmlns="http://www.w3.org/2000/svg" xmlns:xlink="http://www.w3.org/1999/xlink" x="0px" y="0px"
	 viewBox="0 0 128 128" style="enable-background:new 0 0 128 128;" xml:space="preserve">
<style type="text/css">
	.st0{fill:#FFFFFF;}
	.st1{fill:#E3FBFF;}
	.st2{fill:#69B0B7;}
	.st3{fill:#93D5D8;}
</style>
<g>
	<path d="M46.88,111.95l0.88-0.08c0.04,0.35,0.14,0.64,0.29,0.87c0.15,0.23,0.39,0.41,0.71,0.55c0.32,0.14,0.68,0.21,1.09,0.21
		c0.36,0,0.67-0.05,0.95-0.16c0.27-0.11,0.48-0.25,0.61-0.44c0.13-0.18,0.2-0.39,0.2-0.61c0-0.22-0.06-0.42-0.19-0.58
		c-0.13-0.17-0.34-0.3-0.64-0.42c-0.19-0.07-0.61-0.19-1.26-0.35c-0.65-0.16-1.1-0.3-1.37-0.44c-0.34-0.18-0.59-0.4-0.76-0.66
		c-0.17-0.26-0.25-0.56-0.25-0.88c0-0.36,0.1-0.69,0.3-1c0.2-0.31,0.5-0.55,0.89-0.71c0.39-0.16,0.82-0.24,1.3-0.24
		c0.52,0,0.99,0.08,1.39,0.25c0.4,0.17,0.71,0.42,0.92,0.75c0.22,0.33,0.33,0.7,0.35,1.11l-0.9,0.07c-0.05-0.45-0.21-0.79-0.49-1.01
		c-0.28-0.23-0.69-0.34-1.23-0.34c-0.57,0-0.98,0.1-1.24,0.31c-0.26,0.21-0.39,0.46-0.39,0.75c0,0.25,0.09,0.46,0.28,0.63
		c0.18,0.16,0.65,0.33,1.41,0.5c0.76,0.17,1.28,0.32,1.57,0.45c0.41,0.19,0.72,0.43,0.91,0.72c0.2,0.29,0.29,0.63,0.29,1.01
		c0,0.38-0.11,0.73-0.32,1.06c-0.22,0.33-0.53,0.59-0.93,0.78c-0.4,0.18-0.86,0.28-1.36,0.28c-0.64,0-1.18-0.09-1.61-0.28
		c-0.43-0.19-0.77-0.47-1.02-0.84C47.02,112.85,46.89,112.42,46.88,111.95z"/>
	<path d="M57.04,114.22v-0.75c-0.4,0.58-0.94,0.87-1.63,0.87c-0.3,0-0.58-0.06-0.85-0.17c-0.26-0.12-0.46-0.26-0.58-0.44
		c-0.13-0.18-0.22-0.39-0.27-0.64c-0.04-0.17-0.05-0.44-0.05-0.81v-3.18h0.87v2.84c0,0.45,0.02,0.76,0.05,0.92
		c0.05,0.23,0.17,0.41,0.35,0.54c0.18,0.13,0.4,0.2,0.66,0.2c0.26,0,0.5-0.07,0.73-0.2c0.23-0.13,0.39-0.32,0.49-0.55
		c0.09-0.23,0.14-0.56,0.14-1v-2.75h0.87v5.12H57.04z"/>
	<path d="M59.16,114.22v-7.07h0.87v7.07H59.16z"/>
	<path d="M61.58,114.22v-4.45h-0.77v-0.68h0.77v-0.55c0-0.34,0.03-0.6,0.09-0.77c0.08-0.23,0.23-0.41,0.44-0.55
		c0.21-0.14,0.51-0.21,0.89-0.21c0.24,0,0.51,0.03,0.81,0.09l-0.13,0.76c-0.18-0.03-0.35-0.05-0.51-0.05
		c-0.26,0-0.45,0.06-0.56,0.17c-0.11,0.11-0.16,0.32-0.16,0.63v0.47h1v0.68h-1v4.45H61.58z"/>
	<path d="M64.12,108.15v-1h0.87v1H64.12z M64.12,114.22v-5.12h0.87v5.12H64.12z"/>
	<path d="M68.21,113.45l0.13,0.77c-0.24,0.05-0.46,0.08-0.66,0.08c-0.32,0-0.56-0.05-0.73-0.15c-0.17-0.1-0.3-0.23-0.37-0.39
		c-0.07-0.16-0.11-0.5-0.11-1.03v-2.95h-0.64v-0.68h0.64v-1.27l0.86-0.52v1.79h0.87v0.68h-0.87v3c0,0.25,0.01,0.41,0.05,0.48
		c0.03,0.07,0.08,0.13,0.15,0.17c0.07,0.04,0.17,0.06,0.3,0.06C67.93,113.48,68.05,113.47,68.21,113.45z"/>
	<path d="M72.57,112.57l0.9,0.11c-0.14,0.52-0.4,0.93-0.79,1.22c-0.38,0.29-0.87,0.43-1.47,0.43c-0.75,0-1.34-0.23-1.78-0.69
		c-0.44-0.46-0.66-1.11-0.66-1.94c0-0.86,0.22-1.53,0.67-2.01c0.44-0.48,1.02-0.71,1.73-0.71c0.69,0,1.24,0.23,1.68,0.7
		c0.43,0.47,0.65,1.12,0.65,1.97c0,0.05,0,0.13,0,0.23h-3.82c0.03,0.56,0.19,0.99,0.48,1.29c0.29,0.3,0.64,0.45,1.07,0.45
		c0.32,0,0.59-0.08,0.82-0.25C72.26,113.21,72.44,112.94,72.57,112.57z M69.72,111.17h2.86c-0.04-0.43-0.15-0.75-0.33-0.97
		c-0.28-0.33-0.64-0.5-1.08-0.5c-0.4,0-0.73,0.13-1.01,0.4S69.74,110.72,69.72,111.17z"/>
	<path d="M74.21,112.69l0.86-0.14c0.05,0.34,0.18,0.61,0.4,0.79c0.22,0.18,0.53,0.28,0.92,0.28c0.4,0,0.69-0.08,0.89-0.24
		c0.19-0.16,0.29-0.35,0.29-0.57c0-0.2-0.09-0.35-0.26-0.46c-0.12-0.08-0.42-0.18-0.89-0.29c-0.64-0.16-1.08-0.3-1.32-0.42
		c-0.25-0.12-0.43-0.28-0.56-0.49c-0.13-0.21-0.19-0.44-0.19-0.69c0-0.23,0.05-0.44,0.16-0.63c0.1-0.19,0.25-0.36,0.43-0.48
		c0.14-0.1,0.32-0.18,0.55-0.25c0.23-0.07,0.48-0.1,0.75-0.1c0.4,0,0.75,0.06,1.06,0.17c0.3,0.12,0.53,0.27,0.67,0.47
		c0.14,0.2,0.24,0.46,0.3,0.79l-0.85,0.12c-0.04-0.26-0.15-0.47-0.34-0.62c-0.19-0.15-0.45-0.22-0.78-0.22
		c-0.4,0-0.68,0.07-0.85,0.2c-0.17,0.13-0.26,0.29-0.26,0.46c0,0.11,0.04,0.21,0.11,0.3c0.07,0.09,0.18,0.17,0.33,0.23
		c0.09,0.03,0.34,0.11,0.77,0.22c0.61,0.16,1.04,0.3,1.29,0.4c0.24,0.1,0.43,0.26,0.57,0.46c0.14,0.2,0.21,0.45,0.21,0.74
		c0,0.29-0.08,0.56-0.25,0.82c-0.17,0.26-0.41,0.45-0.73,0.59c-0.32,0.14-0.68,0.21-1.08,0.21c-0.67,0-1.17-0.14-1.52-0.41
		C74.53,113.65,74.31,113.24,74.21,112.69z"/>
</g>
<g>
	<path class="st0" d="M52.45,15.46c-1.18,0-2.14,0.96-2.14,2.14v0.51c0,1.18,0.96,2.14,2.14,2.14h20.44c1.18,0,2.14-0.96,2.14-2.14
		v-0.51c0-1.18-0.96-2.14-2.14-2.14H52.45z"/>
	<path class="st0" d="M55.01,22.16v17.03c0,0.15-0.03,0.29-0.1,0.42L37.92,74.5c-1.49,3.07-1.31,6.63,0.5,9.52
		c1.81,2.89,4.93,4.62,8.34,4.62h31.82c3.41,0,6.53-1.73,8.34-4.62c1.81-2.89,2-6.45,0.5-9.52L70.43,39.61
		c-0.06-0.13-0.1-0.27-0.1-0.42V22.16H55.01z"/>
	<path class="st1" d="M56.42,21.45V40.3c0,0.15-0.03,0.29-0.1,0.42L39.33,75.61c-1.49,3.07-1.31,6.63,0.5,9.52
		c1.81,2.89,4.93,4.62,8.34,4.62h31.82c3.41,0,6.53-1.73,8.34-4.62c1.81-2.89,2-6.45,0.5-9.52L71.84,40.72
		c-0.06-0.13-0.1-0.27-0.1-0.42V21.45H56.42z"/>
	<path class="st2" d="M46.76,90.57c-0.18,0-0.37-0.01-0.55-0.02c0.03,0,0.06,0.01,0.1,0.01c4.93,0.33,11.59,0.23,17.57,0.01H46.76z"
		/>
	<path class="st0" d="M87.42,74.5l-9.38-19.25c-6.52,0.03-10.15,0.99-13.68,1.92c-3.23,0.85-6.34,1.68-11.31,1.68
		c-2.06,0-4.45-0.14-7.29-0.48L37.92,74.5c-1.49,3.07-1.31,6.63,0.5,9.52c1.81,2.89,4.93,4.62,8.34,4.62h31.82
		c3.41,0,6.53-1.73,8.34-4.62C88.73,81.13,88.92,77.57,87.42,74.5z"/>
	<rect x="54.37" y="20.68" class="st0" width="16.61" height="2.96"/>
	<path class="st2" d="M88.87,75.34L78.65,54.69c-6.52,0.03-10.57,0.47-14.09,1.4c-3.23,0.85-4.95,2.05-9.92,2.05
		c-2.06,0-3.4-0.17-6.25-0.5l-9.02,17.71c-1.49,3.07-1.31,6.63,0.5,9.52c1.81,2.89,4.93,4.62,8.34,4.62h31.82
		c3.41,0,5.93-2.27,7.74-5.16C89.58,81.43,90.37,78.41,88.87,75.34z"/>
	<path class="st1" d="M53.75,16.67c-1.18,0-2.14,0.96-2.14,2.14v0.51c0,1.18,0.96,2.14,2.14,2.14h20.44c1.18,0,2.14-0.96,2.14-2.14
		V18.8c0-1.18-0.96-2.14-2.14-2.14H53.75z"/>
	<path d="M78.58,90.57H46.76c-4.08,0-7.8-2.06-9.97-5.52c-2.16-3.46-2.39-7.71-0.6-11.38l16.9-34.69V21.2
		c0-0.53,0.43-0.96,0.96-0.96h17.24c0.53,0,0.96,0.43,0.96,0.96v17.77l16.9,34.69l0,0c1.79,3.67,1.56,7.92-0.6,11.38
		C86.39,88.5,82.66,90.57,78.58,90.57z M55.01,22.16v17.03c0,0.15-0.03,0.29-0.1,0.42L37.92,74.5c-1.49,3.07-1.31,6.63,0.5,9.52
		c1.81,2.89,4.93,4.62,8.34,4.62h31.82c3.41,0,6.53-1.73,8.34-4.62c1.81-2.89,2-6.45,0.5-9.52L70.43,39.61
		c-0.06-0.13-0.1-0.27-0.1-0.42V22.16H55.01z"/>
	<path d="M53.6,53.01c-0.14,0-0.29-0.03-0.42-0.1c-0.48-0.23-0.67-0.81-0.44-1.28l4.17-8.51c0.23-0.48,0.81-0.67,1.28-0.44
		c0.48,0.23,0.67,0.81,0.44,1.28l-4.17,8.51C54.3,52.82,53.96,53.01,53.6,53.01z"/>
	<path d="M72.89,22.16H52.45c-2.24,0-4.06-1.82-4.06-4.06v-0.51c0-2.24,1.82-4.06,4.06-4.06h20.44c2.24,0,4.06,1.82,4.06,4.06v0.51
		C76.95,20.34,75.13,22.16,72.89,22.16z M52.45,15.46c-1.18,0-2.14,0.96-2.14,2.14v0.51c0,1.18,0.96,2.14,2.14,2.14h20.44
		c1.18,0,2.14-0.96,2.14-2.14v-0.51c0-1.18-0.96-2.14-2.14-2.14H52.45z"/>
	<path d="M53.07,58.85c-2.22,0-4.82-0.16-7.97-0.57c-0.53-0.07-0.9-0.55-0.83-1.07c0.07-0.53,0.55-0.9,1.07-0.83
		c9.81,1.25,13.86,0.18,18.55-1.06c3.75-0.99,7.61-2.02,14.77-1.99c0.53,0,0.96,0.43,0.96,0.96c0,0.53-0.43,0.96-0.96,0.96
		c0,0,0,0,0,0c-6.9-0.03-10.64,0.97-14.27,1.92C61.14,58.03,58.03,58.85,53.07,58.85z"/>
	<path class="st0" d="M78.65,79.14c-0.9,0-1.63,0.73-1.63,1.63c0,0.9,0.73,1.63,1.63,1.63c0.9,0,1.63-0.73,1.63-1.63
		C80.28,79.88,79.55,79.14,78.65,79.14z"/>
	<path class="st3" d="M79.29,79.67c-0.9,0-1.63,0.73-1.63,1.63c0,0.9,0.73,1.63,1.63,1.63c0.9,0,1.63-0.73,1.63-1.63
		C80.92,80.41,80.19,79.67,79.29,79.67z"/>
	<path d="M78.65,84.33c-1.96,0-3.55-1.59-3.55-3.55c0-1.96,1.59-3.55,3.55-3.55c1.96,0,3.55,1.59,3.55,3.55
		C82.2,82.73,80.61,84.33,78.65,84.33z M78.65,79.14c-0.9,0-1.63,0.73-1.63,1.63c0,0.9,0.73,1.63,1.63,1.63
		c0.9,0,1.63-0.73,1.63-1.63C80.28,79.88,79.55,79.14,78.65,79.14z"/>
	<path class="st0" d="M51.12,63.51c-0.88,0-1.6,0.72-1.6,1.6c0,0.88,0.72,1.6,1.6,1.6c0.88,0,1.6-0.72,1.6-1.6
		C52.72,64.22,52,63.51,51.12,63.51z"/>
	<path class="st3" d="M51.84,64.04c-0.88,0-1.6,0.72-1.6,1.6c0,0.88,0.72,1.6,1.6,1.6c0.88,0,1.6-0.72,1.6-1.6
		C53.44,64.75,52.72,64.04,51.84,64.04z"/>
	<path d="M51.12,68.63c-1.94,0-3.52-1.58-3.52-3.52c0-1.94,1.58-3.52,3.52-3.52c1.94,0,3.52,1.58,3.52,3.52
		C54.64,67.05,53.06,68.63,51.12,68.63z M51.12,63.51c-0.88,0-1.6,0.72-1.6,1.6c0,0.88,0.72,1.6,1.6,1.6c0.88,0,1.6-0.72,1.6-1.6
		C52.72,64.22,52,63.51,51.12,63.51z"/>
	<path class="st0" d="M48.66,78.96c-0.87,0-1.58,0.71-1.58,1.58c0,0.87,0.71,1.58,1.58,1.58c0.87,0,1.58-0.71,1.58-1.58
		C50.23,79.67,49.53,78.96,48.66,78.96z"/>
	<path class="st3" d="M49.52,79.45c-0.87,0-1.58,0.71-1.58,1.58s0.71,1.58,1.58,1.58c0.87,0,1.58-0.71,1.58-1.58
		S50.39,79.45,49.52,79.45z"/>
	<path class="st0" d="M65.01,69.72c-1.56-0.26-2.9,1.08-2.64,2.64c0.16,0.95,0.92,1.71,1.87,1.87c1.56,0.26,2.9-1.08,2.64-2.64
		C66.72,70.64,65.96,69.88,65.01,69.72z"/>
	<path d="M48.66,84.03c-1.93,0-3.49-1.57-3.49-3.49c0-1.93,1.57-3.49,3.49-3.49c1.93,0,3.49,1.57,3.49,3.49
		C52.15,82.46,50.59,84.03,48.66,84.03z M48.66,78.96c-0.87,0-1.58,0.71-1.58,1.58c0,0.87,0.71,1.58,1.58,1.58
		c0.87,0,1.58-0.71,1.58-1.58C50.23,79.67,49.53,78.96,48.66,78.96z"/>
	<path class="st3" d="M65.42,70.14c-1.26,0-2.29,1.03-2.29,2.29c0,1.26,1.03,2.29,2.29,2.29c1.26,0,2.29-1.03,2.29-2.29
		C67.71,71.17,66.68,70.14,65.42,70.14z"/>
	<path class="st0" d="M74.89,61.16c-0.94,0-1.7,0.76-1.7,1.7c0,0.94,0.76,1.7,1.7,1.7c0.94,0,1.7-0.76,1.7-1.7
		C76.6,61.92,75.83,61.16,74.89,61.16z"/>
	<path class="st3" d="M75.57,61.59c-0.94,0-1.7,0.76-1.7,1.7c0,0.94,0.76,1.7,1.7,1.7c0.94,0,1.7-0.76,1.7-1.7
		C77.28,62.35,76.51,61.59,75.57,61.59z"/>
	<path d="M64.62,76.18c-2.32,0-4.21-1.89-4.21-4.21c0-2.32,1.89-4.21,4.21-4.21c2.32,0,4.21,1.89,4.21,4.21
		C68.83,74.3,66.94,76.18,64.62,76.18z M64.62,69.69c-1.26,0-2.29,1.03-2.29,2.29c0,1.26,1.03,2.29,2.29,2.29
		c1.26,0,2.29-1.03,2.29-2.29C66.91,70.71,65.88,69.69,64.62,69.69z"/>
	<path d="M74.89,66.48c-2,0-3.62-1.62-3.62-3.62s1.62-3.62,3.62-3.62s3.62,1.62,3.62,3.62S76.89,66.48,74.89,66.48z M74.89,61.16
		c-0.94,0-1.7,0.76-1.7,1.7c0,0.94,0.76,1.7,1.7,1.7c0.94,0,1.7-0.76,1.7-1.7C76.6,61.92,75.83,61.16,74.89,61.16z"/>
</g>
</svg>
